<svg width="100%" height="100%" viewBox="0 0 292 421" fill="none" xmlns="http://www.w3.org/2000/svg">
<line x1="30" y1="29.5" x2="74" y2="29.5" stroke="#AFAFAF" stroke-width="11"/>
<line x1="30" y1="235.5" x2="74" y2="235.5" stroke="#AFAFAF" stroke-width="11"/>
<line x1="83" y1="29.5" x2="127" y2="29.5" stroke="#AFAFAF" stroke-width="11"/>
<line x1="83" y1="235.5" x2="127" y2="235.5" stroke="#AFAFAF" stroke-width="11"/>
<line x1="139" y1="29.5" x2="183" y2="29.5" stroke="#AFAFAF" stroke-width="11"/>
<line x1="139" y1="235.5" x2="183" y2="235.5" stroke="#AFAFAF" stroke-width="11"/>
<line x1="192" y1="29.5" x2="236" y2="29.5" stroke="#AFAFAF" stroke-width="11"/>
<line x1="192" y1="235.5" x2="236" y2="235.5" stroke="#AFAFAF" stroke-width="11"/>
<line x1="248" y1="29.5" x2="292" y2="29.5" stroke="#AFAFAF" stroke-width="11"/>
<line x1="248" y1="235.5" x2="292" y2="235.5" stroke="#AFAFAF" stroke-width="11"/>
<line x1="30" y1="69.5" x2="74" y2="69.5" stroke="#AFAFAF" stroke-width="11"/>
<line x1="30" y1="275.5" x2="74" y2="275.5" stroke="#AFAFAF" stroke-width="11"/>
<line x1="83" y1="69.5" x2="127" y2="69.5" stroke="#FF0000" stroke-width="11"/>
<line x1="83" y1="275.5" x2="127" y2="275.5" stroke="#AFAFAF" stroke-width="11"/>
<line x1="139" y1="69.5" x2="183" y2="69.5" stroke="#AFAFAF" stroke-width="11"/>
<line x1="139" y1="275.5" x2="183" y2="275.5" stroke="#AFAFAF" stroke-width="11"/>
<line x1="192" y1="69.5" x2="236" y2="69.5" stroke="#AFAFAF" stroke-width="11"/>
<line x1="192" y1="275.5" x2="236" y2="275.5" stroke="#AFAFAF" stroke-width="11"/>
<line x1="248" y1="69.5" x2="292" y2="69.5" stroke="#AFAFAF" stroke-width="11"/>
<line x1="248" y1="275.5" x2="292" y2="275.5" stroke="#AFAFAF" stroke-width="11"/>
<line x1="30" y1="89.5" x2="74" y2="89.5" stroke="#AFAFAF" stroke-width="11"/>
<line x1="30" y1="295.5" x2="74" y2="295.5" stroke="#AFAFAF" stroke-width="11"/>
<line x1="83" y1="89.5" x2="127" y2="89.5" stroke="#AFAFAF" stroke-width="11"/>
<line x1="83" y1="295.5" x2="127" y2="295.5" stroke="#AFAFAF" stroke-width="11"/>
<line x1="139" y1="89.5" x2="183" y2="89.5" stroke="#FF0000" stroke-width="11"/>
<line x1="139" y1="295.5" x2="183" y2="295.5" stroke="#AFAFAF" stroke-width="11"/>
<line x1="192" y1="89.5" x2="236" y2="89.5" stroke="#AFAFAF" stroke-width="11"/>
<line x1="192" y1="295.5" x2="236" y2="295.5" stroke="#AFAFAF" stroke-width="11"/>
<line x1="248" y1="89.5" x2="292" y2="89.5" stroke="#AFAFAF" stroke-width="11"/>
<line x1="248" y1="295.5" x2="292" y2="295.5" stroke="#AFAFAF" stroke-width="11"/>
<line x1="30" y1="109.5" x2="74" y2="109.5" stroke="#AFAFAF" stroke-width="11"/>
<line x1="30" y1="315.5" x2="74" y2="315.5" stroke="#AFAFAF" stroke-width="11"/>
<line x1="83" y1="109.5" x2="127" y2="109.5" stroke="#AFAFAF" stroke-width="11"/>
<line x1="83" y1="315.5" x2="127" y2="315.5" stroke="#AFAFAF" stroke-width="11"/>
<line x1="139" y1="109.5" x2="183" y2="109.5" stroke="#AFAFAF" stroke-width="11"/>
<line x1="139" y1="315.5" x2="183" y2="315.5" stroke="#AFAFAF" stroke-width="11"/>
<line x1="192" y1="109.5" x2="236" y2="109.5" stroke="#888888" stroke-width="11"/>
<line x1="192" y1="315.5" x2="236" y2="315.5" stroke="#888888" stroke-width="11"/>
<line x1="192" y1="109.5" x2="236" y2="109.5" stroke="#FF0000" stroke-width="11"/>
<line x1="192" y1="315.5" x2="236" y2="315.5" stroke="#AFAFAF" stroke-width="11"/>
<line x1="248" y1="109.5" x2="292" y2="109.5" stroke="#AFAFAF" stroke-width="11"/>
<line x1="248" y1="315.5" x2="292" y2="315.5" stroke="#AFAFAF" stroke-width="11"/>
<line x1="30" y1="129.5" x2="74" y2="129.5" stroke="#AFAFAF" stroke-width="11"/>
<line x1="30" y1="335.5" x2="74" y2="335.5" stroke="#AFAFAF" stroke-width="11"/>
<line x1="83" y1="129.5" x2="127" y2="129.5" stroke="#AFAFAF" stroke-width="11"/>
<line x1="83" y1="335.5" x2="127" y2="335.5" stroke="#AFAFAF" stroke-width="11"/>
<line x1="139" y1="129.5" x2="183" y2="129.5" stroke="#AFAFAF" stroke-width="11"/>
<line x1="139" y1="335.5" x2="183" y2="335.5" stroke="#AFAFAF" stroke-width="11"/>
<line x1="192" y1="129.5" x2="236" y2="129.5" stroke="#AFAFAF" stroke-width="11"/>
<line x1="192" y1="335.5" x2="236" y2="335.5" stroke="#AFAFAF" stroke-width="11"/>
<line x1="248" y1="129.5" x2="292" y2="129.5" stroke="#AFAFAF" stroke-width="11"/>
<line x1="248" y1="335.5" x2="292" y2="335.5" stroke="#AFAFAF" stroke-width="11"/>
<line x1="30" y1="149.5" x2="74" y2="149.5" stroke="#AFAFAF" stroke-width="11"/>
<line x1="30" y1="355.5" x2="74" y2="355.5" stroke="#AFAFAF" stroke-width="11"/>
<line x1="83" y1="149.5" x2="127" y2="149.5" stroke="#AFAFAF" stroke-width="11"/>
<line x1="83" y1="355.5" x2="127" y2="355.5" stroke="#AFAFAF" stroke-width="11"/>
<line x1="139" y1="149.5" x2="183" y2="149.5" stroke="#AFAFAF" stroke-width="11"/>
<line x1="139" y1="355.5" x2="183" y2="355.5" stroke="#AFAFAF" stroke-width="11"/>
<line x1="192" y1="149.5" x2="236" y2="149.5" stroke="#AFAFAF" stroke-width="11"/>
<line x1="192" y1="355.5" x2="236" y2="355.5" stroke="#AFAFAF" stroke-width="11"/>
<line x1="248" y1="149.5" x2="292" y2="149.5" stroke="#AFAFAF" stroke-width="11"/>
<line x1="248" y1="355.5" x2="292" y2="355.5" stroke="#AFAFAF" stroke-width="11"/>
<line x1="30" y1="169.5" x2="74" y2="169.5" stroke="#AFAFAF" stroke-width="11"/>
<line x1="30" y1="375.5" x2="74" y2="375.5" stroke="#AFAFAF" stroke-width="11"/>
<line x1="83" y1="169.5" x2="127" y2="169.5" stroke="#AFAFAF" stroke-width="11"/>
<line x1="83" y1="375.5" x2="127" y2="375.5" stroke="#AFAFAF" stroke-width="11"/>
<line x1="139" y1="169.5" x2="183" y2="169.5" stroke="#AFAFAF" stroke-width="11"/>
<line x1="139" y1="375.5" x2="183" y2="375.5" stroke="#AFAFAF" stroke-width="11"/>
<line x1="192" y1="169.5" x2="236" y2="169.5" stroke="#AFAFAF" stroke-width="11"/>
<line x1="192" y1="375.5" x2="236" y2="375.5" stroke="#AFAFAF" stroke-width="11"/>
<line x1="248" y1="169.5" x2="292" y2="169.5" stroke="#AFAFAF" stroke-width="11"/>
<line x1="248" y1="375.5" x2="292" y2="375.5" stroke="#AFAFAF" stroke-width="11"/>
<line x1="30" y1="189.5" x2="74" y2="189.5" stroke="#AFAFAF" stroke-width="11"/>
<line x1="30" y1="395.5" x2="74" y2="395.5" stroke="#AFAFAF" stroke-width="11"/>
<line x1="83" y1="189.5" x2="127" y2="189.5" stroke="#AFAFAF" stroke-width="11"/>
<line x1="83" y1="395.5" x2="127" y2="395.5" stroke="#AFAFAF" stroke-width="11"/>
<line x1="139" y1="189.5" x2="183" y2="189.5" stroke="#AFAFAF" stroke-width="11"/>
<line x1="139" y1="395.5" x2="183" y2="395.5" stroke="#AFAFAF" stroke-width="11"/>
<line x1="192" y1="189.5" x2="236" y2="189.5" stroke="#AFAFAF" stroke-width="11"/>
<line x1="192" y1="395.5" x2="236" y2="395.5" stroke="#AFAFAF" stroke-width="11"/>
<line x1="248" y1="189.5" x2="292" y2="189.5" stroke="#AFAFAF" stroke-width="11"/>
<line x1="248" y1="395.5" x2="292" y2="395.5" stroke="#AFAFAF" stroke-width="11"/>
<line x1="30" y1="209.5" x2="74" y2="209.5" stroke="#AFAFAF" stroke-width="11"/>
<line x1="30" y1="415.5" x2="74" y2="415.5" stroke="#AFAFAF" stroke-width="11"/>
<line x1="83" y1="209.5" x2="127" y2="209.5" stroke="#AFAFAF" stroke-width="11"/>
<line x1="83" y1="415.5" x2="127" y2="415.5" stroke="#AFAFAF" stroke-width="11"/>
<line x1="139" y1="209.5" x2="183" y2="209.5" stroke="#AFAFAF" stroke-width="11"/>
<line x1="139" y1="415.5" x2="183" y2="415.5" stroke="#AFAFAF" stroke-width="11"/>
<line x1="192" y1="209.5" x2="236" y2="209.5" stroke="#AFAFAF" stroke-width="11"/>
<line x1="192" y1="415.5" x2="236" y2="415.5" stroke="#AFAFAF" stroke-width="11"/>
<line x1="248" y1="209.5" x2="292" y2="209.5" stroke="#AFAFAF" stroke-width="11"/>
<line x1="248" y1="415.5" x2="292" y2="415.5" stroke="#AFAFAF" stroke-width="11"/>
<line x1="30" y1="49.5" x2="74" y2="49.5" stroke="#FF0000" stroke-width="11"/>
<line x1="30" y1="255.5" x2="74" y2="255.5" stroke="#AFAFAF" stroke-width="11"/>
<line x1="83" y1="49.5" x2="127" y2="49.5" stroke="#AFAFAF" stroke-width="11"/>
<line x1="83" y1="255.5" x2="127" y2="255.5" stroke="#AFAFAF" stroke-width="11"/>
<line x1="139" y1="49.5" x2="183" y2="49.5" stroke="#AFAFAF" stroke-width="11"/>
<line x1="139" y1="255.5" x2="183" y2="255.5" stroke="#AFAFAF" stroke-width="11"/>
<line x1="192" y1="49.5" x2="236" y2="49.5" stroke="#AFAFAF" stroke-width="11"/>
<line x1="192" y1="255.5" x2="236" y2="255.5" stroke="#AFAFAF" stroke-width="11"/>
<line x1="248" y1="49.5" x2="292" y2="49.5" stroke="#AFAFAF" stroke-width="11"/>
<line x1="248" y1="255.5" x2="292" y2="255.5" stroke="#AFAFAF" stroke-width="11"/>
<text fill="#FFDBDB" stroke="black" stroke-width="2" xml:space="preserve" style="white-space: pre" font-family="IBM Plex Sans Condensed" font-size="18" font-weight="bold" letter-spacing="-0.04em"><tspan x="35" y="54.75">Latin</tspan></text>
<text fill="#FFDBDB" stroke="black" stroke-width="2" xml:space="preserve" style="white-space: pre" font-family="IBM Plex Sans Condensed" font-size="18" font-weight="bold" letter-spacing="-0.04em"><tspan x="196" y="114.75">Latin</tspan></text>
<path d="M214.707 129.293C214.317 128.902 213.683 128.902 213.293 129.293L206.929 135.657C206.538 136.047 206.538 136.681 206.929 137.071C207.319 137.462 207.953 137.462 208.343 137.071L214 131.414L219.657 137.071C220.047 137.462 220.681 137.462 221.071 137.071C221.462 136.681 221.462 136.047 221.071 135.657L214.707 129.293ZM215 175L215 130L213 130L213 175L215 175Z" fill="black"/>
<text fill="black" fill-opacity="0.8" xml:space="preserve" style="white-space: pre" font-family="IBM Plex Sans Condensed" font-size="14" font-weight="600" letter-spacing="0em"><tspan x="36" y="12.75">2016</tspan></text>
<text fill="black" fill-opacity="0.8" xml:space="preserve" style="white-space: pre" font-family="IBM Plex Sans Condensed" font-size="14" font-weight="600" letter-spacing="0em"><tspan x="146" y="12.75">2020</tspan></text>
<text fill="black" fill-opacity="0.8" xml:space="preserve" style="white-space: pre" font-family="IBM Plex Sans Condensed" font-size="14" font-weight="600" letter-spacing="0em"><tspan x="254" y="12.75">2023</tspan></text>
<text fill="black" fill-opacity="0.8" xml:space="preserve" style="white-space: pre" font-family="IBM Plex Sans Condensed" font-size="14" font-weight="600" letter-spacing="0em"><tspan x="10" y="32.75">#1</tspan></text>
<text fill="black" fill-opacity="0.8" xml:space="preserve" style="white-space: pre" font-family="IBM Plex Sans Condensed" font-size="14" font-weight="600" letter-spacing="0em"><tspan x="0" y="239.75">#11</tspan></text>
<text fill="black" stroke="#D4D4D4" stroke-width="2" xml:space="preserve" style="white-space: pre" font-family="IBM Plex Sans Condensed" font-size="15" font-weight="500" letter-spacing="-0.04em"><tspan x="177" y="196.625">Latin drops from </tspan><tspan x="177" y="214.625">Spotify&#x2019;s genre </tspan><tspan x="177" y="232.625">classifications</tspan></text>
</svg>
