<svg width="100%" viewBox="0 0 326 251" fill="none" xmlns="http://www.w3.org/2000/svg">
<rect x="52" y="187" width="103" height="60" fill="#0000FF"/>
<rect x="189" y="187" width="103" height="60" fill="#0000FF"/>
<rect x="52" y="117" width="103" height="69" fill="#7676FF"/>
<rect x="189" y="159" width="103" height="27" fill="#7676FF"/>
<rect x="52" y="81" width="103" height="32" fill="#FF0000"/>
<rect x="189" y="121" width="103" height="35" fill="#FF0000"/>
<rect x="52" y="67" width="103" height="13" fill="#FF6363"/>
<rect x="189" y="67" width="103" height="54" fill="#FF6363"/>
<path d="M66.5298 102V92.228H68.5318V100.25H71.8498V102H66.5298ZM77.5517 102C76.7864 102 76.371 101.575 76.3057 100.726H76.1237C76.049 101.174 75.8484 101.529 75.5217 101.79C75.195 102.042 74.7797 102.168 74.2757 102.168C73.613 102.168 73.1137 101.981 72.7777 101.608C72.4417 101.225 72.2737 100.698 72.2737 100.026C72.2737 99.2233 72.5164 98.64 73.0017 98.276C73.4964 97.912 74.1824 97.73 75.0597 97.73H76.1237V97.156C76.1237 96.7733 76.0444 96.4887 75.8857 96.302C75.727 96.1153 75.461 96.022 75.0877 96.022C74.761 96.022 74.4857 96.106 74.2617 96.274C74.047 96.4327 73.8557 96.6473 73.6877 96.918L72.5257 95.882C72.8244 95.4433 73.1884 95.1027 73.6177 94.86C74.047 94.608 74.5977 94.482 75.2697 94.482C76.231 94.482 76.9404 94.706 77.3977 95.154C77.855 95.602 78.0837 96.2693 78.0837 97.156V100.474H78.6857V102H77.5517ZM75.0597 100.796C75.349 100.796 75.5964 100.717 75.8017 100.558C76.0164 100.39 76.1237 100.133 76.1237 99.788V98.878H75.2417C74.5697 98.878 74.2337 99.158 74.2337 99.718V99.984C74.2337 100.264 74.3037 100.469 74.4437 100.6C74.593 100.731 74.7984 100.796 75.0597 100.796ZM81.5251 102C80.8531 102 80.3631 101.851 80.0551 101.552C79.7564 101.253 79.6071 100.777 79.6071 100.124V96.176H78.6831V94.65H79.1311C79.3924 94.65 79.5698 94.594 79.6631 94.482C79.7564 94.37 79.8031 94.188 79.8031 93.936V92.662H81.5671V94.65H82.8551V96.176H81.5671V100.474H82.7151V102H81.5251ZM84.4622 93.754C84.0609 93.754 83.7669 93.67 83.5802 93.502C83.4029 93.3247 83.3142 93.0867 83.3142 92.788V92.48C83.3142 92.1813 83.4029 91.948 83.5802 91.78C83.7669 91.6027 84.0609 91.514 84.4622 91.514C84.8636 91.514 85.1529 91.6027 85.3302 91.78C85.5169 91.948 85.6102 92.1813 85.6102 92.48V92.788C85.6102 93.0867 85.5169 93.3247 85.3302 93.502C85.1529 93.67 84.8636 93.754 84.4622 93.754ZM83.4822 94.65H85.4422V102H83.4822V94.65ZM86.5863 102V94.65H88.5463V95.896H88.7703C88.8263 95.7 88.901 95.518 88.9943 95.35C89.0876 95.182 89.2043 95.0327 89.3443 94.902C89.4843 94.7713 89.6476 94.6687 89.8343 94.594C90.021 94.5193 90.2356 94.482 90.4783 94.482C91.141 94.482 91.645 94.706 91.9903 95.154C92.345 95.5927 92.5223 96.2087 92.5223 97.002V102H90.5623V97.38C90.5623 96.512 90.259 96.078 89.6523 96.078C89.3536 96.078 89.0923 96.1713 88.8683 96.358C88.6536 96.5353 88.5463 96.7873 88.5463 97.114V102H86.5863ZM101.538 102L100.936 99.606H97.9396L97.3376 102H95.4196L98.1916 92.228H100.74L103.512 102H101.538ZM99.8436 95.742L99.5356 94.048H99.3116L99.0036 95.742L98.4296 97.996H100.446L99.8436 95.742ZM104.088 102V94.65H106.048V95.896H106.272C106.328 95.7 106.403 95.518 106.496 95.35C106.599 95.182 106.715 95.0327 106.846 94.902C106.986 94.7713 107.149 94.6687 107.336 94.594C107.523 94.5193 107.737 94.482 107.98 94.482C108.456 94.482 108.834 94.6127 109.114 94.874C109.394 95.126 109.599 95.49 109.73 95.966H109.912C110.071 95.4527 110.318 95.0793 110.654 94.846C110.999 94.6033 111.396 94.482 111.844 94.482C112.469 94.482 112.945 94.706 113.272 95.154C113.608 95.602 113.776 96.218 113.776 97.002V102H111.816V97.38C111.816 96.512 111.531 96.078 110.962 96.078C110.673 96.078 110.425 96.1713 110.22 96.358C110.015 96.5353 109.912 96.7873 109.912 97.114V102H107.952V97.38C107.952 96.512 107.667 96.078 107.098 96.078C106.809 96.078 106.561 96.1713 106.356 96.358C106.151 96.5353 106.048 96.7873 106.048 97.114V102H104.088ZM117.733 102.168C116.725 102.168 115.917 101.851 115.311 101.216C114.713 100.572 114.415 99.6107 114.415 98.332C114.415 97.0253 114.676 96.0593 115.199 95.434C115.731 94.7993 116.51 94.482 117.537 94.482C118.563 94.482 119.338 94.7993 119.861 95.434C120.393 96.0593 120.659 97.0253 120.659 98.332V98.808H116.459V99.27C116.459 99.6807 116.585 100.012 116.837 100.264C117.089 100.507 117.434 100.628 117.873 100.628C118.237 100.628 118.545 100.549 118.797 100.39C119.058 100.222 119.296 99.9933 119.511 99.704L120.505 100.866C120.206 101.267 119.823 101.585 119.357 101.818C118.899 102.051 118.358 102.168 117.733 102.168ZM117.537 95.952C116.818 95.952 116.459 96.372 116.459 97.212V97.66H118.615V97.212C118.615 96.372 118.255 95.952 117.537 95.952ZM121.384 102V94.65H123.344V96.218H123.568C123.596 96.0127 123.643 95.8167 123.708 95.63C123.773 95.434 123.862 95.266 123.974 95.126C124.095 94.9767 124.245 94.86 124.422 94.776C124.599 94.692 124.809 94.65 125.052 94.65H125.402V96.638H124.898C124.366 96.638 123.974 96.7127 123.722 96.862C123.47 97.0113 123.344 97.296 123.344 97.716V102H121.384ZM126.945 93.754C126.543 93.754 126.249 93.67 126.063 93.502C125.885 93.3247 125.797 93.0867 125.797 92.788V92.48C125.797 92.1813 125.885 91.948 126.063 91.78C126.249 91.6027 126.543 91.514 126.945 91.514C127.346 91.514 127.635 91.6027 127.813 91.78C127.999 91.948 128.093 92.1813 128.093 92.48V92.788C128.093 93.0867 127.999 93.3247 127.813 93.502C127.635 93.67 127.346 93.754 126.945 93.754ZM125.965 94.65H127.925V102H125.965V94.65ZM131.757 102.168C130.73 102.168 129.955 101.855 129.433 101.23C128.91 100.605 128.649 99.6387 128.649 98.332C128.649 97.0253 128.91 96.0593 129.433 95.434C129.955 94.7993 130.73 94.482 131.757 94.482C132.485 94.482 133.063 94.65 133.493 94.986C133.931 95.3127 134.244 95.7793 134.431 96.386L132.849 97.086C132.802 96.7313 132.695 96.47 132.527 96.302C132.359 96.1247 132.102 96.036 131.757 96.036C131.047 96.036 130.693 96.456 130.693 97.296V99.354C130.693 100.194 131.047 100.614 131.757 100.614C132.111 100.614 132.373 100.525 132.541 100.348C132.718 100.161 132.849 99.8813 132.933 99.508L134.459 100.18C134.057 101.505 133.157 102.168 131.757 102.168ZM139.901 102C139.136 102 138.721 101.575 138.655 100.726H138.473C138.399 101.174 138.198 101.529 137.871 101.79C137.545 102.042 137.129 102.168 136.625 102.168C135.963 102.168 135.463 101.981 135.127 101.608C134.791 101.225 134.623 100.698 134.623 100.026C134.623 99.2233 134.866 98.64 135.351 98.276C135.846 97.912 136.532 97.73 137.409 97.73H138.473V97.156C138.473 96.7733 138.394 96.4887 138.235 96.302C138.077 96.1153 137.811 96.022 137.437 96.022C137.111 96.022 136.835 96.106 136.611 96.274C136.397 96.4327 136.205 96.6473 136.037 96.918L134.875 95.882C135.174 95.4433 135.538 95.1027 135.967 94.86C136.397 94.608 136.947 94.482 137.619 94.482C138.581 94.482 139.29 94.706 139.747 95.154C140.205 95.602 140.433 96.2693 140.433 97.156V100.474H141.035V102H139.901ZM137.409 100.796C137.699 100.796 137.946 100.717 138.151 100.558C138.366 100.39 138.473 100.133 138.473 99.788V98.878H137.591C136.919 98.878 136.583 99.158 136.583 99.718V99.984C136.583 100.264 136.653 100.469 136.793 100.6C136.943 100.731 137.148 100.796 137.409 100.796Z" fill="white"/>
<path d="M203.53 143V133.228H205.532V141.25H208.85V143H203.53ZM214.552 143C213.786 143 213.371 142.575 213.306 141.726H213.124C213.049 142.174 212.848 142.529 212.522 142.79C212.195 143.042 211.78 143.168 211.276 143.168C210.613 143.168 210.114 142.981 209.778 142.608C209.442 142.225 209.274 141.698 209.274 141.026C209.274 140.223 209.516 139.64 210.002 139.276C210.496 138.912 211.182 138.73 212.06 138.73H213.124V138.156C213.124 137.773 213.044 137.489 212.886 137.302C212.727 137.115 212.461 137.022 212.088 137.022C211.761 137.022 211.486 137.106 211.262 137.274C211.047 137.433 210.856 137.647 210.688 137.918L209.526 136.882C209.824 136.443 210.188 136.103 210.618 135.86C211.047 135.608 211.598 135.482 212.27 135.482C213.231 135.482 213.94 135.706 214.398 136.154C214.855 136.602 215.084 137.269 215.084 138.156V141.474H215.686V143H214.552ZM212.06 141.796C212.349 141.796 212.596 141.717 212.802 141.558C213.016 141.39 213.124 141.133 213.124 140.788V139.878H212.242C211.57 139.878 211.234 140.158 211.234 140.718V140.984C211.234 141.264 211.304 141.469 211.444 141.6C211.593 141.731 211.798 141.796 212.06 141.796ZM218.525 143C217.853 143 217.363 142.851 217.055 142.552C216.756 142.253 216.607 141.777 216.607 141.124V137.176H215.683V135.65H216.131C216.392 135.65 216.57 135.594 216.663 135.482C216.756 135.37 216.803 135.188 216.803 134.936V133.662H218.567V135.65H219.855V137.176H218.567V141.474H219.715V143H218.525ZM221.462 134.754C221.061 134.754 220.767 134.67 220.58 134.502C220.403 134.325 220.314 134.087 220.314 133.788V133.48C220.314 133.181 220.403 132.948 220.58 132.78C220.767 132.603 221.061 132.514 221.462 132.514C221.864 132.514 222.153 132.603 222.33 132.78C222.517 132.948 222.61 133.181 222.61 133.48V133.788C222.61 134.087 222.517 134.325 222.33 134.502C222.153 134.67 221.864 134.754 221.462 134.754ZM220.482 135.65H222.442V143H220.482V135.65ZM223.586 143V135.65H225.546V136.896H225.77C225.826 136.7 225.901 136.518 225.994 136.35C226.088 136.182 226.204 136.033 226.344 135.902C226.484 135.771 226.648 135.669 226.834 135.594C227.021 135.519 227.236 135.482 227.478 135.482C228.141 135.482 228.645 135.706 228.99 136.154C229.345 136.593 229.522 137.209 229.522 138.002V143H227.562V138.38C227.562 137.512 227.259 137.078 226.652 137.078C226.354 137.078 226.092 137.171 225.868 137.358C225.654 137.535 225.546 137.787 225.546 138.114V143H223.586ZM238.538 143L237.936 140.606H234.94L234.338 143H232.42L235.192 133.228H237.74L240.512 143H238.538ZM236.844 136.742L236.536 135.048H236.312L236.004 136.742L235.43 138.996H237.446L236.844 136.742ZM241.088 143V135.65H243.048V136.896H243.272C243.328 136.7 243.403 136.518 243.496 136.35C243.599 136.182 243.715 136.033 243.846 135.902C243.986 135.771 244.149 135.669 244.336 135.594C244.523 135.519 244.737 135.482 244.98 135.482C245.456 135.482 245.834 135.613 246.114 135.874C246.394 136.126 246.599 136.49 246.73 136.966H246.912C247.071 136.453 247.318 136.079 247.654 135.846C247.999 135.603 248.396 135.482 248.844 135.482C249.469 135.482 249.945 135.706 250.272 136.154C250.608 136.602 250.776 137.218 250.776 138.002V143H248.816V138.38C248.816 137.512 248.531 137.078 247.962 137.078C247.673 137.078 247.425 137.171 247.22 137.358C247.015 137.535 246.912 137.787 246.912 138.114V143H244.952V138.38C244.952 137.512 244.667 137.078 244.098 137.078C243.809 137.078 243.561 137.171 243.356 137.358C243.151 137.535 243.048 137.787 243.048 138.114V143H241.088ZM254.733 143.168C253.725 143.168 252.917 142.851 252.311 142.216C251.713 141.572 251.415 140.611 251.415 139.332C251.415 138.025 251.676 137.059 252.199 136.434C252.731 135.799 253.51 135.482 254.537 135.482C255.563 135.482 256.338 135.799 256.861 136.434C257.393 137.059 257.659 138.025 257.659 139.332V139.808H253.459V140.27C253.459 140.681 253.585 141.012 253.837 141.264C254.089 141.507 254.434 141.628 254.873 141.628C255.237 141.628 255.545 141.549 255.797 141.39C256.058 141.222 256.296 140.993 256.511 140.704L257.505 141.866C257.206 142.267 256.823 142.585 256.357 142.818C255.899 143.051 255.358 143.168 254.733 143.168ZM254.537 136.952C253.818 136.952 253.459 137.372 253.459 138.212V138.66H255.615V138.212C255.615 137.372 255.255 136.952 254.537 136.952ZM258.384 143V135.65H260.344V137.218H260.568C260.596 137.013 260.643 136.817 260.708 136.63C260.773 136.434 260.862 136.266 260.974 136.126C261.095 135.977 261.245 135.86 261.422 135.776C261.599 135.692 261.809 135.65 262.052 135.65H262.402V137.638H261.898C261.366 137.638 260.974 137.713 260.722 137.862C260.47 138.011 260.344 138.296 260.344 138.716V143H258.384ZM263.945 134.754C263.543 134.754 263.249 134.67 263.063 134.502C262.885 134.325 262.797 134.087 262.797 133.788V133.48C262.797 133.181 262.885 132.948 263.063 132.78C263.249 132.603 263.543 132.514 263.945 132.514C264.346 132.514 264.635 132.603 264.813 132.78C264.999 132.948 265.093 133.181 265.093 133.48V133.788C265.093 134.087 264.999 134.325 264.813 134.502C264.635 134.67 264.346 134.754 263.945 134.754ZM262.965 135.65H264.925V143H262.965V135.65ZM268.757 143.168C267.73 143.168 266.955 142.855 266.433 142.23C265.91 141.605 265.649 140.639 265.649 139.332C265.649 138.025 265.91 137.059 266.433 136.434C266.955 135.799 267.73 135.482 268.757 135.482C269.485 135.482 270.063 135.65 270.493 135.986C270.931 136.313 271.244 136.779 271.431 137.386L269.849 138.086C269.802 137.731 269.695 137.47 269.527 137.302C269.359 137.125 269.102 137.036 268.757 137.036C268.047 137.036 267.693 137.456 267.693 138.296V140.354C267.693 141.194 268.047 141.614 268.757 141.614C269.111 141.614 269.373 141.525 269.541 141.348C269.718 141.161 269.849 140.881 269.933 140.508L271.459 141.18C271.057 142.505 270.157 143.168 268.757 143.168ZM276.901 143C276.136 143 275.721 142.575 275.655 141.726H275.473C275.399 142.174 275.198 142.529 274.871 142.79C274.545 143.042 274.129 143.168 273.625 143.168C272.963 143.168 272.463 142.981 272.127 142.608C271.791 142.225 271.623 141.698 271.623 141.026C271.623 140.223 271.866 139.64 272.351 139.276C272.846 138.912 273.532 138.73 274.409 138.73H275.473V138.156C275.473 137.773 275.394 137.489 275.235 137.302C275.077 137.115 274.811 137.022 274.437 137.022C274.111 137.022 273.835 137.106 273.611 137.274C273.397 137.433 273.205 137.647 273.037 137.918L271.875 136.882C272.174 136.443 272.538 136.103 272.967 135.86C273.397 135.608 273.947 135.482 274.619 135.482C275.581 135.482 276.29 135.706 276.747 136.154C277.205 136.602 277.433 137.269 277.433 138.156V141.474H278.035V143H276.901ZM274.409 141.796C274.699 141.796 274.946 141.717 275.151 141.558C275.366 141.39 275.473 141.133 275.473 140.788V139.878H274.591C273.919 139.878 273.583 140.158 273.583 140.718V140.984C273.583 141.264 273.653 141.469 273.793 141.6C273.943 141.731 274.148 141.796 274.409 141.796Z" fill="white"/>
<path d="M84.7358 155V145.228H90.7838V146.978H86.7378V149.19H90.1678V150.926H86.7378V153.25H90.7838V155H84.7358ZM95.6534 153.754H95.4294C95.3734 153.95 95.294 154.132 95.1914 154.3C95.098 154.468 94.9814 154.617 94.8414 154.748C94.7014 154.879 94.538 154.981 94.3514 155.056C94.1647 155.131 93.9454 155.168 93.6934 155.168C93.04 155.168 92.5407 154.949 92.1954 154.51C91.85 154.062 91.6774 153.441 91.6774 152.648V147.65H93.6374V152.27C93.6374 153.138 93.9407 153.572 94.5474 153.572C94.846 153.572 95.1027 153.483 95.3174 153.306C95.5414 153.119 95.6534 152.863 95.6534 152.536V147.65H97.6134V155H95.6534V153.754ZM98.7619 155V147.65H100.722V149.218H100.946C100.974 149.013 101.021 148.817 101.086 148.63C101.151 148.434 101.24 148.266 101.352 148.126C101.473 147.977 101.623 147.86 101.8 147.776C101.977 147.692 102.187 147.65 102.43 147.65H102.78V149.638H102.276C101.744 149.638 101.352 149.713 101.1 149.862C100.848 150.011 100.722 150.296 100.722 150.716V155H98.7619ZM105.976 155.168C104.95 155.168 104.17 154.855 103.638 154.23C103.116 153.605 102.854 152.639 102.854 151.332C102.854 150.025 103.116 149.059 103.638 148.434C104.17 147.799 104.95 147.482 105.976 147.482C107.003 147.482 107.778 147.799 108.3 148.434C108.832 149.059 109.098 150.025 109.098 151.332C109.098 152.639 108.832 153.605 108.3 154.23C107.778 154.855 107.003 155.168 105.976 155.168ZM105.976 153.614C106.695 153.614 107.054 153.194 107.054 152.354V150.296C107.054 149.456 106.695 149.036 105.976 149.036C105.258 149.036 104.898 149.456 104.898 150.296V152.354C104.898 153.194 105.258 153.614 105.976 153.614ZM109.824 147.65H111.784V148.868H112.008C112.045 148.672 112.115 148.49 112.218 148.322C112.33 148.154 112.46 148.009 112.61 147.888C112.759 147.757 112.927 147.659 113.114 147.594C113.3 147.519 113.492 147.482 113.688 147.482C114.537 147.482 115.158 147.804 115.55 148.448C115.951 149.092 116.152 150.053 116.152 151.332C116.152 152.611 115.956 153.572 115.564 154.216C115.172 154.851 114.546 155.168 113.688 155.168C113.492 155.168 113.3 155.131 113.114 155.056C112.927 154.991 112.759 154.897 112.61 154.776C112.46 154.645 112.33 154.496 112.218 154.328C112.115 154.16 112.045 153.978 112.008 153.782H111.784V157.8H109.824V147.65ZM112.904 153.572C113.268 153.572 113.557 153.46 113.772 153.236C113.996 153.003 114.108 152.676 114.108 152.256V150.394C114.108 149.974 113.996 149.652 113.772 149.428C113.557 149.195 113.268 149.078 112.904 149.078C112.549 149.078 112.274 149.162 112.078 149.33C111.882 149.489 111.784 149.731 111.784 150.058V152.592C111.784 152.919 111.882 153.166 112.078 153.334C112.274 153.493 112.549 153.572 112.904 153.572ZM119.859 155.168C118.851 155.168 118.044 154.851 117.437 154.216C116.84 153.572 116.541 152.611 116.541 151.332C116.541 150.025 116.802 149.059 117.325 148.434C117.857 147.799 118.636 147.482 119.663 147.482C120.69 147.482 121.464 147.799 121.987 148.434C122.519 149.059 122.785 150.025 122.785 151.332V151.808H118.585V152.27C118.585 152.681 118.711 153.012 118.963 153.264C119.215 153.507 119.56 153.628 119.999 153.628C120.363 153.628 120.671 153.549 120.923 153.39C121.184 153.222 121.422 152.993 121.637 152.704L122.631 153.866C122.332 154.267 121.95 154.585 121.483 154.818C121.026 155.051 120.484 155.168 119.859 155.168ZM119.663 148.952C118.944 148.952 118.585 149.372 118.585 150.212V150.66H120.741V150.212C120.741 149.372 120.382 148.952 119.663 148.952Z" fill="white"/>
<path d="M221.736 178V168.228H227.784V169.978H223.738V172.19H227.168V173.926H223.738V176.25H227.784V178H221.736ZM232.653 176.754H232.429C232.373 176.95 232.294 177.132 232.191 177.3C232.098 177.468 231.981 177.617 231.841 177.748C231.701 177.879 231.538 177.981 231.351 178.056C231.165 178.131 230.945 178.168 230.693 178.168C230.04 178.168 229.541 177.949 229.195 177.51C228.85 177.062 228.677 176.441 228.677 175.648V170.65H230.637V175.27C230.637 176.138 230.941 176.572 231.547 176.572C231.846 176.572 232.103 176.483 232.317 176.306C232.541 176.119 232.653 175.863 232.653 175.536V170.65H234.613V178H232.653V176.754ZM235.762 178V170.65H237.722V172.218H237.946C237.974 172.013 238.021 171.817 238.086 171.63C238.151 171.434 238.24 171.266 238.352 171.126C238.473 170.977 238.623 170.86 238.8 170.776C238.977 170.692 239.187 170.65 239.43 170.65H239.78V172.638H239.276C238.744 172.638 238.352 172.713 238.1 172.862C237.848 173.011 237.722 173.296 237.722 173.716V178H235.762ZM242.976 178.168C241.95 178.168 241.17 177.855 240.638 177.23C240.116 176.605 239.854 175.639 239.854 174.332C239.854 173.025 240.116 172.059 240.638 171.434C241.17 170.799 241.95 170.482 242.976 170.482C244.003 170.482 244.778 170.799 245.3 171.434C245.832 172.059 246.098 173.025 246.098 174.332C246.098 175.639 245.832 176.605 245.3 177.23C244.778 177.855 244.003 178.168 242.976 178.168ZM242.976 176.614C243.695 176.614 244.054 176.194 244.054 175.354V173.296C244.054 172.456 243.695 172.036 242.976 172.036C242.258 172.036 241.898 172.456 241.898 173.296V175.354C241.898 176.194 242.258 176.614 242.976 176.614ZM246.824 170.65H248.784V171.868H249.008C249.045 171.672 249.115 171.49 249.218 171.322C249.33 171.154 249.46 171.009 249.61 170.888C249.759 170.757 249.927 170.659 250.114 170.594C250.3 170.519 250.492 170.482 250.688 170.482C251.537 170.482 252.158 170.804 252.55 171.448C252.951 172.092 253.152 173.053 253.152 174.332C253.152 175.611 252.956 176.572 252.564 177.216C252.172 177.851 251.546 178.168 250.688 178.168C250.492 178.168 250.3 178.131 250.114 178.056C249.927 177.991 249.759 177.897 249.61 177.776C249.46 177.645 249.33 177.496 249.218 177.328C249.115 177.16 249.045 176.978 249.008 176.782H248.784V180.8H246.824V170.65ZM249.904 176.572C250.268 176.572 250.557 176.46 250.772 176.236C250.996 176.003 251.108 175.676 251.108 175.256V173.394C251.108 172.974 250.996 172.652 250.772 172.428C250.557 172.195 250.268 172.078 249.904 172.078C249.549 172.078 249.274 172.162 249.078 172.33C248.882 172.489 248.784 172.731 248.784 173.058V175.592C248.784 175.919 248.882 176.166 249.078 176.334C249.274 176.493 249.549 176.572 249.904 176.572ZM256.859 178.168C255.851 178.168 255.044 177.851 254.437 177.216C253.84 176.572 253.541 175.611 253.541 174.332C253.541 173.025 253.802 172.059 254.325 171.434C254.857 170.799 255.636 170.482 256.663 170.482C257.69 170.482 258.464 170.799 258.987 171.434C259.519 172.059 259.785 173.025 259.785 174.332V174.808H255.585V175.27C255.585 175.681 255.711 176.012 255.963 176.264C256.215 176.507 256.56 176.628 256.999 176.628C257.363 176.628 257.671 176.549 257.923 176.39C258.184 176.222 258.422 175.993 258.637 175.704L259.631 176.866C259.332 177.267 258.95 177.585 258.483 177.818C258.026 178.051 257.484 178.168 256.859 178.168ZM256.663 171.952C255.944 171.952 255.585 172.372 255.585 173.212V173.66H257.741V173.212C257.741 172.372 257.382 171.952 256.663 171.952Z" fill="white"/>
<path d="M67.1787 219.764L66.5627 218.21H66.3387L66.4507 219.848V225H64.5747V215.228H66.7587L69.2227 220.464L69.8387 222.018H70.0627L69.9507 220.38V215.228H71.8267V225H69.6427L67.1787 219.764ZM75.7789 225.168C74.7522 225.168 73.9729 224.855 73.4409 224.23C72.9182 223.605 72.6569 222.639 72.6569 221.332C72.6569 220.025 72.9182 219.059 73.4409 218.434C73.9729 217.799 74.7522 217.482 75.7789 217.482C76.8055 217.482 77.5802 217.799 78.1029 218.434C78.6349 219.059 78.9009 220.025 78.9009 221.332C78.9009 222.639 78.6349 223.605 78.1029 224.23C77.5802 224.855 76.8055 225.168 75.7789 225.168ZM75.7789 223.614C76.4975 223.614 76.8569 223.194 76.8569 222.354V220.296C76.8569 219.456 76.4975 219.036 75.7789 219.036C75.0602 219.036 74.7009 219.456 74.7009 220.296V222.354C74.7009 223.194 75.0602 223.614 75.7789 223.614ZM79.6262 225V217.65H81.5862V219.218H81.8102C81.8382 219.013 81.8849 218.817 81.9502 218.63C82.0156 218.434 82.1042 218.266 82.2162 218.126C82.3376 217.977 82.4869 217.86 82.6642 217.776C82.8416 217.692 83.0516 217.65 83.2942 217.65H83.6442V219.638H83.1402C82.6082 219.638 82.2162 219.713 81.9642 219.862C81.7122 220.011 81.5862 220.296 81.5862 220.716V225H79.6262ZM86.5842 225C85.9122 225 85.4222 224.851 85.1142 224.552C84.8156 224.253 84.6662 223.777 84.6662 223.124V219.176H83.7422V217.65H84.1902C84.4516 217.65 84.6289 217.594 84.7222 217.482C84.8156 217.37 84.8622 217.188 84.8622 216.936V215.662H86.6262V217.65H87.9142V219.176H86.6262V223.474H87.7742V225H86.5842ZM88.5414 214.64H90.5014V218.896H90.7254C90.7814 218.7 90.8561 218.518 90.9494 218.35C91.0521 218.182 91.1734 218.033 91.3134 217.902C91.4534 217.771 91.6167 217.669 91.8034 217.594C91.9901 217.519 92.2094 217.482 92.4614 217.482C93.1147 217.482 93.6141 217.706 93.9594 218.154C94.3047 218.593 94.4774 219.209 94.4774 220.002V225H92.5174V220.38C92.5174 219.512 92.2141 219.078 91.6074 219.078C91.3087 219.078 91.0474 219.171 90.8234 219.358C90.6087 219.535 90.5014 219.787 90.5014 220.114V225H88.5414V214.64ZM103.493 225L102.891 222.606H99.8947L99.2927 225H97.3747L100.147 215.228H102.695L105.467 225H103.493ZM101.799 218.742L101.491 217.048H101.267L100.959 218.742L100.385 220.996H102.401L101.799 218.742ZM106.043 225V217.65H108.003V218.896H108.227C108.283 218.7 108.358 218.518 108.451 218.35C108.554 218.182 108.67 218.033 108.801 217.902C108.941 217.771 109.104 217.669 109.291 217.594C109.478 217.519 109.692 217.482 109.935 217.482C110.411 217.482 110.789 217.613 111.069 217.874C111.349 218.126 111.554 218.49 111.685 218.966H111.867C112.026 218.453 112.273 218.079 112.609 217.846C112.954 217.603 113.351 217.482 113.799 217.482C114.424 217.482 114.9 217.706 115.227 218.154C115.563 218.602 115.731 219.218 115.731 220.002V225H113.771V220.38C113.771 219.512 113.486 219.078 112.917 219.078C112.628 219.078 112.38 219.171 112.175 219.358C111.97 219.535 111.867 219.787 111.867 220.114V225H109.907V220.38C109.907 219.512 109.622 219.078 109.053 219.078C108.764 219.078 108.516 219.171 108.311 219.358C108.106 219.535 108.003 219.787 108.003 220.114V225H106.043ZM119.688 225.168C118.68 225.168 117.872 224.851 117.266 224.216C116.668 223.572 116.37 222.611 116.37 221.332C116.37 220.025 116.631 219.059 117.154 218.434C117.686 217.799 118.465 217.482 119.492 217.482C120.518 217.482 121.293 217.799 121.816 218.434C122.348 219.059 122.614 220.025 122.614 221.332V221.808H118.414V222.27C118.414 222.681 118.54 223.012 118.792 223.264C119.044 223.507 119.389 223.628 119.828 223.628C120.192 223.628 120.5 223.549 120.752 223.39C121.013 223.222 121.251 222.993 121.466 222.704L122.46 223.866C122.161 224.267 121.778 224.585 121.312 224.818C120.854 225.051 120.313 225.168 119.688 225.168ZM119.492 218.952C118.773 218.952 118.414 219.372 118.414 220.212V220.66H120.57V220.212C120.57 219.372 120.21 218.952 119.492 218.952ZM123.339 225V217.65H125.299V219.218H125.523C125.551 219.013 125.598 218.817 125.663 218.63C125.728 218.434 125.817 218.266 125.929 218.126C126.05 217.977 126.2 217.86 126.377 217.776C126.554 217.692 126.764 217.65 127.007 217.65H127.357V219.638H126.853C126.321 219.638 125.929 219.713 125.677 219.862C125.425 220.011 125.299 220.296 125.299 220.716V225H123.339ZM128.9 216.754C128.498 216.754 128.204 216.67 128.018 216.502C127.84 216.325 127.752 216.087 127.752 215.788V215.48C127.752 215.181 127.84 214.948 128.018 214.78C128.204 214.603 128.498 214.514 128.9 214.514C129.301 214.514 129.59 214.603 129.768 214.78C129.954 214.948 130.048 215.181 130.048 215.48V215.788C130.048 216.087 129.954 216.325 129.768 216.502C129.59 216.67 129.301 216.754 128.9 216.754ZM127.92 217.65H129.88V225H127.92V217.65ZM133.712 225.168C132.685 225.168 131.91 224.855 131.388 224.23C130.865 223.605 130.604 222.639 130.604 221.332C130.604 220.025 130.865 219.059 131.388 218.434C131.91 217.799 132.685 217.482 133.712 217.482C134.44 217.482 135.018 217.65 135.448 217.986C135.886 218.313 136.199 218.779 136.386 219.386L134.804 220.086C134.757 219.731 134.65 219.47 134.482 219.302C134.314 219.125 134.057 219.036 133.712 219.036C133.002 219.036 132.648 219.456 132.648 220.296V222.354C132.648 223.194 133.002 223.614 133.712 223.614C134.066 223.614 134.328 223.525 134.496 223.348C134.673 223.161 134.804 222.881 134.888 222.508L136.414 223.18C136.012 224.505 135.112 225.168 133.712 225.168ZM141.857 225C141.091 225 140.676 224.575 140.611 223.726H140.429C140.354 224.174 140.153 224.529 139.827 224.79C139.5 225.042 139.085 225.168 138.581 225.168C137.918 225.168 137.419 224.981 137.083 224.608C136.747 224.225 136.579 223.698 136.579 223.026C136.579 222.223 136.821 221.64 137.307 221.276C137.801 220.912 138.487 220.73 139.365 220.73H140.429V220.156C140.429 219.773 140.349 219.489 140.191 219.302C140.032 219.115 139.766 219.022 139.393 219.022C139.066 219.022 138.791 219.106 138.567 219.274C138.352 219.433 138.161 219.647 137.993 219.918L136.831 218.882C137.129 218.443 137.493 218.103 137.923 217.86C138.352 217.608 138.903 217.482 139.575 217.482C140.536 217.482 141.245 217.706 141.703 218.154C142.16 218.602 142.389 219.269 142.389 220.156V223.474H142.991V225H141.857ZM139.365 223.796C139.654 223.796 139.901 223.717 140.107 223.558C140.321 223.39 140.429 223.133 140.429 222.788V221.878H139.547C138.875 221.878 138.539 222.158 138.539 222.718V222.984C138.539 223.264 138.609 223.469 138.749 223.6C138.898 223.731 139.103 223.796 139.365 223.796Z" fill="white"/>
<path d="M203.179 216.764L202.563 215.21H202.339L202.451 216.848V222H200.575V212.228H202.759L205.223 217.464L205.839 219.018H206.063L205.951 217.38V212.228H207.827V222H205.643L203.179 216.764ZM211.779 222.168C210.752 222.168 209.973 221.855 209.441 221.23C208.918 220.605 208.657 219.639 208.657 218.332C208.657 217.025 208.918 216.059 209.441 215.434C209.973 214.799 210.752 214.482 211.779 214.482C212.806 214.482 213.58 214.799 214.103 215.434C214.635 216.059 214.901 217.025 214.901 218.332C214.901 219.639 214.635 220.605 214.103 221.23C213.58 221.855 212.806 222.168 211.779 222.168ZM211.779 220.614C212.498 220.614 212.857 220.194 212.857 219.354V217.296C212.857 216.456 212.498 216.036 211.779 216.036C211.06 216.036 210.701 216.456 210.701 217.296V219.354C210.701 220.194 211.06 220.614 211.779 220.614ZM215.626 222V214.65H217.586V216.218H217.81C217.838 216.013 217.885 215.817 217.95 215.63C218.016 215.434 218.104 215.266 218.216 215.126C218.338 214.977 218.487 214.86 218.664 214.776C218.842 214.692 219.052 214.65 219.294 214.65H219.644V216.638H219.14C218.608 216.638 218.216 216.713 217.964 216.862C217.712 217.011 217.586 217.296 217.586 217.716V222H215.626ZM222.584 222C221.912 222 221.422 221.851 221.114 221.552C220.816 221.253 220.666 220.777 220.666 220.124V216.176H219.742V214.65H220.19C220.452 214.65 220.629 214.594 220.722 214.482C220.816 214.37 220.862 214.188 220.862 213.936V212.662H222.626V214.65H223.914V216.176H222.626V220.474H223.774V222H222.584ZM224.541 211.64H226.501V215.896H226.725C226.781 215.7 226.856 215.518 226.949 215.35C227.052 215.182 227.173 215.033 227.313 214.902C227.453 214.771 227.617 214.669 227.803 214.594C227.99 214.519 228.209 214.482 228.461 214.482C229.115 214.482 229.614 214.706 229.959 215.154C230.305 215.593 230.477 216.209 230.477 217.002V222H228.517V217.38C228.517 216.512 228.214 216.078 227.607 216.078C227.309 216.078 227.047 216.171 226.823 216.358C226.609 216.535 226.501 216.787 226.501 217.114V222H224.541V211.64ZM239.493 222L238.891 219.606H235.895L235.293 222H233.375L236.147 212.228H238.695L241.467 222H239.493ZM237.799 215.742L237.491 214.048H237.267L236.959 215.742L236.385 217.996H238.401L237.799 215.742ZM242.043 222V214.65H244.003V215.896H244.227C244.283 215.7 244.358 215.518 244.451 215.35C244.554 215.182 244.67 215.033 244.801 214.902C244.941 214.771 245.104 214.669 245.291 214.594C245.478 214.519 245.692 214.482 245.935 214.482C246.411 214.482 246.789 214.613 247.069 214.874C247.349 215.126 247.554 215.49 247.685 215.966H247.867C248.026 215.453 248.273 215.079 248.609 214.846C248.954 214.603 249.351 214.482 249.799 214.482C250.424 214.482 250.9 214.706 251.227 215.154C251.563 215.602 251.731 216.218 251.731 217.002V222H249.771V217.38C249.771 216.512 249.486 216.078 248.917 216.078C248.628 216.078 248.38 216.171 248.175 216.358C247.97 216.535 247.867 216.787 247.867 217.114V222H245.907V217.38C245.907 216.512 245.622 216.078 245.053 216.078C244.764 216.078 244.516 216.171 244.311 216.358C244.106 216.535 244.003 216.787 244.003 217.114V222H242.043ZM255.688 222.168C254.68 222.168 253.872 221.851 253.266 221.216C252.668 220.572 252.37 219.611 252.37 218.332C252.37 217.025 252.631 216.059 253.154 215.434C253.686 214.799 254.465 214.482 255.492 214.482C256.518 214.482 257.293 214.799 257.816 215.434C258.348 216.059 258.614 217.025 258.614 218.332V218.808H254.414V219.27C254.414 219.681 254.54 220.012 254.792 220.264C255.044 220.507 255.389 220.628 255.828 220.628C256.192 220.628 256.5 220.549 256.752 220.39C257.013 220.222 257.251 219.993 257.466 219.704L258.46 220.866C258.161 221.267 257.778 221.585 257.312 221.818C256.854 222.051 256.313 222.168 255.688 222.168ZM255.492 215.952C254.773 215.952 254.414 216.372 254.414 217.212V217.66H256.57V217.212C256.57 216.372 256.21 215.952 255.492 215.952ZM259.339 222V214.65H261.299V216.218H261.523C261.551 216.013 261.598 215.817 261.663 215.63C261.728 215.434 261.817 215.266 261.929 215.126C262.05 214.977 262.2 214.86 262.377 214.776C262.554 214.692 262.764 214.65 263.007 214.65H263.357V216.638H262.853C262.321 216.638 261.929 216.713 261.677 216.862C261.425 217.011 261.299 217.296 261.299 217.716V222H259.339ZM264.9 213.754C264.498 213.754 264.204 213.67 264.018 213.502C263.84 213.325 263.752 213.087 263.752 212.788V212.48C263.752 212.181 263.84 211.948 264.018 211.78C264.204 211.603 264.498 211.514 264.9 211.514C265.301 211.514 265.59 211.603 265.768 211.78C265.954 211.948 266.048 212.181 266.048 212.48V212.788C266.048 213.087 265.954 213.325 265.768 213.502C265.59 213.67 265.301 213.754 264.9 213.754ZM263.92 214.65H265.88V222H263.92V214.65ZM269.712 222.168C268.685 222.168 267.91 221.855 267.388 221.23C266.865 220.605 266.604 219.639 266.604 218.332C266.604 217.025 266.865 216.059 267.388 215.434C267.91 214.799 268.685 214.482 269.712 214.482C270.44 214.482 271.018 214.65 271.448 214.986C271.886 215.313 272.199 215.779 272.386 216.386L270.804 217.086C270.757 216.731 270.65 216.47 270.482 216.302C270.314 216.125 270.057 216.036 269.712 216.036C269.002 216.036 268.648 216.456 268.648 217.296V219.354C268.648 220.194 269.002 220.614 269.712 220.614C270.066 220.614 270.328 220.525 270.496 220.348C270.673 220.161 270.804 219.881 270.888 219.508L272.414 220.18C272.012 221.505 271.112 222.168 269.712 222.168ZM277.857 222C277.091 222 276.676 221.575 276.611 220.726H276.429C276.354 221.174 276.153 221.529 275.827 221.79C275.5 222.042 275.085 222.168 274.581 222.168C273.918 222.168 273.419 221.981 273.083 221.608C272.747 221.225 272.579 220.698 272.579 220.026C272.579 219.223 272.821 218.64 273.307 218.276C273.801 217.912 274.487 217.73 275.365 217.73H276.429V217.156C276.429 216.773 276.349 216.489 276.191 216.302C276.032 216.115 275.766 216.022 275.393 216.022C275.066 216.022 274.791 216.106 274.567 216.274C274.352 216.433 274.161 216.647 273.993 216.918L272.831 215.882C273.129 215.443 273.493 215.103 273.923 214.86C274.352 214.608 274.903 214.482 275.575 214.482C276.536 214.482 277.245 214.706 277.703 215.154C278.16 215.602 278.389 216.269 278.389 217.156V220.474H278.991V222H277.857ZM275.365 220.796C275.654 220.796 275.901 220.717 276.107 220.558C276.321 220.39 276.429 220.133 276.429 219.788V218.878H275.547C274.875 218.878 274.539 219.158 274.539 219.718V219.984C274.539 220.264 274.609 220.469 274.749 220.6C274.898 220.731 275.103 220.796 275.365 220.796Z" fill="white"/>
<path d="M98.7839 78L98.1819 75.606H95.1859L94.5839 78H92.6659L95.4379 68.228H97.9859L100.758 78H98.7839ZM97.0899 71.742L96.7819 70.048H96.5579L96.2499 71.742L95.6759 73.996H97.6919L97.0899 71.742ZM103.644 78.168C102.44 78.168 101.479 77.734 100.76 76.866L101.922 75.704C102.37 76.3387 102.958 76.656 103.686 76.656C104.312 76.656 104.624 76.404 104.624 75.9C104.624 75.704 104.573 75.5547 104.47 75.452C104.377 75.34 104.218 75.2607 103.994 75.214L103.252 75.074C102.459 74.9247 101.885 74.6773 101.53 74.332C101.185 73.9773 101.012 73.478 101.012 72.834C101.012 72.0593 101.241 71.476 101.698 71.084C102.156 70.6827 102.823 70.482 103.7 70.482C104.288 70.482 104.797 70.5753 105.226 70.762C105.665 70.9393 106.048 71.2147 106.374 71.588L105.254 72.736C104.834 72.2413 104.321 71.994 103.714 71.994C103.145 71.994 102.86 72.246 102.86 72.75C102.86 72.9553 102.912 73.1093 103.014 73.212C103.117 73.3147 103.285 73.3893 103.518 73.436L104.288 73.576C105.063 73.716 105.618 73.954 105.954 74.29C106.3 74.6167 106.472 75.088 106.472 75.704C106.472 76.4973 106.225 77.1087 105.73 77.538C105.236 77.958 104.54 78.168 103.644 78.168ZM108.125 69.754C107.724 69.754 107.43 69.67 107.243 69.502C107.066 69.3247 106.977 69.0867 106.977 68.788V68.48C106.977 68.1813 107.066 67.948 107.243 67.78C107.43 67.6027 107.724 67.514 108.125 67.514C108.527 67.514 108.816 67.6027 108.993 67.78C109.18 67.948 109.273 68.1813 109.273 68.48V68.788C109.273 69.0867 109.18 69.3247 108.993 69.502C108.816 69.67 108.527 69.754 108.125 69.754ZM107.145 70.65H109.105V78H107.145V70.65ZM115.093 78C114.328 78 113.913 77.5753 113.847 76.726H113.665C113.591 77.174 113.39 77.5287 113.063 77.79C112.737 78.042 112.321 78.168 111.817 78.168C111.155 78.168 110.655 77.9813 110.319 77.608C109.983 77.2253 109.815 76.698 109.815 76.026C109.815 75.2233 110.058 74.64 110.543 74.276C111.038 73.912 111.724 73.73 112.601 73.73H113.665V73.156C113.665 72.7733 113.586 72.4887 113.427 72.302C113.269 72.1153 113.003 72.022 112.629 72.022C112.303 72.022 112.027 72.106 111.803 72.274C111.589 72.4327 111.397 72.6473 111.229 72.918L110.067 71.882C110.366 71.4433 110.73 71.1027 111.159 70.86C111.589 70.608 112.139 70.482 112.811 70.482C113.773 70.482 114.482 70.706 114.939 71.154C115.397 71.602 115.625 72.2693 115.625 73.156V76.474H116.227V78H115.093ZM112.601 76.796C112.891 76.796 113.138 76.7167 113.343 76.558C113.558 76.39 113.665 76.1333 113.665 75.788V74.878H112.783C112.111 74.878 111.775 75.158 111.775 75.718V75.984C111.775 76.264 111.845 76.4693 111.985 76.6C112.135 76.7307 112.34 76.796 112.601 76.796Z" fill="white"/>
<path d="M98.7839 78L97.8141 78.2439L98.0042 79H98.7839V78ZM98.1819 75.606L99.1517 75.3621L98.9616 74.606H98.1819V75.606ZM95.1859 75.606V74.606H94.4062L94.2161 75.3621L95.1859 75.606ZM94.5839 78V79H95.3636L95.5537 78.2439L94.5839 78ZM92.6659 78L91.7039 77.7271L91.3428 79H92.6659V78ZM95.4379 68.228V67.228H94.6821L94.4759 67.9551L95.4379 68.228ZM97.9859 68.228L98.9479 67.9551L98.7417 67.228H97.9859V68.228ZM100.758 78V79H102.081L101.72 77.7271L100.758 78ZM97.0899 71.742L96.106 71.9209L96.1133 71.9608L96.1238 72L97.0899 71.742ZM96.7819 70.048L97.7658 69.8691L97.6165 69.048H96.7819V70.048ZM96.5579 70.048V69.048H95.7233L95.574 69.8691L96.5579 70.048ZM96.2499 71.742L97.219 71.9888L97.2276 71.9551L97.2338 71.9209L96.2499 71.742ZM95.6759 73.996L94.7068 73.7492L94.3893 74.996H95.6759V73.996ZM97.6919 73.996V74.996H98.994L98.658 73.738L97.6919 73.996ZM99.7537 77.7561L99.1517 75.3621L97.2121 75.8499L97.8141 78.2439L99.7537 77.7561ZM98.1819 74.606H95.1859V76.606H98.1819V74.606ZM94.2161 75.3621L93.6141 77.7561L95.5537 78.2439L96.1557 75.8499L94.2161 75.3621ZM94.5839 77H92.6659V79H94.5839V77ZM93.6279 78.2729L96.3999 68.5009L94.4759 67.9551L91.7039 77.7271L93.6279 78.2729ZM95.4379 69.228H97.9859V67.228H95.4379V69.228ZM97.0239 68.5009L99.7959 78.2729L101.72 77.7271L98.9479 67.9551L97.0239 68.5009ZM100.758 77H98.7839V79H100.758V77ZM98.0738 71.5631L97.7658 69.8691L95.798 70.2269L96.106 71.9209L98.0738 71.5631ZM96.7819 69.048H96.5579V71.048H96.7819V69.048ZM95.574 69.8691L95.266 71.5631L97.2338 71.9209L97.5418 70.2269L95.574 69.8691ZM95.2808 71.4952L94.7068 73.7492L96.645 74.2428L97.219 71.9888L95.2808 71.4952ZM95.6759 74.996H97.6919V72.996H95.6759V74.996ZM98.658 73.738L98.056 71.484L96.1238 72L96.7258 74.254L98.658 73.738ZM100.76 76.866L100.053 76.1589L99.4094 76.8026L99.9899 77.5037L100.76 76.866ZM101.922 75.704L102.739 75.1273L102.055 74.1574L101.215 74.9969L101.922 75.704ZM104.47 75.452L103.702 76.0922L103.731 76.127L103.763 76.1591L104.47 75.452ZM103.994 75.214L104.198 74.235L104.189 74.2331L104.18 74.2313L103.994 75.214ZM103.252 75.074L103.438 74.0913L103.437 74.0913L103.252 75.074ZM101.53 74.332L100.814 75.0296L100.823 75.0392L100.833 75.0485L101.53 74.332ZM101.698 71.084L102.349 71.8433L102.358 71.8356L101.698 71.084ZM105.226 70.762L104.827 71.6791L104.839 71.6842L104.851 71.6891L105.226 70.762ZM106.374 71.588L107.09 72.2863L107.735 71.6249L107.127 70.9295L106.374 71.588ZM105.254 72.736L104.492 73.3832L105.203 74.2206L105.97 73.4343L105.254 72.736ZM103.014 73.212L102.307 73.9191V73.9191L103.014 73.212ZM103.518 73.436L103.322 74.4166L103.331 74.4183L103.339 74.4199L103.518 73.436ZM104.288 73.576L104.109 74.5599L104.11 74.5601L104.288 73.576ZM105.954 74.29L105.247 74.9971L105.257 75.0069L105.267 75.0165L105.954 74.29ZM105.73 77.538L106.377 78.3003L106.386 78.2932L105.73 77.538ZM103.644 77.168C102.715 77.168 102.045 76.8494 101.53 76.2283L99.9899 77.5037C100.913 78.6186 102.166 79.168 103.644 79.168V77.168ZM101.467 77.5731L102.629 76.4111L101.215 74.9969L100.053 76.1589L101.467 77.5731ZM101.105 76.2807C101.726 77.1598 102.608 77.656 103.686 77.656V75.656C103.308 75.656 103.015 75.5175 102.739 75.1273L101.105 76.2807ZM103.686 77.656C104.107 77.656 104.608 77.5755 105.017 77.2456C105.468 76.8825 105.624 76.3701 105.624 75.9H103.624C103.624 75.9244 103.62 75.8998 103.641 75.8486C103.665 75.7912 103.707 75.7326 103.762 75.6884C103.813 75.6478 103.848 75.6402 103.837 75.643C103.825 75.6463 103.779 75.656 103.686 75.656V77.656ZM105.624 75.9C105.624 75.5342 105.526 75.0932 105.177 74.7449L103.763 76.1591C103.698 76.0937 103.659 76.0224 103.64 75.9661C103.622 75.9144 103.624 75.887 103.624 75.9H105.624ZM105.238 74.8118C104.939 74.4522 104.525 74.3031 104.198 74.235L103.79 76.193C103.841 76.2035 103.85 76.2111 103.834 76.2029C103.816 76.194 103.761 76.1625 103.702 76.0922L105.238 74.8118ZM104.18 74.2313L103.438 74.0913L103.067 76.0567L103.809 76.1967L104.18 74.2313ZM103.437 74.0913C102.727 73.9575 102.378 73.7619 102.228 73.6155L100.833 75.0485C101.392 75.5928 102.191 75.8918 103.067 76.0567L103.437 74.0913ZM102.247 73.6344C102.133 73.5176 102.012 73.2988 102.012 72.834H100.012C100.012 73.6572 100.237 74.4371 100.814 75.0296L102.247 73.6344ZM102.012 72.834C102.012 72.2617 102.173 71.9938 102.349 71.8433L101.047 70.3247C100.308 70.9582 100.012 71.857 100.012 72.834H102.012ZM102.358 71.8356C102.566 71.6525 102.96 71.482 103.7 71.482V69.482C102.686 69.482 101.745 69.7128 101.039 70.3324L102.358 71.8356ZM103.7 71.482C104.185 71.482 104.552 71.5592 104.827 71.6791L105.625 69.8449C105.042 69.5915 104.391 69.482 103.7 69.482V71.482ZM104.851 71.6891C105.138 71.8049 105.393 71.9852 105.622 72.2465L107.127 70.9295C106.702 70.4442 106.192 70.0738 105.601 69.8349L104.851 71.6891ZM105.658 70.8897L104.538 72.0377L105.97 73.4343L107.09 72.2863L105.658 70.8897ZM106.016 72.0888C105.422 71.3881 104.637 70.994 103.714 70.994V72.994C104.005 72.994 104.247 73.0946 104.492 73.3832L106.016 72.0888ZM103.714 70.994C103.303 70.994 102.808 71.0823 102.411 71.4342C101.99 71.8068 101.86 72.3101 101.86 72.75H103.86C103.86 72.7157 103.865 72.7294 103.849 72.7716C103.831 72.8197 103.795 72.8801 103.737 72.9318C103.681 72.9811 103.633 72.9974 103.624 73.0004C103.617 73.0023 103.642 72.994 103.714 72.994V70.994ZM101.86 72.75C101.86 73.1095 101.951 73.5628 102.307 73.9191L103.721 72.5049C103.872 72.6559 103.86 72.8012 103.86 72.75H101.86ZM102.307 73.9191C102.613 74.2247 103.007 74.3536 103.322 74.4166L103.714 72.4554C103.683 72.4492 103.661 72.4433 103.645 72.4385C103.629 72.4338 103.623 72.4308 103.623 72.4312C103.624 72.4315 103.635 72.4362 103.651 72.4473C103.669 72.4585 103.693 72.477 103.721 72.5049L102.307 73.9191ZM103.339 74.4199L104.109 74.5599L104.467 72.5921L103.697 72.4521L103.339 74.4199ZM104.11 74.5601C104.804 74.6853 105.122 74.872 105.247 74.9971L106.661 73.5829C106.114 73.036 105.322 72.7467 104.466 72.5919L104.11 74.5601ZM105.267 75.0165C105.358 75.1025 105.472 75.2772 105.472 75.704H107.472C107.472 74.8988 107.241 74.1308 106.641 73.5635L105.267 75.0165ZM105.472 75.704C105.472 76.2744 105.305 76.5832 105.075 76.7828L106.386 78.2932C107.145 77.6341 107.472 76.7203 107.472 75.704H105.472ZM105.083 76.7757C104.827 76.9926 104.393 77.168 103.644 77.168V79.168C104.687 79.168 105.644 78.9234 106.377 78.3003L105.083 76.7757ZM107.243 69.502L106.536 70.2091L106.555 70.2277L106.574 70.2453L107.243 69.502ZM107.243 67.78L107.931 68.506L107.932 68.505L107.243 67.78ZM108.993 67.78L108.286 68.4871L108.305 68.5057L108.324 68.5233L108.993 67.78ZM108.993 69.502L109.681 70.228L109.682 70.227L108.993 69.502ZM107.145 70.65V69.65H106.145V70.65H107.145ZM109.105 70.65H110.105V69.65H109.105V70.65ZM109.105 78V79H110.105V78H109.105ZM107.145 78H106.145V79H107.145V78ZM108.125 68.754C107.99 68.754 107.913 68.7394 107.879 68.7295C107.847 68.7203 107.871 68.7212 107.912 68.7587L106.574 70.2453C107.027 70.653 107.617 70.754 108.125 70.754V68.754ZM107.95 68.7949C107.956 68.8006 107.963 68.8086 107.969 68.8183C107.975 68.828 107.979 68.8363 107.981 68.8414C107.985 68.8518 107.977 68.8387 107.977 68.788H105.977C105.977 69.2976 106.136 69.809 106.536 70.2091L107.95 68.7949ZM107.977 68.788V68.48H105.977V68.788H107.977ZM107.977 68.48C107.977 68.4288 107.985 68.4195 107.979 68.4362C107.975 68.4446 107.97 68.4568 107.96 68.4707C107.951 68.4846 107.941 68.4966 107.931 68.506L106.556 67.054C106.136 67.4517 105.977 67.9724 105.977 68.48H107.977ZM107.932 68.505C107.892 68.5429 107.867 68.5457 107.893 68.5379C107.922 68.5289 107.994 68.514 108.125 68.514V66.514C107.606 66.514 107.008 66.6246 106.555 67.055L107.932 68.505ZM108.125 68.514C108.257 68.514 108.326 68.5291 108.35 68.5366C108.371 68.5429 108.335 68.5356 108.286 68.4871L109.7 67.0729C109.25 66.6221 108.639 66.514 108.125 66.514V68.514ZM108.324 68.5233C108.316 68.5156 108.305 68.5045 108.296 68.4904C108.286 68.4763 108.279 68.463 108.275 68.4524C108.266 68.4309 108.273 68.4344 108.273 68.48H110.273C110.273 67.9564 110.1 67.4303 109.662 67.0367L108.324 68.5233ZM108.273 68.48V68.788H110.273V68.48H108.273ZM108.273 68.788C108.273 68.8331 108.266 68.8405 108.272 68.8254C108.275 68.8182 108.28 68.8087 108.287 68.7986C108.293 68.7886 108.3 68.7813 108.305 68.777L109.682 70.227C110.1 69.8303 110.273 69.3129 110.273 68.788H108.273ZM108.306 68.776C108.356 68.7278 108.391 68.7229 108.364 68.7307C108.335 68.7393 108.261 68.754 108.125 68.754V70.754C108.627 70.754 109.23 70.6556 109.681 70.228L108.306 68.776ZM107.145 71.65H109.105V69.65H107.145V71.65ZM108.105 70.65V78H110.105V70.65H108.105ZM109.105 77H107.145V79H109.105V77ZM108.145 78V70.65H106.145V78H108.145ZM113.847 76.726L114.844 76.6493L114.773 75.726H113.847V76.726ZM113.665 76.726V75.726H112.818L112.679 76.5616L113.665 76.726ZM113.063 77.79L113.674 78.5818L113.681 78.5764L113.688 78.5709L113.063 77.79ZM110.319 77.608L109.568 78.2679L109.576 78.277L110.319 77.608ZM110.543 74.276L109.951 73.4705L109.943 73.476L110.543 74.276ZM113.665 73.73V74.73H114.665V73.73H113.665ZM113.427 72.302L112.665 72.9496V72.9496L113.427 72.302ZM111.803 72.274L112.398 73.0782L112.403 73.074L111.803 72.274ZM111.229 72.918L110.564 73.6644L111.452 74.456L112.079 73.4454L111.229 72.918ZM110.067 71.882L109.241 71.3192L108.747 72.0445L109.402 72.6284L110.067 71.882ZM111.159 70.86L111.651 71.7306L111.659 71.7265L111.666 71.7224L111.159 70.86ZM114.939 71.154L115.639 70.4396H115.639L114.939 71.154ZM115.625 76.474H114.625V77.474H115.625V76.474ZM116.227 76.474H117.227V75.474H116.227V76.474ZM116.227 78V79H117.227V78H116.227ZM113.343 76.558L113.955 77.3493L113.96 77.3455L113.343 76.558ZM113.665 74.878H114.665V73.878H113.665V74.878ZM111.985 76.6L111.303 77.3311L111.315 77.342L111.327 77.3526L111.985 76.6ZM115.093 77C114.993 77 114.942 76.9859 114.923 76.9794C114.91 76.9745 114.915 76.9744 114.923 76.9823C114.938 76.9977 114.867 76.9395 114.844 76.6493L112.85 76.8027C112.893 77.3619 113.063 77.9407 113.493 78.3807C113.939 78.8367 114.523 79 115.093 79V77ZM113.847 75.726H113.665V77.726H113.847V75.726ZM112.679 76.5616C112.641 76.7892 112.556 76.9154 112.439 77.0091L113.688 78.5709C114.224 78.1419 114.54 77.5588 114.652 76.8904L112.679 76.5616ZM112.453 76.9982C112.337 77.0874 112.151 77.168 111.817 77.168V79.168C112.492 79.168 113.136 78.9966 113.674 78.5818L112.453 76.9982ZM111.817 77.168C111.343 77.168 111.153 77.0398 111.063 76.939L109.576 78.277C110.157 78.9228 110.967 79.168 111.817 79.168V77.168ZM111.071 76.9482C110.94 76.7997 110.815 76.5341 110.815 76.026H108.815C108.815 76.8619 109.026 77.651 109.568 78.2678L111.071 76.9482ZM110.815 76.026C110.815 75.4275 110.987 75.1934 111.143 75.076L109.943 73.476C109.129 74.0866 108.815 75.0192 108.815 76.026H110.815ZM111.136 75.0814C111.399 74.8877 111.849 74.73 112.601 74.73V72.73C111.599 72.73 110.677 72.9363 109.951 73.4706L111.136 75.0814ZM112.601 74.73H113.665V72.73H112.601V74.73ZM114.665 73.73V73.156H112.665V73.73H114.665ZM114.665 73.156C114.665 72.6627 114.567 72.0993 114.189 71.6544L112.665 72.9496C112.634 72.9123 112.634 72.8928 112.643 72.924C112.652 72.9576 112.665 73.0302 112.665 73.156H114.665ZM114.189 71.6544C113.759 71.1483 113.141 71.022 112.629 71.022V73.022C112.682 73.022 112.719 73.0253 112.745 73.029C112.77 73.0327 112.78 73.0363 112.778 73.0356C112.775 73.0347 112.76 73.029 112.738 73.0144C112.715 72.9993 112.689 72.9778 112.665 72.9496L114.189 71.6544ZM112.629 71.022C112.124 71.022 111.628 71.1554 111.203 71.474L112.403 73.074C112.427 73.0566 112.482 73.022 112.629 73.022V71.022ZM111.209 71.4698C110.875 71.7168 110.602 72.0327 110.38 72.3906L112.079 73.4454C112.193 73.2619 112.303 73.1485 112.398 73.0782L111.209 71.4698ZM111.895 72.1716L110.733 71.1356L109.402 72.6284L110.564 73.6644L111.895 72.1716ZM110.894 72.4448C111.113 72.1232 111.366 71.892 111.651 71.7306L110.667 69.9894C110.094 70.3133 109.619 70.7635 109.241 71.3192L110.894 72.4448ZM111.666 71.7224C111.897 71.5867 112.257 71.482 112.811 71.482V69.482C112.021 69.482 111.281 69.6293 110.653 69.9976L111.666 71.7224ZM112.811 71.482C113.64 71.482 114.045 71.6774 114.24 71.8684L115.639 70.4396C114.919 69.7346 113.905 69.482 112.811 69.482V71.482ZM114.24 71.8684C114.441 72.0653 114.625 72.4323 114.625 73.156H116.625C116.625 72.1063 116.353 71.1387 115.639 70.4396L114.24 71.8684ZM114.625 73.156V76.474H116.625V73.156H114.625ZM115.625 77.474H116.227V75.474H115.625V77.474ZM115.227 76.474V78H117.227V76.474H115.227ZM116.227 77H115.093V79H116.227V77ZM112.601 77.796C113.085 77.796 113.554 77.6588 113.955 77.3493L112.732 75.7667C112.722 75.7745 112.696 75.796 112.601 75.796V77.796ZM113.96 77.3455C114.479 76.9387 114.665 76.3509 114.665 75.788H112.665C112.665 75.8592 112.654 75.8732 112.662 75.8537C112.667 75.8435 112.674 75.8282 112.687 75.8112C112.7 75.7941 112.714 75.7803 112.727 75.7705L113.96 77.3455ZM114.665 75.788V74.878H112.665V75.788H114.665ZM113.665 73.878H112.783V75.878H113.665V73.878ZM112.783 73.878C112.333 73.878 111.809 73.968 111.387 74.3198C110.93 74.7006 110.775 75.2311 110.775 75.718H112.775C112.775 75.6759 112.782 75.6843 112.767 75.7219C112.759 75.7412 112.747 75.7651 112.729 75.7904C112.71 75.8159 112.689 75.8381 112.668 75.8562C112.623 75.893 112.594 75.8984 112.61 75.894C112.628 75.889 112.682 75.878 112.783 75.878V73.878ZM110.775 75.718V75.984H112.775V75.718H110.775ZM110.775 75.984C110.775 76.4119 110.882 76.9382 111.303 77.3311L112.668 75.8689C112.733 75.9301 112.763 75.9931 112.774 76.0253C112.783 76.0518 112.775 76.0445 112.775 75.984H110.775ZM111.327 77.3526C111.71 77.6876 112.176 77.796 112.601 77.796V75.796C112.552 75.796 112.541 75.7897 112.555 75.7941C112.562 75.7964 112.575 75.8013 112.592 75.8105C112.608 75.8198 112.626 75.8321 112.644 75.8474L111.327 77.3526Z" fill="#FF6363"/>
<path d="M96.2809 52H90.1489V50.376L92.9069 47.618C93.3922 47.142 93.7329 46.722 93.9289 46.358C94.1342 45.994 94.2369 45.616 94.2369 45.224V44.804C94.2369 44.4027 94.1296 44.0947 93.9149 43.88C93.7002 43.656 93.3922 43.544 92.9909 43.544C92.1882 43.544 91.6889 44.0293 91.4929 45L89.9809 44.412C90.1956 43.6373 90.5689 43.054 91.1009 42.662C91.6329 42.2607 92.3096 42.06 93.1309 42.06C93.6536 42.06 94.1016 42.1253 94.4749 42.256C94.8482 42.3773 95.1516 42.5593 95.3849 42.802C95.6276 43.0353 95.8002 43.3293 95.9029 43.684C96.0149 44.0293 96.0709 44.4213 96.0709 44.86C96.0709 45.1867 96.0382 45.49 95.9729 45.77C95.9076 46.0407 95.7956 46.316 95.6369 46.596C95.4876 46.876 95.2822 47.17 95.0209 47.478C94.7596 47.7767 94.4329 48.122 94.0409 48.514L92.0109 50.53H96.2809V52ZM100.719 52.168C100.15 52.168 99.6601 52.0747 99.2495 51.888C98.8388 51.692 98.4981 51.3933 98.2275 50.992C97.9661 50.5813 97.7701 50.0587 97.6395 49.424C97.5088 48.78 97.4435 48.01 97.4435 47.114C97.4435 46.218 97.5088 45.4527 97.6395 44.818C97.7701 44.174 97.9661 43.6513 98.2275 43.25C98.4981 42.8393 98.8388 42.5407 99.2495 42.354C99.6601 42.158 100.15 42.06 100.719 42.06C101.289 42.06 101.779 42.158 102.189 42.354C102.6 42.5407 102.936 42.8393 103.197 43.25C103.468 43.6513 103.669 44.174 103.799 44.818C103.93 45.4527 103.995 46.218 103.995 47.114C103.995 48.01 103.93 48.78 103.799 49.424C103.669 50.0587 103.468 50.5813 103.197 50.992C102.936 51.3933 102.6 51.692 102.189 51.888C101.779 52.0747 101.289 52.168 100.719 52.168ZM100.719 50.67C101.251 50.67 101.62 50.502 101.825 50.166C102.04 49.8207 102.147 49.2607 102.147 48.486V45.742C102.147 44.9673 102.04 44.412 101.825 44.076C101.62 43.7307 101.251 43.558 100.719 43.558C100.187 43.558 99.8141 43.7307 99.5995 44.076C99.3941 44.412 99.2915 44.9673 99.2915 45.742V48.486C99.2915 49.2607 99.3941 49.8207 99.5995 50.166C99.8141 50.502 100.187 50.67 100.719 50.67ZM105.55 52V50.544H107.79V43.474H107.678L106.11 45.406L104.976 44.566L106.866 42.228H109.512V50.544H111.5V52H105.55ZM115.883 52.168C114.791 52.168 113.974 51.8413 113.433 51.188C112.891 50.5347 112.621 49.5873 112.621 48.346C112.621 47.758 112.695 47.1747 112.845 46.596C112.994 46.0173 113.209 45.462 113.489 44.93C113.769 44.398 114.105 43.9033 114.497 43.446C114.889 42.9793 115.323 42.5733 115.799 42.228H118.165C117.558 42.6853 117.04 43.1147 116.611 43.516C116.181 43.9173 115.817 44.314 115.519 44.706C115.229 45.098 114.996 45.4947 114.819 45.896C114.651 46.2973 114.525 46.7267 114.441 47.184H114.651C114.8 46.736 115.038 46.3907 115.365 46.148C115.701 45.9053 116.107 45.784 116.583 45.784C117.376 45.784 118.001 46.0453 118.459 46.568C118.916 47.0813 119.145 47.8373 119.145 48.836C119.145 49.8813 118.865 50.698 118.305 51.286C117.754 51.874 116.947 52.168 115.883 52.168ZM115.883 50.726C116.835 50.726 117.311 50.208 117.311 49.172V48.752C117.311 47.716 116.835 47.198 115.883 47.198C114.931 47.198 114.455 47.716 114.455 48.752V49.172C114.455 50.208 114.931 50.726 115.883 50.726Z" fill="black" fill-opacity="0.4"/>
<path d="M4.352 16.192C2.67733 16.192 1.36533 15.6053 0.416 14.432L1.888 12.96C2.528 13.7813 3.36533 14.192 4.4 14.192C5.46667 14.192 6 13.7227 6 12.784C6 12.4 5.904 12.1013 5.712 11.888C5.52 11.6747 5.22133 11.5253 4.816 11.44L3.792 11.248C2.75733 11.056 1.99467 10.6987 1.504 10.176C1.024 9.64267 0.784 8.90667 0.784 7.968C0.784 6.88 1.104 6.05333 1.744 5.488C2.384 4.92267 3.32267 4.64 4.56 4.64C6.13867 4.64 7.33867 5.152 8.16 6.176L6.688 7.648C6.41067 7.30667 6.096 7.056 5.744 6.896C5.40267 6.72533 4.99733 6.64 4.528 6.64C4.016 6.64 3.64267 6.736 3.408 6.928C3.184 7.12 3.072 7.42933 3.072 7.856C3.072 8.22933 3.15733 8.512 3.328 8.704C3.50933 8.896 3.79733 9.03467 4.192 9.12L5.216 9.328C5.76 9.44533 6.224 9.58933 6.608 9.76C7.00267 9.92 7.32267 10.128 7.568 10.384C7.824 10.64 8.00533 10.944 8.112 11.296C8.22933 11.648 8.288 12.0587 8.288 12.528C8.288 13.7227 7.952 14.6347 7.28 15.264C6.608 15.8827 5.632 16.192 4.352 16.192ZM9.22662 7.6H11.4666V8.992H11.7226C11.7653 8.768 11.8453 8.56 11.9626 8.368C12.0906 8.176 12.24 8.01067 12.4106 7.872C12.5813 7.72267 12.7733 7.61067 12.9866 7.536C13.2 7.45067 13.4186 7.408 13.6426 7.408C14.6133 7.408 15.3226 7.776 15.7706 8.512C16.2293 9.248 16.4586 10.3467 16.4586 11.808C16.4586 13.2693 16.2346 14.368 15.7866 15.104C15.3386 15.8293 14.624 16.192 13.6426 16.192C13.4186 16.192 13.2 16.1493 12.9866 16.064C12.7733 15.9893 12.5813 15.8827 12.4106 15.744C12.24 15.5947 12.0906 15.424 11.9626 15.232C11.8453 15.04 11.7653 14.832 11.7226 14.608H11.4666V19.2H9.22662V7.6ZM12.7466 14.368C13.1626 14.368 13.4933 14.24 13.7386 13.984C13.9946 13.7173 14.1226 13.344 14.1226 12.864V10.736C14.1226 10.256 13.9946 9.888 13.7386 9.632C13.4933 9.36533 13.1626 9.232 12.7466 9.232C12.3413 9.232 12.0266 9.328 11.8026 9.52C11.5786 9.70133 11.4666 9.97867 11.4666 10.352V13.248C11.4666 13.6213 11.5786 13.904 11.8026 14.096C12.0266 14.2773 12.3413 14.368 12.7466 14.368ZM20.4715 16.192C19.2982 16.192 18.4075 15.8347 17.7995 15.12C17.2022 14.4053 16.9035 13.3013 16.9035 11.808C16.9035 10.3147 17.2022 9.21067 17.7995 8.496C18.4075 7.77067 19.2982 7.408 20.4715 7.408C21.6448 7.408 22.5302 7.77067 23.1275 8.496C23.7355 9.21067 24.0395 10.3147 24.0395 11.808C24.0395 13.3013 23.7355 14.4053 23.1275 15.12C22.5302 15.8347 21.6448 16.192 20.4715 16.192ZM20.4715 14.416C21.2928 14.416 21.7035 13.936 21.7035 12.976V10.624C21.7035 9.664 21.2928 9.184 20.4715 9.184C19.6502 9.184 19.2395 9.664 19.2395 10.624V12.976C19.2395 13.936 19.6502 14.416 20.4715 14.416ZM27.3668 16C26.5988 16 26.0388 15.8293 25.6868 15.488C25.3454 15.1467 25.1747 14.6027 25.1747 13.856V9.344H24.1187V7.6H24.6307C24.9294 7.6 25.1321 7.536 25.2387 7.408C25.3454 7.28 25.3987 7.072 25.3987 6.784V5.328H27.4148V7.6H28.8868V9.344H27.4148V14.256H28.7268V16H27.3668ZM30.7235 6.576C30.2648 6.576 29.9288 6.48 29.7155 6.288C29.5128 6.08533 29.4115 5.81333 29.4115 5.472V5.12C29.4115 4.77867 29.5128 4.512 29.7155 4.32C29.9288 4.11733 30.2648 4.016 30.7235 4.016C31.1822 4.016 31.5128 4.11733 31.7155 4.32C31.9288 4.512 32.0355 4.77867 32.0355 5.12V5.472C32.0355 5.81333 31.9288 6.08533 31.7155 6.288C31.5128 6.48 31.1822 6.576 30.7235 6.576ZM29.6035 7.6H31.8435V16H29.6035V7.6ZM33.551 9.344H32.495V7.6H33.551V6.608C33.551 5.776 33.7377 5.16267 34.111 4.768C34.4843 4.36267 35.0603 4.16 35.839 4.16H37.311V5.904H35.791V7.6H37.311V9.344H35.791V16H33.551V9.344ZM42.7764 7.6H45.0164L41.8644 17.6C41.7684 17.9093 41.6457 18.1653 41.4964 18.368C41.3577 18.5813 41.187 18.7467 40.9844 18.864C40.7924 18.992 40.5684 19.0773 40.3124 19.12C40.0564 19.1733 39.763 19.2 39.4324 19.2H37.9284V17.456H39.7524L40.0244 16.464L37.2084 7.6H39.5124L40.7444 12.256L41.0484 14.112H41.2724L41.5764 12.24L42.7764 7.6ZM51.5445 16.192C49.8698 16.192 48.5578 15.6053 47.6085 14.432L49.0805 12.96C49.7205 13.7813 50.5578 14.192 51.5925 14.192C52.6592 14.192 53.1925 13.7227 53.1925 12.784C53.1925 12.4 53.0965 12.1013 52.9045 11.888C52.7125 11.6747 52.4138 11.5253 52.0085 11.44L50.9845 11.248C49.9498 11.056 49.1872 10.6987 48.6965 10.176C48.2165 9.64267 47.9765 8.90667 47.9765 7.968C47.9765 6.88 48.2965 6.05333 48.9365 5.488C49.5765 4.92267 50.5152 4.64 51.7525 4.64C53.3312 4.64 54.5312 5.152 55.3525 6.176L53.8805 7.648C53.6032 7.30667 53.2885 7.056 52.9365 6.896C52.5952 6.72533 52.1898 6.64 51.7205 6.64C51.2085 6.64 50.8352 6.736 50.6005 6.928C50.3765 7.12 50.2645 7.42933 50.2645 7.856C50.2645 8.22933 50.3498 8.512 50.5205 8.704C50.7018 8.896 50.9898 9.03467 51.3845 9.12L52.4085 9.328C52.9525 9.44533 53.4165 9.58933 53.8005 9.76C54.1952 9.92 54.5152 10.128 54.7605 10.384C55.0165 10.64 55.1978 10.944 55.3045 11.296C55.4218 11.648 55.4805 12.0587 55.4805 12.528C55.4805 13.7227 55.1445 14.6347 54.4725 15.264C53.8005 15.8827 52.8245 16.192 51.5445 16.192ZM58.933 16C58.165 16 57.605 15.8293 57.253 15.488C56.9117 15.1467 56.741 14.6027 56.741 13.856V9.344H55.685V7.6H56.197C56.4957 7.6 56.6983 7.536 56.805 7.408C56.9117 7.28 56.965 7.072 56.965 6.784V5.328H58.981V7.6H60.453V9.344H58.981V14.256H60.293V16H58.933ZM61.1697 16V7.6H63.4097V9.392H63.6657C63.6977 9.15733 63.7511 8.93333 63.8257 8.72C63.9004 8.496 64.0017 8.304 64.1297 8.144C64.2684 7.97333 64.4391 7.84 64.6417 7.744C64.8444 7.648 65.0844 7.6 65.3617 7.6H65.7617V9.872H65.1857C64.5777 9.872 64.1297 9.95733 63.8417 10.128C63.5537 10.2987 63.4097 10.624 63.4097 11.104V16H61.1697ZM69.6386 16.192C68.4866 16.192 67.564 15.8293 66.8706 15.104C66.188 14.368 65.8466 13.2693 65.8466 11.808C65.8466 10.3147 66.1453 9.21067 66.7426 8.496C67.3506 7.77067 68.2413 7.408 69.4146 7.408C70.588 7.408 71.4733 7.77067 72.0706 8.496C72.6786 9.21067 72.9826 10.3147 72.9826 11.808V12.352H68.1826V12.88C68.1826 13.3493 68.3266 13.728 68.6146 14.016C68.9026 14.2933 69.2973 14.432 69.7986 14.432C70.2146 14.432 70.5666 14.3413 70.8546 14.16C71.1533 13.968 71.4253 13.7067 71.6706 13.376L72.8066 14.704C72.4653 15.1627 72.028 15.5253 71.4946 15.792C70.972 16.0587 70.3533 16.192 69.6386 16.192ZM69.4146 9.088C68.5933 9.088 68.1826 9.568 68.1826 10.528V11.04H70.6466V10.528C70.6466 9.568 70.236 9.088 69.4146 9.088ZM79.3476 16C78.473 16 77.9983 15.5147 77.9236 14.544H77.7156C77.6303 15.056 77.401 15.4613 77.0276 15.76C76.6543 16.048 76.1796 16.192 75.6036 16.192C74.8463 16.192 74.2756 15.9787 73.8916 15.552C73.5076 15.1147 73.3156 14.512 73.3156 13.744C73.3156 12.8267 73.593 12.16 74.1476 11.744C74.713 11.328 75.497 11.12 76.4996 11.12H77.7156V10.464C77.7156 10.0267 77.625 9.70133 77.4436 9.488C77.2623 9.27467 76.9583 9.168 76.5316 9.168C76.1583 9.168 75.8436 9.264 75.5876 9.456C75.3423 9.63733 75.1236 9.88267 74.9316 10.192L73.6036 9.008C73.945 8.50667 74.361 8.11733 74.8516 7.84C75.3423 7.552 75.9716 7.408 76.7396 7.408C77.8383 7.408 78.649 7.664 79.1716 8.176C79.6943 8.688 79.9556 9.45067 79.9556 10.464V14.256H80.6436V16H79.3476ZM76.4996 14.624C76.8303 14.624 77.113 14.5333 77.3476 14.352C77.593 14.16 77.7156 13.8667 77.7156 13.472V12.432H76.7076C75.9396 12.432 75.5556 12.752 75.5556 13.392V13.696C75.5556 14.016 75.6356 14.2507 75.7956 14.4C75.9663 14.5493 76.201 14.624 76.4996 14.624ZM81.4216 16V7.6H83.6616V9.024H83.9176C83.9816 8.8 84.067 8.592 84.1736 8.4C84.291 8.208 84.4243 8.03733 84.5736 7.888C84.7336 7.73867 84.9203 7.62133 85.1336 7.536C85.347 7.45067 85.5923 7.408 85.8696 7.408C86.4136 7.408 86.8456 7.55733 87.1656 7.856C87.4856 8.144 87.7203 8.56 87.8696 9.104H88.0776C88.259 8.51733 88.5416 8.09067 88.9256 7.824C89.3203 7.54667 89.7736 7.408 90.2856 7.408C91.0003 7.408 91.5443 7.664 91.9176 8.176C92.3016 8.688 92.4936 9.392 92.4936 10.288V16H90.2536V10.72C90.2536 9.728 89.9283 9.232 89.2776 9.232C88.947 9.232 88.6643 9.33867 88.4296 9.552C88.195 9.75467 88.0776 10.0427 88.0776 10.416V16H85.8376V10.72C85.8376 9.728 85.5123 9.232 84.8616 9.232C84.531 9.232 84.2483 9.33867 84.0136 9.552C83.779 9.75467 83.6616 10.0427 83.6616 10.416V16H81.4216ZM96.3435 16.192C94.9675 16.192 93.8688 15.696 93.0475 14.704L94.3755 13.376C94.8875 14.1013 95.5595 14.464 96.3915 14.464C97.1062 14.464 97.4635 14.176 97.4635 13.6C97.4635 13.376 97.4048 13.2053 97.2875 13.088C97.1808 12.96 96.9995 12.8693 96.7435 12.816L95.8955 12.656C94.9888 12.4853 94.3328 12.2027 93.9275 11.808C93.5328 11.4027 93.3355 10.832 93.3355 10.096C93.3355 9.21067 93.5968 8.544 94.1195 8.096C94.6422 7.63733 95.4048 7.408 96.4075 7.408C97.0795 7.408 97.6608 7.51467 98.1515 7.728C98.6528 7.93067 99.0902 8.24533 99.4635 8.672L98.1835 9.984C97.7035 9.41867 97.1168 9.136 96.4235 9.136C95.7728 9.136 95.4475 9.424 95.4475 10C95.4475 10.2347 95.5062 10.4107 95.6235 10.528C95.7408 10.6453 95.9328 10.7307 96.1995 10.784L97.0795 10.944C97.9648 11.104 98.5995 11.376 98.9835 11.76C99.3782 12.1333 99.5755 12.672 99.5755 13.376C99.5755 14.2827 99.2928 14.9813 98.7275 15.472C98.1622 15.952 97.3675 16.192 96.3435 16.192ZM101.516 13.44C101.964 13.44 102.294 13.5467 102.508 13.76C102.721 13.9627 102.828 14.24 102.828 14.592V15.024C102.828 15.664 102.689 16.2773 102.412 16.864C102.134 17.4613 101.75 17.9467 101.26 18.32H99.7718C100.134 17.9787 100.433 17.6373 100.668 17.296C100.913 16.9547 101.1 16.576 101.228 16.16C100.876 16.1067 100.614 15.984 100.444 15.792C100.284 15.5893 100.204 15.3333 100.204 15.024V14.592C100.204 14.24 100.31 13.9627 100.524 13.76C100.737 13.5467 101.068 13.44 101.516 13.44ZM106.877 4.16H109.117V8.992H109.373C109.416 8.768 109.496 8.56 109.613 8.368C109.741 8.176 109.891 8.01067 110.061 7.872C110.232 7.72267 110.424 7.61067 110.637 7.536C110.851 7.45067 111.069 7.408 111.293 7.408C112.264 7.408 112.973 7.776 113.421 8.512C113.88 9.248 114.109 10.3467 114.109 11.808C114.109 13.2693 113.885 14.368 113.437 15.104C112.989 15.8293 112.275 16.192 111.293 16.192C111.069 16.192 110.851 16.1493 110.637 16.064C110.424 15.9893 110.232 15.8827 110.061 15.744C109.891 15.5947 109.741 15.424 109.613 15.232C109.496 15.04 109.416 14.832 109.373 14.608H109.117V16H106.877V4.16ZM110.397 14.368C110.813 14.368 111.144 14.24 111.389 13.984C111.645 13.7173 111.773 13.344 111.773 12.864V10.736C111.773 10.256 111.645 9.888 111.389 9.632C111.144 9.36533 110.813 9.232 110.397 9.232C109.992 9.232 109.677 9.328 109.453 9.52C109.229 9.70133 109.117 9.97867 109.117 10.352V13.248C109.117 13.6213 109.229 13.904 109.453 14.096C109.677 14.2773 109.992 14.368 110.397 14.368ZM119.565 7.6H121.805L118.653 17.6C118.557 17.9093 118.434 18.1653 118.285 18.368C118.146 18.5813 117.976 18.7467 117.773 18.864C117.581 18.992 117.357 19.0773 117.101 19.12C116.845 19.1733 116.552 19.2 116.221 19.2H114.717V17.456H116.541L116.813 16.464L113.997 7.6H116.301L117.533 12.256L117.837 14.112H118.061L118.365 12.24L119.565 7.6ZM127.357 16H125.069V4.832H129.901C130.904 4.832 131.667 5.14667 132.189 5.776C132.712 6.40533 132.973 7.248 132.973 8.304C132.973 9.12533 132.819 9.81867 132.509 10.384C132.2 10.9493 131.741 11.344 131.133 11.568L133.085 16H130.605L128.877 11.776H127.357V16ZM129.613 9.872C129.923 9.872 130.163 9.79733 130.333 9.648C130.515 9.488 130.605 9.216 130.605 8.832V7.872C130.605 7.488 130.515 7.22133 130.333 7.072C130.163 6.912 129.923 6.832 129.613 6.832H127.357V9.872H129.613ZM137.317 16.192C136.165 16.192 135.242 15.8293 134.549 15.104C133.866 14.368 133.525 13.2693 133.525 11.808C133.525 10.3147 133.823 9.21067 134.421 8.496C135.029 7.77067 135.919 7.408 137.093 7.408C138.266 7.408 139.151 7.77067 139.749 8.496C140.357 9.21067 140.661 10.3147 140.661 11.808V12.352H135.861V12.88C135.861 13.3493 136.005 13.728 136.293 14.016C136.581 14.2933 136.975 14.432 137.477 14.432C137.893 14.432 138.245 14.3413 138.533 14.16C138.831 13.968 139.103 13.7067 139.349 13.376L140.485 14.704C140.143 15.1627 139.706 15.5253 139.173 15.792C138.65 16.0587 138.031 16.192 137.317 16.192ZM137.093 9.088C136.271 9.088 135.861 9.568 135.861 10.528V11.04H138.325V10.528C138.325 9.568 137.914 9.088 137.093 9.088ZM148.562 16.656C148.562 17.0933 148.498 17.4827 148.37 17.824C148.242 18.1653 148.018 18.4533 147.698 18.688C147.388 18.9227 146.967 19.0987 146.434 19.216C145.9 19.3333 145.228 19.392 144.418 19.392C143.724 19.392 143.148 19.344 142.69 19.248C142.231 19.1627 141.858 19.0347 141.57 18.864C141.292 18.704 141.095 18.5013 140.978 18.256C140.86 18.0107 140.802 17.7333 140.802 17.424C140.802 17.0187 140.924 16.6933 141.17 16.448C141.415 16.2133 141.772 16.0587 142.242 15.984V15.648C141.836 15.5733 141.543 15.408 141.362 15.152C141.18 14.896 141.09 14.5867 141.09 14.224C141.09 14.032 141.127 13.8613 141.202 13.712C141.287 13.5627 141.394 13.4347 141.522 13.328C141.66 13.2213 141.815 13.1307 141.986 13.056C142.156 12.9813 142.332 12.9227 142.514 12.88V12.656C142.044 12.432 141.703 12.1173 141.49 11.712C141.276 11.3067 141.17 10.816 141.17 10.24C141.17 9.35467 141.426 8.66133 141.938 8.16C142.45 7.65867 143.287 7.408 144.45 7.408C144.674 7.408 144.892 7.42933 145.106 7.472C145.33 7.504 145.538 7.552 145.73 7.616V7.312C145.73 6.88533 145.831 6.57067 146.034 6.368C146.236 6.16533 146.524 6.064 146.898 6.064H148.098V7.744H146.402V8C146.839 8.18133 147.17 8.464 147.394 8.848C147.628 9.232 147.746 9.696 147.746 10.24C147.746 11.1147 147.49 11.8027 146.978 12.304C146.466 12.7947 145.623 13.04 144.45 13.04C144.183 13.04 143.932 13.0293 143.698 13.008C143.474 12.976 143.255 12.9333 143.042 12.88C142.871 13.0293 142.786 13.2693 142.786 13.6C142.786 13.8133 142.85 13.9733 142.978 14.08C143.116 14.1867 143.346 14.24 143.666 14.24H145.922C146.871 14.24 147.548 14.4533 147.954 14.88C148.359 15.296 148.562 15.888 148.562 16.656ZM146.466 16.944C146.466 16.688 146.375 16.4907 146.194 16.352C146.023 16.2133 145.735 16.144 145.33 16.144H142.722C142.647 16.2507 142.588 16.3733 142.546 16.512C142.514 16.6507 142.498 16.7947 142.498 16.944C142.498 17.2533 142.604 17.488 142.818 17.648C143.042 17.808 143.447 17.888 144.034 17.888H144.93C145.516 17.888 145.916 17.808 146.13 17.648C146.354 17.488 146.466 17.2533 146.466 16.944ZM144.45 11.552C144.887 11.552 145.196 11.4507 145.378 11.248C145.57 11.0453 145.666 10.7467 145.666 10.352V10.096C145.666 9.70133 145.57 9.40267 145.378 9.2C145.196 8.99733 144.887 8.896 144.45 8.896C144.012 8.896 143.698 8.99733 143.506 9.2C143.324 9.40267 143.234 9.70133 143.234 10.096V10.352C143.234 10.7467 143.324 11.0453 143.506 11.248C143.698 11.4507 144.012 11.552 144.45 11.552ZM149.954 6.576C149.495 6.576 149.159 6.48 148.946 6.288C148.743 6.08533 148.642 5.81333 148.642 5.472V5.12C148.642 4.77867 148.743 4.512 148.946 4.32C149.159 4.11733 149.495 4.016 149.954 4.016C150.413 4.016 150.743 4.11733 150.946 4.32C151.159 4.512 151.266 4.77867 151.266 5.12V5.472C151.266 5.81333 151.159 6.08533 150.946 6.288C150.743 6.48 150.413 6.576 149.954 6.576ZM148.834 7.6H151.074V16H148.834V7.6ZM155.47 16.192C154.296 16.192 153.406 15.8347 152.798 15.12C152.2 14.4053 151.902 13.3013 151.902 11.808C151.902 10.3147 152.2 9.21067 152.798 8.496C153.406 7.77067 154.296 7.408 155.47 7.408C156.643 7.408 157.528 7.77067 158.126 8.496C158.734 9.21067 159.038 10.3147 159.038 11.808C159.038 13.3013 158.734 14.4053 158.126 15.12C157.528 15.8347 156.643 16.192 155.47 16.192ZM155.47 14.416C156.291 14.416 156.702 13.936 156.702 12.976V10.624C156.702 9.664 156.291 9.184 155.47 9.184C154.648 9.184 154.238 9.664 154.238 10.624V12.976C154.238 13.936 154.648 14.416 155.47 14.416ZM159.867 16V7.6H162.107V9.024H162.363C162.427 8.8 162.512 8.592 162.619 8.4C162.725 8.208 162.859 8.03733 163.019 7.888C163.179 7.73867 163.365 7.62133 163.579 7.536C163.792 7.45067 164.037 7.408 164.315 7.408C165.072 7.408 165.648 7.664 166.043 8.176C166.448 8.67733 166.651 9.38133 166.651 10.288V16H164.411V10.72C164.411 9.728 164.064 9.232 163.371 9.232C163.029 9.232 162.731 9.33867 162.475 9.552C162.229 9.75467 162.107 10.0427 162.107 10.416V16H159.867Z" fill="black"/>
<path opacity="0.4" d="M32.5978 243.168C32.0285 243.168 31.5385 243.075 31.1278 242.888C30.7171 242.692 30.3765 242.393 30.1058 241.992C29.8445 241.581 29.6485 241.059 29.5178 240.424C29.3871 239.78 29.3218 239.01 29.3218 238.114C29.3218 237.218 29.3871 236.453 29.5178 235.818C29.6485 235.174 29.8445 234.651 30.1058 234.25C30.3765 233.839 30.7171 233.541 31.1278 233.354C31.5385 233.158 32.0285 233.06 32.5978 233.06C33.1671 233.06 33.6571 233.158 34.0678 233.354C34.4785 233.541 34.8145 233.839 35.0758 234.25C35.3465 234.651 35.5471 235.174 35.6778 235.818C35.8085 236.453 35.8738 237.218 35.8738 238.114C35.8738 239.01 35.8085 239.78 35.6778 240.424C35.5471 241.059 35.3465 241.581 35.0758 241.992C34.8145 242.393 34.4785 242.692 34.0678 242.888C33.6571 243.075 33.1671 243.168 32.5978 243.168ZM32.5978 241.67C33.1298 241.67 33.4985 241.502 33.7038 241.166C33.9185 240.821 34.0258 240.261 34.0258 239.486V236.742C34.0258 235.967 33.9185 235.412 33.7038 235.076C33.4985 234.731 33.1298 234.558 32.5978 234.558C32.0658 234.558 31.6925 234.731 31.4778 235.076C31.2725 235.412 31.1698 235.967 31.1698 236.742V239.486C31.1698 240.261 31.2725 240.821 31.4778 241.166C31.6925 241.502 32.0658 241.67 32.5978 241.67ZM38.1284 243L44.2044 233.228H45.6884L39.6124 243H38.1284ZM38.7164 238.604C37.9977 238.604 37.447 238.389 37.0644 237.96C36.691 237.521 36.5044 236.812 36.5044 235.832C36.5044 234.852 36.691 234.147 37.0644 233.718C37.447 233.279 37.9977 233.06 38.7164 233.06C39.4257 233.06 39.9717 233.279 40.3544 233.718C40.737 234.147 40.9284 234.852 40.9284 235.832C40.9284 236.812 40.737 237.521 40.3544 237.96C39.9717 238.389 39.4257 238.604 38.7164 238.604ZM38.7164 237.638C39.2204 237.638 39.4724 237.283 39.4724 236.574V235.09C39.4724 234.381 39.2204 234.026 38.7164 234.026C38.2124 234.026 37.9604 234.381 37.9604 235.09V236.574C37.9604 237.283 38.2124 237.638 38.7164 237.638ZM45.1004 243.168C44.3817 243.168 43.831 242.953 43.4484 242.524C43.075 242.085 42.8884 241.376 42.8884 240.396C42.8884 239.416 43.075 238.711 43.4484 238.282C43.831 237.843 44.3817 237.624 45.1004 237.624C45.8097 237.624 46.3557 237.843 46.7384 238.282C47.121 238.711 47.3124 239.416 47.3124 240.396C47.3124 241.376 47.121 242.085 46.7384 242.524C46.3557 242.953 45.8097 243.168 45.1004 243.168ZM45.1004 242.202C45.6044 242.202 45.8564 241.847 45.8564 241.138V239.654C45.8564 238.945 45.6044 238.59 45.1004 238.59C44.5964 238.59 44.3444 238.945 44.3444 239.654V241.138C44.3444 241.847 44.5964 242.202 45.1004 242.202Z" fill="black"/>
<path d="M23.9173 132L26.9693 123.684H24.0153V125.42H22.5453V122.228H28.6773V123.726L25.7513 132H23.9173ZM33.1718 132V130.124H29.2238V128.64L32.5278 122.228H34.8098V128.738H35.9718V130.124H34.8098V132H33.1718ZM30.5958 128.738H33.1718V123.908H32.9618L30.5958 128.738ZM38.1284 132L44.2044 122.228H45.6884L39.6124 132H38.1284ZM38.7164 127.604C37.9977 127.604 37.447 127.389 37.0644 126.96C36.691 126.521 36.5044 125.812 36.5044 124.832C36.5044 123.852 36.691 123.147 37.0644 122.718C37.447 122.279 37.9977 122.06 38.7164 122.06C39.4257 122.06 39.9717 122.279 40.3544 122.718C40.737 123.147 40.9284 123.852 40.9284 124.832C40.9284 125.812 40.737 126.521 40.3544 126.96C39.9717 127.389 39.4257 127.604 38.7164 127.604ZM38.7164 126.638C39.2204 126.638 39.4724 126.283 39.4724 125.574V124.09C39.4724 123.381 39.2204 123.026 38.7164 123.026C38.2124 123.026 37.9604 123.381 37.9604 124.09V125.574C37.9604 126.283 38.2124 126.638 38.7164 126.638ZM45.1004 132.168C44.3817 132.168 43.831 131.953 43.4484 131.524C43.075 131.085 42.8884 130.376 42.8884 129.396C42.8884 128.416 43.075 127.711 43.4484 127.282C43.831 126.843 44.3817 126.624 45.1004 126.624C45.8097 126.624 46.3557 126.843 46.7384 127.282C47.121 127.711 47.3124 128.416 47.3124 129.396C47.3124 130.376 47.121 131.085 46.7384 131.524C46.3557 131.953 45.8097 132.168 45.1004 132.168ZM45.1004 131.202C45.6044 131.202 45.8564 130.847 45.8564 130.138V128.654C45.8564 127.945 45.6044 127.59 45.1004 127.59C44.5964 127.59 44.3444 127.945 44.3444 128.654V130.138C44.3444 130.847 44.5964 131.202 45.1004 131.202Z" fill="black"/>
<path d="M301.171 126V124.124H297.223V122.64L300.527 116.228H302.809V122.738H303.971V124.124H302.809V126H301.171ZM298.595 122.738H301.171V117.908H300.961L298.595 122.738ZM310.818 119.882C310.818 120.47 310.743 121.053 310.594 121.632C310.444 122.211 310.23 122.766 309.95 123.298C309.67 123.83 309.334 124.329 308.942 124.796C308.55 125.253 308.116 125.655 307.64 126H305.274C305.871 125.543 306.384 125.113 306.814 124.712C307.252 124.311 307.616 123.914 307.906 123.522C308.204 123.13 308.438 122.733 308.606 122.332C308.783 121.931 308.914 121.501 308.998 121.044H308.788C308.638 121.492 308.396 121.837 308.06 122.08C307.733 122.323 307.332 122.444 306.856 122.444C306.062 122.444 305.437 122.187 304.98 121.674C304.522 121.151 304.294 120.391 304.294 119.392C304.294 118.347 304.569 117.53 305.12 116.942C305.68 116.354 306.492 116.06 307.556 116.06C308.648 116.06 309.464 116.387 310.006 117.04C310.547 117.693 310.818 118.641 310.818 119.882ZM307.556 121.03C308.508 121.03 308.984 120.512 308.984 119.476V119.056C308.984 118.02 308.508 117.502 307.556 117.502C306.604 117.502 306.128 118.02 306.128 119.056V119.476C306.128 120.512 306.604 121.03 307.556 121.03ZM313.128 126L319.204 116.228H320.688L314.612 126H313.128ZM313.716 121.604C312.998 121.604 312.447 121.389 312.064 120.96C311.691 120.521 311.504 119.812 311.504 118.832C311.504 117.852 311.691 117.147 312.064 116.718C312.447 116.279 312.998 116.06 313.716 116.06C314.426 116.06 314.972 116.279 315.354 116.718C315.737 117.147 315.928 117.852 315.928 118.832C315.928 119.812 315.737 120.521 315.354 120.96C314.972 121.389 314.426 121.604 313.716 121.604ZM313.716 120.638C314.22 120.638 314.472 120.283 314.472 119.574V118.09C314.472 117.381 314.22 117.026 313.716 117.026C313.212 117.026 312.96 117.381 312.96 118.09V119.574C312.96 120.283 313.212 120.638 313.716 120.638ZM320.1 126.168C319.382 126.168 318.831 125.953 318.448 125.524C318.075 125.085 317.888 124.376 317.888 123.396C317.888 122.416 318.075 121.711 318.448 121.282C318.831 120.843 319.382 120.624 320.1 120.624C320.81 120.624 321.356 120.843 321.738 121.282C322.121 121.711 322.312 122.416 322.312 123.396C322.312 124.376 322.121 125.085 321.738 125.524C321.356 125.953 320.81 126.168 320.1 126.168ZM320.1 125.202C320.604 125.202 320.856 124.847 320.856 124.138V122.654C320.856 121.945 320.604 121.59 320.1 121.59C319.596 121.59 319.344 121.945 319.344 122.654V124.138C319.344 124.847 319.596 125.202 320.1 125.202Z" fill="black"/>
<path opacity="0.4" d="M15.8667 82V80.544H18.1067V73.474H17.9947L16.4267 75.406L15.2927 74.566L17.1827 72.228H19.8287V80.544H21.8167V82H15.8667ZM25.5973 82.168C25.0279 82.168 24.5379 82.0747 24.1273 81.888C23.7166 81.692 23.3759 81.3933 23.1053 80.992C22.8439 80.5813 22.6479 80.0587 22.5173 79.424C22.3866 78.78 22.3213 78.01 22.3213 77.114C22.3213 76.218 22.3866 75.4527 22.5173 74.818C22.6479 74.174 22.8439 73.6513 23.1053 73.25C23.3759 72.8393 23.7166 72.5407 24.1273 72.354C24.5379 72.158 25.0279 72.06 25.5973 72.06C26.1666 72.06 26.6566 72.158 27.0673 72.354C27.4779 72.5407 27.8139 72.8393 28.0753 73.25C28.3459 73.6513 28.5466 74.174 28.6773 74.818C28.8079 75.4527 28.8733 76.218 28.8733 77.114C28.8733 78.01 28.8079 78.78 28.6773 79.424C28.5466 80.0587 28.3459 80.5813 28.0753 80.992C27.8139 81.3933 27.4779 81.692 27.0673 81.888C26.6566 82.0747 26.1666 82.168 25.5973 82.168ZM25.5973 80.67C26.1293 80.67 26.4979 80.502 26.7033 80.166C26.9179 79.8207 27.0253 79.2607 27.0253 78.486V75.742C27.0253 74.9673 26.9179 74.412 26.7033 74.076C26.4979 73.7307 26.1293 73.558 25.5973 73.558C25.0653 73.558 24.6919 73.7307 24.4773 74.076C24.2719 74.412 24.1693 74.9673 24.1693 75.742V78.486C24.1693 79.2607 24.2719 79.8207 24.4773 80.166C24.6919 80.502 25.0653 80.67 25.5973 80.67ZM32.5978 82.168C32.0285 82.168 31.5385 82.0747 31.1278 81.888C30.7171 81.692 30.3765 81.3933 30.1058 80.992C29.8445 80.5813 29.6485 80.0587 29.5178 79.424C29.3871 78.78 29.3218 78.01 29.3218 77.114C29.3218 76.218 29.3871 75.4527 29.5178 74.818C29.6485 74.174 29.8445 73.6513 30.1058 73.25C30.3765 72.8393 30.7171 72.5407 31.1278 72.354C31.5385 72.158 32.0285 72.06 32.5978 72.06C33.1671 72.06 33.6571 72.158 34.0678 72.354C34.4785 72.5407 34.8145 72.8393 35.0758 73.25C35.3465 73.6513 35.5471 74.174 35.6778 74.818C35.8085 75.4527 35.8738 76.218 35.8738 77.114C35.8738 78.01 35.8085 78.78 35.6778 79.424C35.5471 80.0587 35.3465 80.5813 35.0758 80.992C34.8145 81.3933 34.4785 81.692 34.0678 81.888C33.6571 82.0747 33.1671 82.168 32.5978 82.168ZM32.5978 80.67C33.1298 80.67 33.4985 80.502 33.7038 80.166C33.9185 79.8207 34.0258 79.2607 34.0258 78.486V75.742C34.0258 74.9673 33.9185 74.412 33.7038 74.076C33.4985 73.7307 33.1298 73.558 32.5978 73.558C32.0658 73.558 31.6925 73.7307 31.4778 74.076C31.2725 74.412 31.1698 74.9673 31.1698 75.742V78.486C31.1698 79.2607 31.2725 79.8207 31.4778 80.166C31.6925 80.502 32.0658 80.67 32.5978 80.67ZM38.1284 82L44.2044 72.228H45.6884L39.6124 82H38.1284ZM38.7164 77.604C37.9977 77.604 37.447 77.3893 37.0644 76.96C36.691 76.5213 36.5044 75.812 36.5044 74.832C36.5044 73.852 36.691 73.1473 37.0644 72.718C37.447 72.2793 37.9977 72.06 38.7164 72.06C39.4257 72.06 39.9717 72.2793 40.3544 72.718C40.737 73.1473 40.9284 73.852 40.9284 74.832C40.9284 75.812 40.737 76.5213 40.3544 76.96C39.9717 77.3893 39.4257 77.604 38.7164 77.604ZM38.7164 76.638C39.2204 76.638 39.4724 76.2833 39.4724 75.574V74.09C39.4724 73.3807 39.2204 73.026 38.7164 73.026C38.2124 73.026 37.9604 73.3807 37.9604 74.09V75.574C37.9604 76.2833 38.2124 76.638 38.7164 76.638ZM45.1004 82.168C44.3817 82.168 43.831 81.9533 43.4484 81.524C43.075 81.0853 42.8884 80.376 42.8884 79.396C42.8884 78.416 43.075 77.7113 43.4484 77.282C43.831 76.8433 44.3817 76.624 45.1004 76.624C45.8097 76.624 46.3557 76.8433 46.7384 77.282C47.121 77.7113 47.3124 78.416 47.3124 79.396C47.3124 80.376 47.121 81.0853 46.7384 81.524C46.3557 81.9533 45.8097 82.168 45.1004 82.168ZM45.1004 81.202C45.6044 81.202 45.8564 80.8473 45.8564 80.138V78.654C45.8564 77.9447 45.6044 77.59 45.1004 77.59C44.5964 77.59 44.3444 77.9447 44.3444 78.654V80.138C44.3444 80.8473 44.5964 81.202 45.1004 81.202Z" fill="black"/>
<path d="M232.781 52H226.649V50.376L229.407 47.618C229.892 47.142 230.233 46.722 230.429 46.358C230.634 45.994 230.737 45.616 230.737 45.224V44.804C230.737 44.4027 230.63 44.0947 230.415 43.88C230.2 43.656 229.892 43.544 229.491 43.544C228.688 43.544 228.189 44.0293 227.993 45L226.481 44.412C226.696 43.6373 227.069 43.054 227.601 42.662C228.133 42.2607 228.81 42.06 229.631 42.06C230.154 42.06 230.602 42.1253 230.975 42.256C231.348 42.3773 231.652 42.5593 231.885 42.802C232.128 43.0353 232.3 43.3293 232.403 43.684C232.515 44.0293 232.571 44.4213 232.571 44.86C232.571 45.1867 232.538 45.49 232.473 45.77C232.408 46.0407 232.296 46.316 232.137 46.596C231.988 46.876 231.782 47.17 231.521 47.478C231.26 47.7767 230.933 48.122 230.541 48.514L228.511 50.53H232.781V52ZM237.219 52.168C236.65 52.168 236.16 52.0747 235.749 51.888C235.339 51.692 234.998 51.3933 234.727 50.992C234.466 50.5813 234.27 50.0587 234.139 49.424C234.009 48.78 233.943 48.01 233.943 47.114C233.943 46.218 234.009 45.4527 234.139 44.818C234.27 44.174 234.466 43.6513 234.727 43.25C234.998 42.8393 235.339 42.5407 235.749 42.354C236.16 42.158 236.65 42.06 237.219 42.06C237.789 42.06 238.279 42.158 238.689 42.354C239.1 42.5407 239.436 42.8393 239.697 43.25C239.968 43.6513 240.169 44.174 240.299 44.818C240.43 45.4527 240.495 46.218 240.495 47.114C240.495 48.01 240.43 48.78 240.299 49.424C240.169 50.0587 239.968 50.5813 239.697 50.992C239.436 51.3933 239.1 51.692 238.689 51.888C238.279 52.0747 237.789 52.168 237.219 52.168ZM237.219 50.67C237.751 50.67 238.12 50.502 238.325 50.166C238.54 49.8207 238.647 49.2607 238.647 48.486V45.742C238.647 44.9673 238.54 44.412 238.325 44.076C238.12 43.7307 237.751 43.558 237.219 43.558C236.687 43.558 236.314 43.7307 236.099 44.076C235.894 44.412 235.791 44.9673 235.791 45.742V48.486C235.791 49.2607 235.894 49.8207 236.099 50.166C236.314 50.502 236.687 50.67 237.219 50.67ZM247.902 52H241.77V50.376L244.528 47.618C245.013 47.142 245.354 46.722 245.55 46.358C245.755 45.994 245.858 45.616 245.858 45.224V44.804C245.858 44.4027 245.751 44.0947 245.536 43.88C245.321 43.656 245.013 43.544 244.612 43.544C243.809 43.544 243.31 44.0293 243.114 45L241.602 44.412C241.817 43.6373 242.19 43.054 242.722 42.662C243.254 42.2607 243.931 42.06 244.752 42.06C245.275 42.06 245.723 42.1253 246.096 42.256C246.469 42.3773 246.773 42.5593 247.006 42.802C247.249 43.0353 247.421 43.3293 247.524 43.684C247.636 44.0293 247.692 44.4213 247.692 44.86C247.692 45.1867 247.659 45.49 247.594 45.77C247.529 46.0407 247.417 46.316 247.258 46.596C247.109 46.876 246.903 47.17 246.642 47.478C246.381 47.7767 246.054 48.122 245.662 48.514L243.632 50.53H247.902V52ZM251.865 46.218C252.303 46.218 252.649 46.1107 252.901 45.896C253.162 45.672 253.293 45.378 253.293 45.014V44.636C253.293 44.2813 253.181 44.006 252.957 43.81C252.742 43.6047 252.439 43.502 252.047 43.502C251.645 43.502 251.3 43.6 251.011 43.796C250.721 43.992 250.469 44.2813 250.255 44.664L249.135 43.684C249.452 43.18 249.863 42.7833 250.367 42.494C250.871 42.2047 251.463 42.06 252.145 42.06C253.05 42.06 253.764 42.2653 254.287 42.676C254.819 43.0867 255.085 43.726 255.085 44.594C255.085 45.182 254.935 45.672 254.637 46.064C254.347 46.4467 253.941 46.6893 253.419 46.792V47.002C254.025 47.086 254.483 47.3147 254.791 47.688C255.108 48.0613 255.267 48.5607 255.267 49.186C255.267 50.11 254.977 50.838 254.399 51.37C253.82 51.902 253.022 52.168 252.005 52.168C250.577 52.168 249.517 51.566 248.827 50.362L250.101 49.396C250.334 49.8533 250.6 50.1893 250.899 50.404C251.207 50.6187 251.571 50.726 251.991 50.726C252.457 50.726 252.817 50.6047 253.069 50.362C253.33 50.1193 253.461 49.788 253.461 49.368V48.976C253.461 48.5653 253.321 48.2433 253.041 48.01C252.761 47.7673 252.364 47.646 251.851 47.646H251.011V46.218H251.865Z" fill="black" fill-opacity="0.4"/>
<path d="M234.784 105L234.182 102.606H231.186L230.584 105H228.666L231.438 95.228H233.986L236.758 105H234.784ZM233.09 98.742L232.782 97.048H232.558L232.25 98.742L231.676 100.996H233.692L233.09 98.742ZM239.644 105.168C238.44 105.168 237.479 104.734 236.76 103.866L237.922 102.704C238.37 103.339 238.958 103.656 239.686 103.656C240.312 103.656 240.624 103.404 240.624 102.9C240.624 102.704 240.573 102.555 240.47 102.452C240.377 102.34 240.218 102.261 239.994 102.214L239.252 102.074C238.459 101.925 237.885 101.677 237.53 101.332C237.185 100.977 237.012 100.478 237.012 99.834C237.012 99.0593 237.241 98.476 237.698 98.084C238.156 97.6827 238.823 97.482 239.7 97.482C240.288 97.482 240.797 97.5753 241.226 97.762C241.665 97.9393 242.048 98.2147 242.374 98.588L241.254 99.736C240.834 99.2413 240.321 98.994 239.714 98.994C239.145 98.994 238.86 99.246 238.86 99.75C238.86 99.9553 238.912 100.109 239.014 100.212C239.117 100.315 239.285 100.389 239.518 100.436L240.288 100.576C241.063 100.716 241.618 100.954 241.954 101.29C242.3 101.617 242.472 102.088 242.472 102.704C242.472 103.497 242.225 104.109 241.73 104.538C241.236 104.958 240.54 105.168 239.644 105.168ZM244.125 96.754C243.724 96.754 243.43 96.67 243.243 96.502C243.066 96.3247 242.977 96.0867 242.977 95.788V95.48C242.977 95.1813 243.066 94.948 243.243 94.78C243.43 94.6027 243.724 94.514 244.125 94.514C244.527 94.514 244.816 94.6027 244.993 94.78C245.18 94.948 245.273 95.1813 245.273 95.48V95.788C245.273 96.0867 245.18 96.3247 244.993 96.502C244.816 96.67 244.527 96.754 244.125 96.754ZM243.145 97.65H245.105V105H243.145V97.65ZM251.093 105C250.328 105 249.913 104.575 249.847 103.726H249.665C249.591 104.174 249.39 104.529 249.063 104.79C248.737 105.042 248.321 105.168 247.817 105.168C247.155 105.168 246.655 104.981 246.319 104.608C245.983 104.225 245.815 103.698 245.815 103.026C245.815 102.223 246.058 101.64 246.543 101.276C247.038 100.912 247.724 100.73 248.601 100.73H249.665V100.156C249.665 99.7733 249.586 99.4887 249.427 99.302C249.269 99.1153 249.003 99.022 248.629 99.022C248.303 99.022 248.027 99.106 247.803 99.274C247.589 99.4327 247.397 99.6473 247.229 99.918L246.067 98.882C246.366 98.4433 246.73 98.1027 247.159 97.86C247.589 97.608 248.139 97.482 248.811 97.482C249.773 97.482 250.482 97.706 250.939 98.154C251.397 98.602 251.625 99.2693 251.625 100.156V103.474H252.227V105H251.093ZM248.601 103.796C248.891 103.796 249.138 103.717 249.343 103.558C249.558 103.39 249.665 103.133 249.665 102.788V101.878H248.783C248.111 101.878 247.775 102.158 247.775 102.718V102.984C247.775 103.264 247.845 103.469 247.985 103.6C248.135 103.731 248.34 103.796 248.601 103.796Z" fill="white"/>
<path d="M234.784 105L233.814 105.244L234.004 106H234.784V105ZM234.182 102.606L235.152 102.362L234.962 101.606H234.182V102.606ZM231.186 102.606V101.606H230.406L230.216 102.362L231.186 102.606ZM230.584 105V106H231.364L231.554 105.244L230.584 105ZM228.666 105L227.704 104.727L227.343 106H228.666V105ZM231.438 95.228V94.228H230.682L230.476 94.9551L231.438 95.228ZM233.986 95.228L234.948 94.9551L234.742 94.228H233.986V95.228ZM236.758 105V106H238.081L237.72 104.727L236.758 105ZM233.09 98.742L232.106 98.9209L232.113 98.9608L232.124 99L233.09 98.742ZM232.782 97.048L233.766 96.8691L233.616 96.048H232.782V97.048ZM232.558 97.048V96.048H231.723L231.574 96.8691L232.558 97.048ZM232.25 98.742L233.219 98.9888L233.228 98.9551L233.234 98.9209L232.25 98.742ZM231.676 100.996L230.707 100.749L230.389 101.996H231.676V100.996ZM233.692 100.996V101.996H234.994L234.658 100.738L233.692 100.996ZM235.754 104.756L235.152 102.362L233.212 102.85L233.814 105.244L235.754 104.756ZM234.182 101.606H231.186V103.606H234.182V101.606ZM230.216 102.362L229.614 104.756L231.554 105.244L232.156 102.85L230.216 102.362ZM230.584 104H228.666V106H230.584V104ZM229.628 105.273L232.4 95.5009L230.476 94.9551L227.704 104.727L229.628 105.273ZM231.438 96.228H233.986V94.228H231.438V96.228ZM233.024 95.5009L235.796 105.273L237.72 104.727L234.948 94.9551L233.024 95.5009ZM236.758 104H234.784V106H236.758V104ZM234.074 98.5631L233.766 96.8691L231.798 97.2269L232.106 98.9209L234.074 98.5631ZM232.782 96.048H232.558V98.048H232.782V96.048ZM231.574 96.8691L231.266 98.5631L233.234 98.9209L233.542 97.2269L231.574 96.8691ZM231.281 98.4952L230.707 100.749L232.645 101.243L233.219 98.9888L231.281 98.4952ZM231.676 101.996H233.692V99.996H231.676V101.996ZM234.658 100.738L234.056 98.484L232.124 99L232.726 101.254L234.658 100.738ZM236.76 103.866L236.053 103.159L235.409 103.803L235.99 104.504L236.76 103.866ZM237.922 102.704L238.739 102.127L238.055 101.157L237.215 101.997L237.922 102.704ZM240.47 102.452L239.702 103.092L239.731 103.127L239.763 103.159L240.47 102.452ZM239.994 102.214L240.198 101.235L240.189 101.233L240.18 101.231L239.994 102.214ZM239.252 102.074L239.438 101.091L239.437 101.091L239.252 102.074ZM237.53 101.332L236.814 102.03L236.823 102.039L236.833 102.048L237.53 101.332ZM237.698 98.084L238.349 98.8433L238.358 98.8356L237.698 98.084ZM241.226 97.762L240.827 98.6791L240.839 98.6842L240.851 98.6891L241.226 97.762ZM242.374 98.588L243.09 99.2863L243.735 98.6249L243.127 97.9295L242.374 98.588ZM241.254 99.736L240.492 100.383L241.203 101.221L241.97 100.434L241.254 99.736ZM239.014 100.212L238.307 100.919V100.919L239.014 100.212ZM239.518 100.436L239.322 101.417L239.331 101.418L239.339 101.42L239.518 100.436ZM240.288 100.576L240.109 101.56L240.11 101.56L240.288 100.576ZM241.954 101.29L241.247 101.997L241.257 102.007L241.267 102.016L241.954 101.29ZM241.73 104.538L242.377 105.3L242.386 105.293L241.73 104.538ZM239.644 104.168C238.715 104.168 238.045 103.849 237.53 103.228L235.99 104.504C236.913 105.619 238.166 106.168 239.644 106.168V104.168ZM237.467 104.573L238.629 103.411L237.215 101.997L236.053 103.159L237.467 104.573ZM237.105 103.281C237.726 104.16 238.608 104.656 239.686 104.656V102.656C239.308 102.656 239.015 102.518 238.739 102.127L237.105 103.281ZM239.686 104.656C240.107 104.656 240.608 104.575 241.017 104.246C241.468 103.882 241.624 103.37 241.624 102.9H239.624C239.624 102.924 239.62 102.9 239.641 102.849C239.665 102.791 239.707 102.733 239.762 102.688C239.813 102.648 239.848 102.64 239.837 102.643C239.825 102.646 239.779 102.656 239.686 102.656V104.656ZM241.624 102.9C241.624 102.534 241.526 102.093 241.177 101.745L239.763 103.159C239.698 103.094 239.659 103.022 239.64 102.966C239.622 102.914 239.624 102.887 239.624 102.9H241.624ZM241.238 101.812C240.939 101.452 240.525 101.303 240.198 101.235L239.79 103.193C239.841 103.204 239.85 103.211 239.834 103.203C239.816 103.194 239.761 103.163 239.702 103.092L241.238 101.812ZM240.18 101.231L239.438 101.091L239.067 103.057L239.809 103.197L240.18 101.231ZM239.437 101.091C238.727 100.958 238.378 100.762 238.228 100.616L236.833 102.048C237.392 102.593 238.191 102.892 239.067 103.057L239.437 101.091ZM238.247 100.634C238.133 100.518 238.012 100.299 238.012 99.834H236.012C236.012 100.657 236.237 101.437 236.814 102.03L238.247 100.634ZM238.012 99.834C238.012 99.2617 238.173 98.9938 238.349 98.8433L237.047 97.3247C236.308 97.9582 236.012 98.857 236.012 99.834H238.012ZM238.358 98.8356C238.566 98.6525 238.96 98.482 239.7 98.482V96.482C238.686 96.482 237.745 96.7128 237.039 97.3324L238.358 98.8356ZM239.7 98.482C240.185 98.482 240.552 98.5592 240.827 98.6791L241.625 96.8449C241.042 96.5915 240.391 96.482 239.7 96.482V98.482ZM240.851 98.6891C241.138 98.8049 241.393 98.9852 241.622 99.2465L243.127 97.9295C242.702 97.4442 242.192 97.0738 241.601 96.8349L240.851 98.6891ZM241.658 97.8897L240.538 99.0377L241.97 100.434L243.09 99.2863L241.658 97.8897ZM242.016 99.0888C241.422 98.3881 240.637 97.994 239.714 97.994V99.994C240.005 99.994 240.247 100.095 240.492 100.383L242.016 99.0888ZM239.714 97.994C239.303 97.994 238.808 98.0823 238.411 98.4342C237.99 98.8068 237.86 99.3101 237.86 99.75H239.86C239.86 99.7157 239.865 99.7294 239.849 99.7716C239.831 99.8197 239.795 99.8801 239.737 99.9318C239.681 99.9811 239.633 99.9974 239.624 100C239.617 100.002 239.642 99.994 239.714 99.994V97.994ZM237.86 99.75C237.86 100.109 237.951 100.563 238.307 100.919L239.721 99.5049C239.872 99.6559 239.86 99.8012 239.86 99.75H237.86ZM238.307 100.919C238.613 101.225 239.007 101.354 239.322 101.417L239.714 99.4554C239.683 99.4492 239.661 99.4433 239.645 99.4385C239.629 99.4338 239.623 99.4308 239.623 99.4312C239.624 99.4315 239.635 99.4362 239.651 99.4473C239.669 99.4585 239.693 99.477 239.721 99.5049L238.307 100.919ZM239.339 101.42L240.109 101.56L240.467 99.5921L239.697 99.4521L239.339 101.42ZM240.11 101.56C240.804 101.685 241.122 101.872 241.247 101.997L242.661 100.583C242.114 100.036 241.322 99.7467 240.466 99.5919L240.11 101.56ZM241.267 102.016C241.358 102.103 241.472 102.277 241.472 102.704H243.472C243.472 101.899 243.241 101.131 242.641 100.564L241.267 102.016ZM241.472 102.704C241.472 103.274 241.305 103.583 241.075 103.783L242.386 105.293C243.145 104.634 243.472 103.72 243.472 102.704H241.472ZM241.083 103.776C240.827 103.993 240.393 104.168 239.644 104.168V106.168C240.687 106.168 241.644 105.923 242.377 105.3L241.083 103.776ZM243.243 96.502L242.536 97.2091L242.555 97.2277L242.574 97.2453L243.243 96.502ZM243.243 94.78L243.931 95.506L243.932 95.505L243.243 94.78ZM244.993 94.78L244.286 95.4871L244.305 95.5057L244.324 95.5233L244.993 94.78ZM244.993 96.502L245.681 97.228L245.682 97.227L244.993 96.502ZM243.145 97.65V96.65H242.145V97.65H243.145ZM245.105 97.65H246.105V96.65H245.105V97.65ZM245.105 105V106H246.105V105H245.105ZM243.145 105H242.145V106H243.145V105ZM244.125 95.754C243.99 95.754 243.913 95.7394 243.879 95.7295C243.847 95.7203 243.871 95.7212 243.912 95.7587L242.574 97.2453C243.027 97.653 243.617 97.754 244.125 97.754V95.754ZM243.95 95.7949C243.956 95.8006 243.963 95.8086 243.969 95.8183C243.975 95.828 243.979 95.8363 243.981 95.8414C243.985 95.8518 243.977 95.8387 243.977 95.788H241.977C241.977 96.2976 242.136 96.809 242.536 97.2091L243.95 95.7949ZM243.977 95.788V95.48H241.977V95.788H243.977ZM243.977 95.48C243.977 95.4288 243.985 95.4195 243.979 95.4362C243.975 95.4446 243.97 95.4568 243.96 95.4707C243.951 95.4846 243.941 95.4966 243.931 95.506L242.556 94.054C242.136 94.4517 241.977 94.9724 241.977 95.48H243.977ZM243.932 95.505C243.892 95.5429 243.867 95.5457 243.893 95.5379C243.922 95.5289 243.994 95.514 244.125 95.514V93.514C243.606 93.514 243.008 93.6246 242.555 94.055L243.932 95.505ZM244.125 95.514C244.257 95.514 244.326 95.5291 244.35 95.5366C244.371 95.5429 244.335 95.5356 244.286 95.4871L245.7 94.0729C245.25 93.6221 244.639 93.514 244.125 93.514V95.514ZM244.324 95.5233C244.316 95.5156 244.305 95.5045 244.296 95.4904C244.286 95.4763 244.279 95.463 244.275 95.4524C244.266 95.4309 244.273 95.4344 244.273 95.48H246.273C246.273 94.9564 246.1 94.4303 245.662 94.0367L244.324 95.5233ZM244.273 95.48V95.788H246.273V95.48H244.273ZM244.273 95.788C244.273 95.8331 244.266 95.8405 244.272 95.8254C244.275 95.8182 244.28 95.8087 244.287 95.7986C244.293 95.7886 244.3 95.7813 244.305 95.777L245.682 97.227C246.1 96.8303 246.273 96.3129 246.273 95.788H244.273ZM244.306 95.776C244.356 95.7278 244.391 95.7229 244.364 95.7307C244.335 95.7393 244.261 95.754 244.125 95.754V97.754C244.627 97.754 245.23 97.6556 245.681 97.228L244.306 95.776ZM243.145 98.65H245.105V96.65H243.145V98.65ZM244.105 97.65V105H246.105V97.65H244.105ZM245.105 104H243.145V106H245.105V104ZM244.145 105V97.65H242.145V105H244.145ZM249.847 103.726L250.844 103.649L250.773 102.726H249.847V103.726ZM249.665 103.726V102.726H248.818L248.679 103.562L249.665 103.726ZM249.063 104.79L249.674 105.582L249.681 105.576L249.688 105.571L249.063 104.79ZM246.319 104.608L245.568 105.268L245.576 105.277L246.319 104.608ZM246.543 101.276L245.951 100.471L245.943 100.476L246.543 101.276ZM249.665 100.73V101.73H250.665V100.73H249.665ZM249.427 99.302L248.665 99.9496V99.9496L249.427 99.302ZM247.803 99.274L248.398 100.078L248.403 100.074L247.803 99.274ZM247.229 99.918L246.564 100.664L247.452 101.456L248.079 100.445L247.229 99.918ZM246.067 98.882L245.241 98.3192L244.747 99.0445L245.402 99.6284L246.067 98.882ZM247.159 97.86L247.651 98.7306L247.659 98.7265L247.666 98.7224L247.159 97.86ZM250.939 98.154L251.639 97.4396H251.639L250.939 98.154ZM251.625 103.474H250.625V104.474H251.625V103.474ZM252.227 103.474H253.227V102.474H252.227V103.474ZM252.227 105V106H253.227V105H252.227ZM249.343 103.558L249.955 104.349L249.96 104.346L249.343 103.558ZM249.665 101.878H250.665V100.878H249.665V101.878ZM247.985 103.6L247.303 104.331L247.315 104.342L247.327 104.353L247.985 103.6ZM251.093 104C250.993 104 250.942 103.986 250.923 103.979C250.91 103.974 250.915 103.974 250.923 103.982C250.938 103.998 250.867 103.939 250.844 103.649L248.85 103.803C248.893 104.362 249.063 104.941 249.493 105.381C249.939 105.837 250.523 106 251.093 106V104ZM249.847 102.726H249.665V104.726H249.847V102.726ZM248.679 103.562C248.641 103.789 248.556 103.915 248.439 104.009L249.688 105.571C250.224 105.142 250.54 104.559 250.652 103.89L248.679 103.562ZM248.453 103.998C248.337 104.087 248.151 104.168 247.817 104.168V106.168C248.492 106.168 249.136 105.997 249.674 105.582L248.453 103.998ZM247.817 104.168C247.343 104.168 247.153 104.04 247.063 103.939L245.576 105.277C246.157 105.923 246.967 106.168 247.817 106.168V104.168ZM247.071 103.948C246.94 103.8 246.815 103.534 246.815 103.026H244.815C244.815 103.862 245.026 104.651 245.568 105.268L247.071 103.948ZM246.815 103.026C246.815 102.427 246.987 102.193 247.143 102.076L245.943 100.476C245.129 101.087 244.815 102.019 244.815 103.026H246.815ZM247.136 102.081C247.399 101.888 247.849 101.73 248.601 101.73V99.73C247.599 99.73 246.677 99.9363 245.951 100.471L247.136 102.081ZM248.601 101.73H249.665V99.73H248.601V101.73ZM250.665 100.73V100.156H248.665V100.73H250.665ZM250.665 100.156C250.665 99.6627 250.567 99.0993 250.189 98.6544L248.665 99.9496C248.634 99.9123 248.634 99.8928 248.643 99.924C248.652 99.9576 248.665 100.03 248.665 100.156H250.665ZM250.189 98.6544C249.759 98.1483 249.141 98.022 248.629 98.022V100.022C248.682 100.022 248.719 100.025 248.745 100.029C248.77 100.033 248.78 100.036 248.778 100.036C248.775 100.035 248.76 100.029 248.738 100.014C248.715 99.9993 248.689 99.9778 248.665 99.9496L250.189 98.6544ZM248.629 98.022C248.124 98.022 247.628 98.1554 247.203 98.474L248.403 100.074C248.427 100.057 248.482 100.022 248.629 100.022V98.022ZM247.209 98.4698C246.875 98.7168 246.602 99.0327 246.38 99.3906L248.079 100.445C248.193 100.262 248.303 100.149 248.398 100.078L247.209 98.4698ZM247.895 99.1716L246.733 98.1356L245.402 99.6284L246.564 100.664L247.895 99.1716ZM246.894 99.4448C247.113 99.1232 247.366 98.892 247.651 98.7306L246.667 96.9894C246.094 97.3133 245.619 97.7635 245.241 98.3192L246.894 99.4448ZM247.666 98.7224C247.897 98.5867 248.257 98.482 248.811 98.482V96.482C248.021 96.482 247.281 96.6293 246.653 96.9976L247.666 98.7224ZM248.811 98.482C249.64 98.482 250.045 98.6774 250.24 98.8684L251.639 97.4396C250.919 96.7346 249.905 96.482 248.811 96.482V98.482ZM250.24 98.8684C250.441 99.0653 250.625 99.4323 250.625 100.156H252.625C252.625 99.1063 252.353 98.1387 251.639 97.4396L250.24 98.8684ZM250.625 100.156V103.474H252.625V100.156H250.625ZM251.625 104.474H252.227V102.474H251.625V104.474ZM251.227 103.474V105H253.227V103.474H251.227ZM252.227 104H251.093V106H252.227V104ZM248.601 104.796C249.085 104.796 249.554 104.659 249.955 104.349L248.732 102.767C248.722 102.775 248.696 102.796 248.601 102.796V104.796ZM249.96 104.346C250.479 103.939 250.665 103.351 250.665 102.788H248.665C248.665 102.859 248.654 102.873 248.662 102.854C248.667 102.843 248.674 102.828 248.687 102.811C248.7 102.794 248.714 102.78 248.727 102.77L249.96 104.346ZM250.665 102.788V101.878H248.665V102.788H250.665ZM249.665 100.878H248.783V102.878H249.665V100.878ZM248.783 100.878C248.333 100.878 247.809 100.968 247.387 101.32C246.93 101.701 246.775 102.231 246.775 102.718H248.775C248.775 102.676 248.782 102.684 248.767 102.722C248.759 102.741 248.747 102.765 248.729 102.79C248.71 102.816 248.689 102.838 248.668 102.856C248.623 102.893 248.594 102.898 248.61 102.894C248.628 102.889 248.682 102.878 248.783 102.878V100.878ZM246.775 102.718V102.984H248.775V102.718H246.775ZM246.775 102.984C246.775 103.412 246.882 103.938 247.303 104.331L248.668 102.869C248.733 102.93 248.763 102.993 248.774 103.025C248.783 103.052 248.775 103.044 248.775 102.984H246.775ZM247.327 104.353C247.71 104.688 248.176 104.796 248.601 104.796V102.796C248.552 102.796 248.541 102.79 248.555 102.794C248.562 102.796 248.575 102.801 248.592 102.811C248.608 102.82 248.626 102.832 248.644 102.847L247.327 104.353Z" fill="#FF6363"/>
<path d="M189 160L155 118V247H189V160Z" fill="#0000FF" fill-opacity="0.14"/>
<line x1="17" y1="117.5" x2="47" y2="117.5" stroke="black"/>
<line x1="296" y1="110.5" x2="326" y2="110.5" stroke="black"/>
<line x1="22" y1="247.5" x2="326" y2="247.5" stroke="black" stroke-opacity="0.5"/>
<line x1="17" y1="59.5" x2="326" y2="59.5" stroke="black" stroke-opacity="0.5"/>
</svg>
