<svg id="tip" width="100%" height="100%" viewBox="0 0 368 73" fill="none" xmlns="http://www.w3.org/2000/svg">
<path class="mountain" id="urbano-latino" d="M8.448 64.936H8.136C7.64 66.504 6.608 67.288 5.04 67.288C3.936 67.288 3.072 66.912 2.448 66.16C1.84 65.392 1.536 64.272 1.536 62.8V54.52H4.008V62.464C4.008 64.272 4.712 65.176 6.12 65.176C6.76 65.176 7.304 64.984 7.752 64.6C8.216 64.2 8.448 63.648 8.448 62.944V54.52H10.92V67H8.448V64.936ZM14.2894 67V54.52H16.7614V56.992H17.0494C17.2254 56.192 17.5534 55.584 18.0334 55.168C18.5294 54.736 19.1534 54.52 19.9054 54.52H20.5294V57.04H19.4734C18.5934 57.04 17.9214 57.208 17.4574 57.544C16.9934 57.88 16.7614 58.416 16.7614 59.152V67H14.2894ZM22.6097 49.24H25.0817V56.56H25.3697C25.5777 55.824 25.9457 55.256 26.4737 54.856C27.0177 54.44 27.6577 54.232 28.3937 54.232C29.8817 54.232 30.9857 54.8 31.7057 55.936C32.4257 57.056 32.7857 58.664 32.7857 60.76C32.7857 62.856 32.4257 64.472 31.7057 65.608C30.9857 66.728 29.8817 67.288 28.3937 67.288C27.6577 67.288 27.0177 67.088 26.4737 66.688C25.9457 66.272 25.5777 65.696 25.3697 64.96H25.0817V67H22.6097V49.24ZM27.5057 65.176C28.3537 65.176 29.0097 64.912 29.4737 64.384C29.9377 63.856 30.1697 63.112 30.1697 62.152V59.368C30.1697 58.408 29.9377 57.664 29.4737 57.136C29.0097 56.608 28.3537 56.344 27.5057 56.344C26.8017 56.344 26.2177 56.528 25.7537 56.896C25.3057 57.264 25.0817 57.768 25.0817 58.408V63.112C25.0817 63.752 25.3057 64.256 25.7537 64.624C26.2177 64.992 26.8017 65.176 27.5057 65.176ZM43.4694 67C42.8614 67 42.3894 66.832 42.0534 66.496C41.7174 66.16 41.5494 65.632 41.5494 64.912H41.2614C41.0854 65.664 40.7174 66.248 40.1574 66.664C39.6134 67.08 38.9414 67.288 38.1414 67.288C36.9574 67.288 36.0694 66.976 35.4774 66.352C34.9014 65.712 34.6134 64.816 34.6134 63.664C34.6134 62.416 35.0134 61.464 35.8134 60.808C36.6134 60.152 37.7894 59.824 39.3414 59.824H41.4054V58.624C41.4054 57.824 41.2294 57.24 40.8774 56.872C40.5254 56.488 39.9654 56.296 39.1974 56.296C38.6054 56.296 38.0934 56.424 37.6614 56.68C37.2454 56.936 36.8614 57.368 36.5094 57.976L35.0454 56.632C35.4614 55.928 36.0214 55.352 36.7254 54.904C37.4454 54.456 38.3254 54.232 39.3654 54.232C40.8694 54.232 41.9974 54.6 42.7494 55.336C43.5014 56.056 43.8774 57.12 43.8774 58.528V64.96H45.0534V67H43.4694ZM38.9574 65.368C39.3094 65.368 39.6294 65.312 39.9174 65.2C40.2214 65.088 40.4774 64.936 40.6854 64.744C40.9094 64.552 41.0854 64.328 41.2134 64.072C41.3414 63.8 41.4054 63.512 41.4054 63.208V61.48H39.4614C37.9094 61.48 37.1334 62.04 37.1334 63.16V63.736C37.1334 64.296 37.2934 64.712 37.6134 64.984C37.9494 65.24 38.3974 65.368 38.9574 65.368ZM47.3831 67V54.52H49.8551V56.584H50.1431C50.6391 55.016 51.6631 54.232 53.2151 54.232C54.3351 54.232 55.1991 54.616 55.8071 55.384C56.4311 56.136 56.7431 57.248 56.7431 58.72V67H54.2711V59.056C54.2711 58.176 54.1031 57.504 53.7671 57.04C53.4311 56.576 52.9031 56.344 52.1831 56.344C51.5271 56.344 50.9751 56.544 50.5271 56.944C50.0791 57.328 49.8551 57.872 49.8551 58.576V67H47.3831ZM64.3845 67.288C63.5845 67.288 62.8645 67.16 62.2245 66.904C61.6005 66.648 61.0565 66.256 60.5925 65.728C60.1445 65.2 59.8005 64.528 59.5605 63.712C59.3205 62.88 59.2005 61.896 59.2005 60.76C59.2005 59.624 59.3205 58.648 59.5605 57.832C59.8005 57 60.1445 56.32 60.5925 55.792C61.0565 55.264 61.6005 54.872 62.2245 54.616C62.8645 54.36 63.5845 54.232 64.3845 54.232C65.1685 54.232 65.8805 54.36 66.5205 54.616C67.1605 54.872 67.7045 55.264 68.1525 55.792C68.6165 56.32 68.9685 57 69.2085 57.832C69.4485 58.648 69.5685 59.624 69.5685 60.76C69.5685 61.896 69.4485 62.88 69.2085 63.712C68.9685 64.528 68.6165 65.2 68.1525 65.728C67.7045 66.256 67.1605 66.648 66.5205 66.904C65.8805 67.16 65.1685 67.288 64.3845 67.288ZM64.3845 65.224C65.2165 65.224 65.8485 64.976 66.2805 64.48C66.7285 63.984 66.9525 63.232 66.9525 62.224V59.296C66.9525 58.288 66.7285 57.536 66.2805 57.04C65.8485 56.544 65.2165 56.296 64.3845 56.296C63.5525 56.296 62.9125 56.544 62.4645 57.04C62.0325 57.536 61.8165 58.288 61.8165 59.296V62.224C61.8165 63.232 62.0325 63.984 62.4645 64.48C62.9125 64.976 63.5525 65.224 64.3845 65.224ZM79.6671 67C78.8031 67 78.1791 66.808 77.7951 66.424C77.4111 66.024 77.2191 65.408 77.2191 64.576V49.24H79.6911V64.96H81.1791V67H79.6671ZM91.4694 67C90.8614 67 90.3894 66.832 90.0534 66.496C89.7174 66.16 89.5494 65.632 89.5494 64.912H89.2614C89.0854 65.664 88.7174 66.248 88.1574 66.664C87.6134 67.08 86.9414 67.288 86.1414 67.288C84.9574 67.288 84.0694 66.976 83.4774 66.352C82.9014 65.712 82.6134 64.816 82.6134 63.664C82.6134 62.416 83.0134 61.464 83.8134 60.808C84.6134 60.152 85.7894 59.824 87.3414 59.824H89.4054V58.624C89.4054 57.824 89.2294 57.24 88.8774 56.872C88.5254 56.488 87.9654 56.296 87.1974 56.296C86.6054 56.296 86.0934 56.424 85.6614 56.68C85.2454 56.936 84.8614 57.368 84.5094 57.976L83.0454 56.632C83.4614 55.928 84.0214 55.352 84.7254 54.904C85.4454 54.456 86.3254 54.232 87.3654 54.232C88.8694 54.232 89.9974 54.6 90.7494 55.336C91.5014 56.056 91.8774 57.12 91.8774 58.528V64.96H93.0534V67H91.4694ZM86.9574 65.368C87.3094 65.368 87.6294 65.312 87.9174 65.2C88.2214 65.088 88.4774 64.936 88.6854 64.744C88.9094 64.552 89.0854 64.328 89.2134 64.072C89.3414 63.8 89.4054 63.512 89.4054 63.208V61.48H87.4614C85.9094 61.48 85.1334 62.04 85.1334 63.16V63.736C85.1334 64.296 85.2934 64.712 85.6134 64.984C85.9494 65.24 86.3974 65.368 86.9574 65.368ZM98.3614 67C97.4974 67 96.8654 66.808 96.4654 66.424C96.0814 66.04 95.8894 65.416 95.8894 64.552V56.56H94.1614V54.52H95.1214C95.5214 54.52 95.7854 54.432 95.9134 54.256C96.0574 54.064 96.1294 53.768 96.1294 53.368V51.112H98.3614V54.52H100.689V56.56H98.3614V64.96H100.521V67H98.3614ZM104.412 52.144C103.42 52.144 102.924 51.72 102.924 50.872V50.44C102.924 49.592 103.42 49.168 104.412 49.168C105.404 49.168 105.9 49.592 105.9 50.44V50.872C105.9 51.72 105.404 52.144 104.412 52.144ZM103.188 54.52H105.66V67H103.188V54.52ZM109.024 67V54.52H111.496V56.584H111.784C112.28 55.016 113.304 54.232 114.856 54.232C115.976 54.232 116.84 54.616 117.448 55.384C118.072 56.136 118.384 57.248 118.384 58.72V67H115.912V59.056C115.912 58.176 115.744 57.504 115.408 57.04C115.072 56.576 114.544 56.344 113.824 56.344C113.168 56.344 112.616 56.544 112.168 56.944C111.72 57.328 111.496 57.872 111.496 58.576V67H109.024ZM126.025 67.288C125.225 67.288 124.505 67.16 123.865 66.904C123.241 66.648 122.697 66.256 122.233 65.728C121.785 65.2 121.441 64.528 121.201 63.712C120.961 62.88 120.841 61.896 120.841 60.76C120.841 59.624 120.961 58.648 121.201 57.832C121.441 57 121.785 56.32 122.233 55.792C122.697 55.264 123.241 54.872 123.865 54.616C124.505 54.36 125.225 54.232 126.025 54.232C126.809 54.232 127.521 54.36 128.161 54.616C128.801 54.872 129.345 55.264 129.793 55.792C130.257 56.32 130.609 57 130.849 57.832C131.089 58.648 131.209 59.624 131.209 60.76C131.209 61.896 131.089 62.88 130.849 63.712C130.609 64.528 130.257 65.2 129.793 65.728C129.345 66.256 128.801 66.648 128.161 66.904C127.521 67.16 126.809 67.288 126.025 67.288ZM126.025 65.224C126.857 65.224 127.489 64.976 127.921 64.48C128.369 63.984 128.593 63.232 128.593 62.224V59.296C128.593 58.288 128.369 57.536 127.921 57.04C127.489 56.544 126.857 56.296 126.025 56.296C125.193 56.296 124.553 56.544 124.105 57.04C123.673 57.536 123.457 58.288 123.457 59.296V62.224C123.457 63.232 123.673 63.984 124.105 64.48C124.553 64.976 125.193 65.224 126.025 65.224Z" fill="#0000FF"/>
<path class="mountain" id="reggaeton" d="M259.68 67V54.52H262.152V56.992H262.44C262.616 56.192 262.944 55.584 263.424 55.168C263.92 54.736 264.544 54.52 265.296 54.52H265.92V57.04H264.864C263.984 57.04 263.312 57.208 262.848 57.544C262.384 57.88 262.152 58.416 262.152 59.152V67H259.68ZM272.466 67.288C271.682 67.288 270.962 67.16 270.306 66.904C269.65 66.648 269.09 66.256 268.626 65.728C268.162 65.184 267.794 64.504 267.522 63.688C267.266 62.872 267.138 61.896 267.138 60.76C267.138 59.624 267.258 58.648 267.498 57.832C267.738 57 268.082 56.32 268.53 55.792C268.994 55.264 269.538 54.872 270.162 54.616C270.802 54.36 271.522 54.232 272.322 54.232C273.906 54.232 275.138 54.752 276.018 55.792C276.914 56.832 277.362 58.488 277.362 60.76V61.384H269.73V62.176C269.73 63.168 269.978 63.928 270.474 64.456C270.986 64.984 271.682 65.248 272.562 65.248C273.314 65.248 273.93 65.08 274.41 64.744C274.906 64.408 275.322 63.936 275.658 63.328L277.098 64.696C276.65 65.48 276.042 66.112 275.274 66.592C274.522 67.056 273.586 67.288 272.466 67.288ZM272.322 56.2C271.49 56.2 270.85 56.456 270.402 56.968C269.954 57.464 269.73 58.216 269.73 59.224V59.728H274.746V59.224C274.746 57.208 273.938 56.2 272.322 56.2ZM289.889 68.224C289.889 68.88 289.785 69.448 289.577 69.928C289.369 70.408 289.033 70.808 288.569 71.128C288.105 71.448 287.505 71.688 286.769 71.848C286.049 72.008 285.161 72.088 284.105 72.088C283.161 72.088 282.361 72.016 281.705 71.872C281.049 71.744 280.513 71.552 280.097 71.296C279.697 71.04 279.409 70.72 279.233 70.336C279.057 69.968 278.969 69.544 278.969 69.064C278.969 68.424 279.137 67.912 279.473 67.528C279.825 67.16 280.305 66.928 280.913 66.832V66.424C280.465 66.264 280.129 66.024 279.905 65.704C279.697 65.384 279.593 65 279.593 64.552C279.593 63.992 279.769 63.544 280.121 63.208C280.489 62.856 280.977 62.632 281.585 62.536V62.248C280.241 61.56 279.569 60.312 279.569 58.504C279.569 57.128 279.945 56.072 280.697 55.336C281.465 54.6 282.601 54.232 284.105 54.232C284.841 54.232 285.513 54.352 286.121 54.592V54.184C286.121 53.144 286.617 52.624 287.609 52.624H289.337V54.616H287.033V55.168C287.545 55.488 287.937 55.936 288.209 56.512C288.497 57.072 288.641 57.736 288.641 58.504C288.641 59.88 288.257 60.936 287.489 61.672C286.737 62.392 285.609 62.752 284.105 62.752C283.817 62.752 283.537 62.736 283.265 62.704C283.009 62.672 282.761 62.632 282.521 62.584C282.201 62.68 281.961 62.848 281.801 63.088C281.641 63.312 281.561 63.56 281.561 63.832C281.561 64.152 281.665 64.392 281.873 64.552C282.097 64.712 282.457 64.792 282.953 64.792H285.953C287.377 64.792 288.385 65.088 288.977 65.68C289.585 66.272 289.889 67.12 289.889 68.224ZM287.561 68.464C287.561 68 287.409 67.64 287.105 67.384C286.801 67.128 286.289 67 285.569 67H281.729C281.249 67.336 281.009 67.832 281.009 68.488C281.009 69.048 281.185 69.48 281.537 69.784C281.905 70.104 282.521 70.264 283.385 70.264H284.873C285.817 70.264 286.497 70.112 286.913 69.808C287.345 69.52 287.561 69.072 287.561 68.464ZM284.105 60.952C285.529 60.952 286.241 60.248 286.241 58.84V58.12C286.241 56.712 285.529 56.008 284.105 56.008C282.681 56.008 281.969 56.712 281.969 58.12V58.84C281.969 60.248 282.681 60.952 284.105 60.952ZM301.819 68.224C301.819 68.88 301.715 69.448 301.507 69.928C301.299 70.408 300.963 70.808 300.499 71.128C300.035 71.448 299.435 71.688 298.699 71.848C297.979 72.008 297.091 72.088 296.035 72.088C295.091 72.088 294.291 72.016 293.635 71.872C292.979 71.744 292.443 71.552 292.027 71.296C291.627 71.04 291.339 70.72 291.163 70.336C290.987 69.968 290.899 69.544 290.899 69.064C290.899 68.424 291.067 67.912 291.403 67.528C291.755 67.16 292.235 66.928 292.843 66.832V66.424C292.395 66.264 292.059 66.024 291.835 65.704C291.627 65.384 291.523 65 291.523 64.552C291.523 63.992 291.699 63.544 292.051 63.208C292.419 62.856 292.907 62.632 293.515 62.536V62.248C292.171 61.56 291.499 60.312 291.499 58.504C291.499 57.128 291.875 56.072 292.627 55.336C293.395 54.6 294.531 54.232 296.035 54.232C296.771 54.232 297.443 54.352 298.051 54.592V54.184C298.051 53.144 298.547 52.624 299.539 52.624H301.267V54.616H298.963V55.168C299.475 55.488 299.867 55.936 300.139 56.512C300.427 57.072 300.571 57.736 300.571 58.504C300.571 59.88 300.187 60.936 299.419 61.672C298.667 62.392 297.539 62.752 296.035 62.752C295.747 62.752 295.467 62.736 295.195 62.704C294.939 62.672 294.691 62.632 294.451 62.584C294.131 62.68 293.891 62.848 293.731 63.088C293.571 63.312 293.491 63.56 293.491 63.832C293.491 64.152 293.595 64.392 293.803 64.552C294.027 64.712 294.387 64.792 294.883 64.792H297.883C299.307 64.792 300.315 65.088 300.907 65.68C301.515 66.272 301.819 67.12 301.819 68.224ZM299.491 68.464C299.491 68 299.339 67.64 299.035 67.384C298.731 67.128 298.219 67 297.499 67H293.659C293.179 67.336 292.939 67.832 292.939 68.488C292.939 69.048 293.115 69.48 293.467 69.784C293.835 70.104 294.451 70.264 295.315 70.264H296.803C297.747 70.264 298.427 70.112 298.843 69.808C299.275 69.52 299.491 69.072 299.491 68.464ZM296.035 60.952C297.459 60.952 298.171 60.248 298.171 58.84V58.12C298.171 56.712 297.459 56.008 296.035 56.008C294.611 56.008 293.899 56.712 293.899 58.12V58.84C293.899 60.248 294.611 60.952 296.035 60.952ZM311.571 67C310.963 67 310.491 66.832 310.155 66.496C309.819 66.16 309.651 65.632 309.651 64.912H309.363C309.187 65.664 308.819 66.248 308.259 66.664C307.715 67.08 307.043 67.288 306.243 67.288C305.059 67.288 304.171 66.976 303.579 66.352C303.003 65.712 302.715 64.816 302.715 63.664C302.715 62.416 303.115 61.464 303.915 60.808C304.715 60.152 305.891 59.824 307.443 59.824H309.507V58.624C309.507 57.824 309.331 57.24 308.979 56.872C308.627 56.488 308.067 56.296 307.299 56.296C306.707 56.296 306.195 56.424 305.763 56.68C305.347 56.936 304.963 57.368 304.611 57.976L303.147 56.632C303.563 55.928 304.123 55.352 304.827 54.904C305.547 54.456 306.427 54.232 307.467 54.232C308.971 54.232 310.099 54.6 310.851 55.336C311.603 56.056 311.979 57.12 311.979 58.528V64.96H313.155V67H311.571ZM307.059 65.368C307.411 65.368 307.731 65.312 308.019 65.2C308.323 65.088 308.579 64.936 308.787 64.744C309.011 64.552 309.187 64.328 309.315 64.072C309.443 63.8 309.507 63.512 309.507 63.208V61.48H307.563C306.011 61.48 305.235 62.04 305.235 63.16V63.736C305.235 64.296 305.395 64.712 305.715 64.984C306.051 65.24 306.499 65.368 307.059 65.368ZM320.021 67.288C319.237 67.288 318.517 67.16 317.861 66.904C317.205 66.648 316.645 66.256 316.181 65.728C315.717 65.184 315.349 64.504 315.077 63.688C314.821 62.872 314.693 61.896 314.693 60.76C314.693 59.624 314.813 58.648 315.053 57.832C315.293 57 315.637 56.32 316.085 55.792C316.549 55.264 317.093 54.872 317.717 54.616C318.357 54.36 319.077 54.232 319.877 54.232C321.461 54.232 322.693 54.752 323.573 55.792C324.469 56.832 324.917 58.488 324.917 60.76V61.384H317.285V62.176C317.285 63.168 317.533 63.928 318.029 64.456C318.541 64.984 319.237 65.248 320.117 65.248C320.869 65.248 321.485 65.08 321.965 64.744C322.461 64.408 322.877 63.936 323.213 63.328L324.653 64.696C324.205 65.48 323.597 66.112 322.829 66.592C322.077 67.056 321.141 67.288 320.021 67.288ZM319.877 56.2C319.045 56.2 318.405 56.456 317.957 56.968C317.509 57.464 317.285 58.216 317.285 59.224V59.728H322.301V59.224C322.301 57.208 321.493 56.2 319.877 56.2ZM330.58 67C329.716 67 329.084 66.808 328.684 66.424C328.3 66.04 328.108 65.416 328.108 64.552V56.56H326.38V54.52H327.34C327.74 54.52 328.004 54.432 328.132 54.256C328.276 54.064 328.348 53.768 328.348 53.368V51.112H330.58V54.52H332.908V56.56H330.58V64.96H332.74V67H330.58ZM339.705 67.288C338.905 67.288 338.185 67.16 337.545 66.904C336.921 66.648 336.377 66.256 335.913 65.728C335.465 65.2 335.121 64.528 334.881 63.712C334.641 62.88 334.521 61.896 334.521 60.76C334.521 59.624 334.641 58.648 334.881 57.832C335.121 57 335.465 56.32 335.913 55.792C336.377 55.264 336.921 54.872 337.545 54.616C338.185 54.36 338.905 54.232 339.705 54.232C340.489 54.232 341.201 54.36 341.841 54.616C342.481 54.872 343.025 55.264 343.473 55.792C343.937 56.32 344.289 57 344.529 57.832C344.769 58.648 344.889 59.624 344.889 60.76C344.889 61.896 344.769 62.88 344.529 63.712C344.289 64.528 343.937 65.2 343.473 65.728C343.025 66.256 342.481 66.648 341.841 66.904C341.201 67.16 340.489 67.288 339.705 67.288ZM339.705 65.224C340.537 65.224 341.169 64.976 341.601 64.48C342.049 63.984 342.273 63.232 342.273 62.224V59.296C342.273 58.288 342.049 57.536 341.601 57.04C341.169 56.544 340.537 56.296 339.705 56.296C338.873 56.296 338.233 56.544 337.785 57.04C337.353 57.536 337.137 58.288 337.137 59.296V62.224C337.137 63.232 337.353 63.984 337.785 64.48C338.233 64.976 338.873 65.224 339.705 65.224ZM347.453 67V54.52H349.925V56.584H350.213C350.709 55.016 351.733 54.232 353.285 54.232C354.405 54.232 355.269 54.616 355.877 55.384C356.501 56.136 356.813 57.248 356.813 58.72V67H354.341V59.056C354.341 58.176 354.173 57.504 353.837 57.04C353.501 56.576 352.973 56.344 352.253 56.344C351.597 56.344 351.045 56.544 350.597 56.944C350.149 57.328 349.925 57.872 349.925 58.576V67H347.453Z" fill="#0000FF"/>
<path class="mountain" id="filmi" d="M30.28 33.56H28.552V31.52H30.28V29.144C30.28 28.136 30.504 27.4 30.952 26.936C31.4 26.472 32.112 26.24 33.088 26.24H35.08V28.28H32.752V31.52H39.568V44H37.096V33.56H32.752V44H30.28V33.56ZM38.32 29.144C37.328 29.144 36.832 28.72 36.832 27.872V27.44C36.832 26.592 37.328 26.168 38.32 26.168C39.312 26.168 39.808 26.592 39.808 27.44V27.872C39.808 28.72 39.312 29.144 38.32 29.144ZM45.3702 44C44.5062 44 43.8822 43.808 43.4982 43.424C43.1142 43.024 42.9222 42.408 42.9222 41.576V26.24H45.3942V41.96H46.8822V44H45.3702ZM49.1566 44V31.52H51.6286V33.584H51.9166C52.4126 32.016 53.4126 31.232 54.9166 31.232C56.4686 31.232 57.5006 32.032 58.0126 33.632H58.2766C58.5326 32.816 58.9406 32.216 59.5006 31.832C60.0606 31.432 60.7646 31.232 61.6126 31.232C62.6846 31.232 63.5166 31.616 64.1086 32.384C64.7166 33.136 65.0206 34.248 65.0206 35.72V44H62.5486V36.056C62.5486 35.176 62.3806 34.504 62.0446 34.04C61.7246 33.576 61.2286 33.344 60.5566 33.344C59.9486 33.344 59.4206 33.544 58.9726 33.944C58.5406 34.328 58.3246 34.872 58.3246 35.576V44H55.8526V36.056C55.8526 35.176 55.6846 34.504 55.3486 34.04C55.0286 33.576 54.5326 33.344 53.8606 33.344C53.2366 33.344 52.7086 33.544 52.2766 33.944C51.8446 34.328 51.6286 34.872 51.6286 35.576V44H49.1566ZM69.5061 29.144C68.5141 29.144 68.0181 28.72 68.0181 27.872V27.44C68.0181 26.592 68.5141 26.168 69.5061 26.168C70.4981 26.168 70.9941 26.592 70.9941 27.44V27.872C70.9941 28.72 70.4981 29.144 69.5061 29.144ZM68.2821 31.52H70.7541V44H68.2821V31.52Z" fill="#0000FF"/>
<path class="mountain" id="hip-hop" d="M265.568 6.02048L267.931 6.74772L265.77 13.7667L266.045 13.8515C266.981 12.4988 268.19 12.0507 269.673 12.5073C270.744 12.8368 271.457 13.458 271.812 14.3708C272.187 15.2731 272.158 16.4277 271.725 17.8346L269.289 25.7482L266.926 25.0209L269.263 17.4285C269.522 16.5874 269.559 15.8957 269.375 15.3534C269.19 14.8111 268.754 14.434 268.066 14.2222C267.439 14.0292 266.852 14.058 266.306 14.3085C265.765 14.5437 265.391 14.9977 265.184 15.6706L262.706 23.7218L260.343 22.9945L265.568 6.02048ZM277.958 12.8727C277.01 12.5808 276.66 12.0297 276.91 11.2192L277.037 10.8063C277.286 9.99585 277.885 9.73653 278.833 10.0284C279.781 10.3202 280.131 10.8714 279.881 11.6818L279.754 12.0947C279.505 12.9052 278.906 13.1645 277.958 12.8727ZM276.089 14.7834L278.452 15.5107L274.78 27.4384L272.418 26.7112L276.089 14.7834ZM281.666 16.5001L284.029 17.2274L283.429 19.1771L283.704 19.2618C284.119 18.6196 284.638 18.185 285.26 17.958C285.903 17.7205 286.575 17.71 287.279 17.9265C288.686 18.3595 289.566 19.2248 289.92 20.5224C290.294 21.8093 290.173 23.4544 289.556 25.4577C288.939 27.4609 288.112 28.8972 287.075 29.7664C286.057 30.625 284.845 30.8378 283.438 30.4047C282.735 30.1882 282.182 29.8088 281.779 29.2664C281.397 28.7135 281.215 28.0547 281.233 27.2901L280.957 27.2054L278.945 33.7427L276.583 33.0155L281.666 16.5001ZM283.211 28.1249C284.021 28.3744 284.726 28.3151 285.324 27.947C285.923 27.5788 286.364 26.936 286.646 26.0185L287.465 23.3577C287.748 22.4402 287.745 21.6608 287.457 21.0197C287.169 20.3786 286.619 19.9333 285.809 19.6838C285.136 19.4767 284.524 19.4807 283.972 19.6959C283.436 19.9158 283.073 20.3316 282.885 20.9433L281.501 25.4392C281.313 26.0508 281.379 26.5984 281.699 27.0819C282.034 27.5702 282.538 27.9178 283.211 28.1249ZM300.356 16.7285L302.718 17.4558L300.558 24.4748L300.833 24.5595C301.768 23.2068 302.978 22.7588 304.461 23.2153C305.531 23.5448 306.244 24.166 306.599 25.0789C306.975 25.9812 306.946 27.1358 306.513 28.5426L304.077 36.4562L301.714 35.729L304.051 28.1365C304.31 27.2955 304.347 26.6038 304.163 26.0615C303.978 25.5192 303.542 25.1421 302.853 24.9303C302.226 24.7373 301.64 24.766 301.094 25.0165C300.553 25.2517 300.179 25.7058 299.972 26.3786L297.493 34.4298L295.131 33.7026L300.356 16.7285ZM311.295 38.9795C310.531 38.7441 309.88 38.41 309.344 37.977C308.823 37.5488 308.418 37.0141 308.13 36.373C307.857 35.7365 307.726 34.9931 307.737 34.1426C307.752 33.2768 307.927 32.301 308.261 31.2153C308.595 30.1296 308.997 29.2321 309.467 28.5228C309.941 27.7982 310.469 27.2495 311.053 26.8766C311.652 26.5085 312.287 26.2939 312.959 26.2328C313.646 26.1764 314.372 26.2659 315.136 26.5013C315.885 26.7319 316.528 27.0637 317.065 27.4966C317.601 27.9296 318.006 28.4643 318.278 29.1007C318.567 29.7419 318.703 30.4953 318.688 31.3611C318.677 32.2116 318.504 33.1797 318.17 34.2654C317.836 35.3512 317.432 36.2563 316.958 36.9809C316.488 37.6902 315.954 38.2289 315.355 38.597C314.772 38.9699 314.137 39.1845 313.45 39.2409C312.763 39.2973 312.044 39.2101 311.295 38.9795ZM311.902 37.0068C312.698 37.2516 313.375 37.2005 313.933 36.8535C314.507 36.5113 314.943 35.8585 315.239 34.8951L316.101 32.0966C316.397 31.1332 316.404 30.3486 316.122 29.7428C315.855 29.1416 315.324 28.7187 314.529 28.4739C313.734 28.2291 313.049 28.2779 312.475 28.6201C311.916 28.9671 311.489 29.6223 311.192 30.5857L310.331 33.3841C310.034 34.3475 310.019 35.1298 310.286 35.7309C310.568 36.3368 311.107 36.7621 311.902 37.0068ZM322.457 29.0561L324.82 29.7833L324.22 31.733L324.495 31.8178C324.91 31.1755 325.429 30.7409 326.051 30.514C326.694 30.2764 327.366 30.2659 328.07 30.4824C329.477 30.9155 330.357 31.7808 330.711 33.0783C331.085 34.3653 330.964 36.0104 330.347 38.0136C329.73 40.0169 328.903 41.4531 327.866 42.3223C326.848 43.1809 325.636 43.3937 324.229 42.9606C323.526 42.7441 322.973 42.3647 322.57 41.8224C322.188 41.2694 322.006 40.6107 322.024 39.846L321.748 39.7613L319.736 46.2986L317.374 45.5714L322.457 29.0561ZM324.002 40.6809C324.812 40.9303 325.517 40.871 326.115 40.5029C326.714 40.1348 327.155 39.4919 327.437 38.5744L328.256 35.9136C328.539 34.9961 328.536 34.2168 328.248 33.5756C327.96 32.9345 327.41 32.4892 326.6 32.2397C325.927 32.0326 325.315 32.0367 324.763 32.2519C324.227 32.4718 323.864 32.8876 323.676 33.4993L322.292 37.9951C322.104 38.6068 322.17 39.1544 322.489 39.6379C322.825 40.1261 323.329 40.4738 324.002 40.6809Z" fill="#0000FF"/>
<path class="mountain" id="k-pop" d="M222.496 36.2345L224.936 35.8395L226.313 44.3448L226.55 46.8593L226.81 46.8171L228.002 44.2659L230.139 40.346L232.958 39.8896L229.815 45.4067L235.213 52.1671L232.418 52.6196L228.335 47.2266L227.114 49.2963L227.774 53.3713L225.334 53.7663L222.496 36.2345ZM234.723 46.1196L234.321 43.632L240.291 42.6655L240.694 45.1532L234.723 46.1196ZM242.612 38.3269L245.052 37.9319L245.378 39.9457L245.663 39.8996C245.75 39.1399 246.023 38.5204 246.48 38.0411C246.951 37.5435 247.549 37.236 248.276 37.1183C249.729 36.8831 250.901 37.2687 251.794 38.275C252.699 39.263 253.319 40.7916 253.654 42.8606C253.989 44.9297 253.884 46.5837 253.339 47.8227C252.808 49.0434 251.815 49.7713 250.362 50.0066C249.635 50.1242 248.972 50.029 248.371 49.7211C247.783 49.3948 247.328 48.885 247.005 48.1917L246.721 48.2377L247.814 54.9898L245.373 55.3849L242.612 38.3269ZM249.148 48.0636C249.985 47.9281 250.59 47.5627 250.964 46.9673C251.338 46.3719 251.448 45.6004 251.294 44.6528L250.85 41.9045C250.696 40.9569 250.348 40.2595 249.806 39.8124C249.263 39.3654 248.574 39.2096 247.737 39.3451C247.042 39.4576 246.495 39.7326 246.095 40.17C245.712 40.6048 245.571 41.1381 245.674 41.7699L246.425 46.4135C246.528 47.0453 246.829 47.507 247.33 47.7987C247.847 48.0878 248.453 48.1761 249.148 48.0636ZM261.667 48.1766C260.877 48.3045 260.146 48.2932 259.473 48.1427C258.816 47.9897 258.216 47.6897 257.674 47.2426C257.147 46.793 256.7 46.1846 256.333 45.4174C255.963 44.6345 255.688 43.6823 255.506 42.5609C255.325 41.4395 255.287 40.4569 255.394 39.613C255.498 38.7533 255.728 38.0271 256.086 37.4343C256.46 36.8389 256.934 36.365 257.509 36.0126C258.1 35.6576 258.791 35.4162 259.58 35.2884C260.354 35.1631 261.078 35.1757 261.75 35.3261C262.423 35.4766 263.023 35.7766 263.549 36.2262C264.092 36.6733 264.548 37.2883 264.918 38.0713C265.285 38.8384 265.559 39.7827 265.741 40.9041C265.922 42.0255 265.961 43.0161 265.857 43.8757C265.751 44.7196 265.511 45.4392 265.137 46.0346C264.779 46.6274 264.305 47.1012 263.714 47.4562C263.123 47.8112 262.441 48.0513 261.667 48.1766ZM261.337 46.1391C262.158 46.0062 262.742 45.6604 263.09 45.1017C263.452 44.5405 263.553 43.7624 263.392 42.7673L262.924 39.877C262.763 38.8819 262.422 38.1754 261.901 37.7573C261.395 37.3367 260.731 37.1929 259.91 37.3259C259.089 37.4588 258.497 37.8059 258.134 38.3671C257.786 38.9258 257.693 39.7026 257.854 40.6977L258.322 43.588C258.483 44.5831 258.817 45.2909 259.323 45.7115C259.844 46.1295 260.515 46.2721 261.337 46.1391ZM267.275 34.3345L269.716 33.9395L270.042 35.9533L270.326 35.9072C270.414 35.1475 270.686 34.5279 271.143 34.0487C271.614 33.5511 272.212 33.2435 272.939 33.1259C274.392 32.8907 275.565 33.2763 276.457 34.2826C277.363 35.2706 277.983 36.7991 278.318 38.8682C278.653 40.9373 278.548 42.5913 278.003 43.8303C277.471 45.051 276.478 45.7789 275.025 46.0142C274.299 46.1318 273.635 46.0366 273.034 45.7287C272.446 45.4024 271.991 44.8926 271.668 44.1993L271.384 44.2453L272.477 50.9974L270.037 51.3924L267.275 34.3345ZM273.811 44.0712C274.648 43.9357 275.254 43.5702 275.627 42.9749C276.001 42.3795 276.111 41.608 275.958 40.6604L275.513 37.9121C275.36 36.9645 275.012 36.2671 274.469 35.82C273.927 35.373 273.237 35.2172 272.4 35.3527C271.705 35.4652 271.158 35.7401 270.759 36.1776C270.375 36.6124 270.235 37.1457 270.337 37.7775L271.089 42.4211C271.191 43.0528 271.492 43.5146 271.994 43.8062C272.51 44.0954 273.116 44.1837 273.811 44.0712Z" fill="#0000FF"/>
<path class="mountain" id="sad-sierreno" d="M91.9204 42.8708C90.8982 42.6794 90.045 42.3242 89.3608 41.8054C88.6953 41.2738 88.1565 40.5869 87.7445 39.7446L89.571 38.5973C89.8709 39.2557 90.2366 39.78 90.6682 40.1701C91.1027 40.5445 91.6502 40.7936 92.3107 40.9173C92.9555 41.0381 93.4774 40.9893 93.8764 40.771C94.2783 40.537 94.5323 40.137 94.6384 39.5708C94.7209 39.1305 94.677 38.756 94.5069 38.4474C94.3368 38.1388 93.9712 37.875 93.4099 37.6559L92.3837 37.2684C91.1826 36.8155 90.3426 36.2594 89.8638 35.5999C89.385 34.9405 89.2472 34.0683 89.4505 32.9831C89.6891 31.7093 90.2339 30.8428 91.085 30.3836C91.939 29.9087 93.0108 29.792 94.3004 30.0336C95.244 30.2103 96.0151 30.5256 96.6137 30.9796C97.2311 31.4208 97.7339 31.9952 98.1223 32.7028L96.3902 33.8678C96.1454 33.3499 95.8077 32.9367 95.3771 32.6281C94.9652 32.3068 94.4919 32.0961 93.9572 31.9959C92.7306 31.7662 92.0127 32.2096 91.8035 33.3262C91.7122 33.8137 91.7703 34.199 91.9777 34.482C92.1852 34.765 92.5553 35.0053 93.088 35.2027L94.1334 35.6183C95.366 36.077 96.1966 36.6396 96.6253 37.3059C97.0726 37.9594 97.205 38.7737 97.0224 39.7487C96.7897 40.9911 96.2311 41.8876 95.3466 42.4382C94.4621 42.9888 93.3201 43.133 91.9204 42.8708ZM106.795 45.3637C106.197 45.2518 105.764 44.9998 105.496 44.6077C105.227 44.2156 105.159 43.6657 105.292 42.958L105.009 42.9049C104.697 43.6117 104.228 44.118 103.601 44.4238C102.99 44.7325 102.291 44.8132 101.505 44.6659C100.341 44.448 99.5255 43.9778 99.0585 43.2555C98.6102 42.5204 98.4921 41.5867 98.7041 40.4544C98.9339 39.2277 99.5023 38.3656 100.409 37.8681C101.317 37.3706 102.533 37.2647 104.058 37.5504L106.087 37.9304L106.308 36.7509C106.455 35.9646 106.39 35.3582 106.111 34.9317C105.836 34.4894 105.321 34.1976 104.566 34.0562C103.984 33.9472 103.458 33.9788 102.986 34.1509C102.53 34.3259 102.073 34.6799 101.615 35.2127L100.423 33.6221C100.962 33.0067 101.618 32.5437 102.393 32.2329C103.183 31.9251 104.089 31.867 105.111 32.0584C106.59 32.3353 107.631 32.9047 108.234 33.7665C108.841 34.6127 109.015 35.7277 108.755 37.1116L107.571 43.4337L108.727 43.6502L108.352 45.6553L106.795 45.3637ZM102.66 42.929C103.006 42.9938 103.331 42.9977 103.635 42.9406C103.954 42.8865 104.234 42.7842 104.474 42.6338C104.729 42.4863 104.943 42.2985 105.116 42.0705C105.292 41.8267 105.408 41.5554 105.464 41.2566L105.782 39.5581L103.871 39.2002C102.346 38.9145 101.48 39.3221 101.274 40.4229L101.168 40.9891C101.065 41.5395 101.145 41.9779 101.41 42.3041C101.693 42.6176 102.11 42.8259 102.66 42.929ZM117.905 45.3692L117.622 45.3162C117.282 46.0014 116.807 46.4983 116.195 46.807C115.603 47.103 114.945 47.1832 114.221 47.0477C112.759 46.7738 111.777 46.0201 111.275 44.7867C110.777 43.5376 110.72 41.8829 111.106 39.8228C111.492 37.7626 112.142 36.2483 113.056 35.28C113.973 34.296 115.162 33.9409 116.625 34.2149C117.348 34.3504 117.931 34.6712 118.374 35.1773C118.835 35.6706 119.1 36.2981 119.169 37.0598L119.452 37.1128L120.799 29.9179L123.229 30.373L119.959 47.8295L117.53 47.3744L117.905 45.3692ZM115.483 45.1353C116.175 45.2649 116.775 45.1901 117.283 44.9109C117.807 44.6346 118.128 44.1819 118.245 43.5528L119.111 38.9292C119.229 38.3002 119.094 37.7621 118.706 37.3149C118.333 36.8708 117.801 36.5839 117.109 36.4543C116.275 36.2981 115.582 36.4369 115.029 36.8704C114.475 37.304 114.11 37.9926 113.934 38.9361L113.421 41.6726C113.244 42.6162 113.335 43.3901 113.694 43.9945C114.053 44.5989 114.649 44.9792 115.483 45.1353ZM131.797 50.3397C130.775 50.1482 129.922 49.7931 129.238 49.2743C128.572 48.7427 128.033 48.0557 127.621 47.2135L129.448 46.0661C129.748 46.7246 130.114 47.2489 130.545 47.639C130.98 48.0134 131.527 48.2624 132.188 48.3862C132.832 48.5069 133.354 48.4582 133.753 48.2399C134.155 48.0059 134.409 47.6058 134.515 47.0397C134.598 46.5993 134.554 46.2248 134.384 45.9163C134.214 45.6077 133.848 45.3438 133.287 45.1248L132.261 44.7372C131.059 44.2844 130.219 43.7282 129.741 43.0688C129.262 42.4094 129.124 41.5371 129.327 40.452C129.566 39.1781 130.111 38.3116 130.962 37.8525C131.816 37.3776 132.888 37.2609 134.177 37.5024C135.121 37.6792 135.892 37.9945 136.491 38.4485C137.108 38.8897 137.611 39.4641 137.999 40.1716L136.267 41.3367C136.022 40.8188 135.685 40.4055 135.254 40.097C134.842 39.7757 134.369 39.5649 133.834 39.4648C132.607 39.235 131.89 39.6785 131.68 40.795C131.589 41.2826 131.647 41.6678 131.855 41.9509C132.062 42.2339 132.432 42.4741 132.965 42.6716L134.01 43.0871C135.243 43.5459 136.074 44.1084 136.502 44.7747C136.95 45.4283 137.082 46.2425 136.899 47.2176C136.667 48.46 136.108 49.3565 135.223 49.907C134.339 50.4576 133.197 50.6018 131.797 50.3397ZM142.754 36.9845C141.779 36.8019 141.37 36.2939 141.526 35.4603L141.605 35.0357C141.761 34.2022 142.327 33.8768 143.302 34.0594C144.277 34.242 144.687 34.7501 144.53 35.5836L144.451 36.0082C144.295 36.8417 143.729 37.1672 142.754 36.9845ZM141.114 39.0946L143.543 39.5497L141.246 51.8164L138.816 51.3613L141.114 39.0946ZM148.957 53.5537C148.187 53.4094 147.502 53.151 146.905 52.7786C146.307 52.4062 145.829 51.9178 145.47 51.3134C145.114 50.6933 144.878 49.9572 144.76 49.1051C144.659 48.2559 144.713 47.273 144.922 46.1564C145.131 45.0398 145.429 44.1026 145.815 43.3447C146.204 42.5711 146.667 41.9661 147.205 41.5296C147.758 41.096 148.365 40.8109 149.025 40.6741C149.702 40.5403 150.433 40.5471 151.219 40.6943C152.776 40.986 153.891 41.7239 154.565 42.9081C155.254 44.0953 155.39 45.8055 154.971 48.0386L154.856 48.652L147.355 47.2469L147.209 48.0254C147.026 49.0004 147.13 49.7931 147.521 50.4034C147.927 51.0166 148.562 51.4042 149.427 51.5662C150.166 51.7047 150.803 51.653 151.336 51.4111C151.886 51.1721 152.381 50.7848 152.824 50.249L153.987 51.8587C153.403 52.5469 152.689 53.0561 151.845 53.3865C151.021 53.7042 150.058 53.7599 148.957 53.5537ZM150.857 42.6287C150.039 42.4755 149.363 42.6093 148.828 43.0301C148.297 43.4352 147.938 44.1331 147.753 45.1238L147.66 45.6192L152.59 46.5427L152.683 46.0473C153.054 44.0657 152.445 42.9262 150.857 42.6287ZM156.37 54.649L158.667 42.3823L161.097 42.8374L160.642 45.2672L160.925 45.3202C161.245 44.5663 161.68 44.0291 162.228 43.7085C162.795 43.3752 163.448 43.2778 164.187 43.4162L164.801 43.5311L164.337 46.008L163.299 45.8136C162.434 45.6516 161.742 45.693 161.224 45.9379C160.706 46.1827 160.38 46.6668 160.244 47.3903L158.799 55.1041L156.37 54.649ZM164.548 56.1808L166.845 43.9141L169.275 44.3692L168.82 46.7989L169.103 46.8519C169.423 46.098 169.858 45.5608 170.406 45.2403C170.973 44.907 171.626 44.8095 172.365 44.948L172.979 45.0629L172.515 47.5398L171.477 47.3454C170.612 47.1834 169.92 47.2248 169.402 47.4696C168.885 47.7145 168.558 48.1986 168.422 48.922L166.978 56.6359L164.548 56.1808ZM177.062 58.8177C176.292 58.6734 175.608 58.415 175.01 58.0426C174.412 57.6702 173.934 57.1818 173.575 56.5775C173.219 55.9573 172.983 55.2212 172.865 54.3691C172.764 53.5199 172.818 52.537 173.027 51.4204C173.236 50.3038 173.534 49.3666 173.92 48.6087C174.309 47.8352 174.772 47.2301 175.31 46.7936C175.863 46.36 176.47 46.0749 177.13 45.9381C177.807 45.8043 178.538 45.8111 179.324 45.9584C180.881 46.25 181.996 46.9879 182.67 48.1721C183.359 49.3593 183.495 51.0695 183.076 53.3026L182.961 53.916L175.46 52.5109L175.314 53.2894C175.131 54.2644 175.235 55.0571 175.626 55.6674C176.032 56.2806 176.667 56.6683 177.532 56.8303C178.271 56.9687 178.908 56.917 179.441 56.6751C179.991 56.4361 180.487 56.0488 180.929 55.513L182.092 57.1228C181.508 57.8109 180.794 58.3201 179.95 58.6506C179.126 58.9682 178.163 59.0239 177.062 58.8177ZM178.962 47.8927C178.144 47.7396 177.468 47.8734 176.933 48.2941C176.402 48.6992 176.043 49.3971 175.858 50.3879L175.765 50.8832L180.695 51.8067L180.788 51.3113C181.159 49.3297 180.55 48.1902 178.962 47.8927ZM184.475 59.9131L186.772 47.6464L189.202 48.1014L188.822 50.1302L189.105 50.1832C189.881 48.7333 191.032 48.1512 192.558 48.4369C193.658 48.6431 194.437 49.1796 194.893 50.0464C195.368 50.9004 195.47 52.0509 195.199 53.4977L193.675 61.6362L191.245 61.1811L192.707 53.3729C192.869 52.5079 192.828 51.8165 192.583 51.2986C192.338 50.7806 191.862 50.4554 191.154 50.3228C190.51 50.2021 189.93 50.297 189.416 50.6077C188.905 50.9027 188.585 51.3962 188.455 52.0881L186.904 60.3681L184.475 59.9131ZM201.132 63.326C200.346 63.1787 199.662 62.9204 199.08 62.5509C198.514 62.1844 198.051 61.699 197.692 61.0946C197.349 60.4931 197.135 59.7693 197.049 58.9231C196.967 58.0611 197.03 57.0718 197.239 55.9552C197.448 54.8387 197.746 53.9014 198.132 53.1436C198.521 52.37 198.984 51.7649 199.522 51.3284C200.075 50.8949 200.682 50.6097 201.342 50.473C202.018 50.3392 202.75 50.3459 203.536 50.4932C204.307 50.6375 204.983 50.8944 205.565 51.2638C206.147 51.6333 206.609 52.1187 206.952 52.7202C207.311 53.3246 207.532 54.0578 207.615 54.9197C207.701 55.766 207.639 56.7474 207.43 57.864C207.221 58.9805 206.921 59.9256 206.532 60.6992C206.146 61.4571 205.677 62.0528 205.123 62.4864C204.586 62.9229 203.979 63.208 203.303 63.3418C202.626 63.4756 201.903 63.4704 201.132 63.326ZM201.512 61.2973C202.33 61.4505 202.997 61.3231 203.513 60.9151C204.045 60.51 204.403 59.8121 204.589 58.8213L205.128 55.9434C205.313 54.9526 205.232 54.1722 204.883 53.6022C204.549 53.0352 203.974 52.6751 203.156 52.5219C202.338 52.3687 201.664 52.4947 201.132 52.8997C200.616 53.3077 200.265 54.0071 200.08 54.9979L199.541 57.8758C199.355 58.8666 199.429 59.6455 199.762 60.2126C200.111 60.7826 200.695 61.1441 201.512 61.2973Z" fill="#0000FF"/>
</svg>
