<svg width="100%" height="100%" viewBox="0 0 374 480" fill="none" xmlns="http://www.w3.org/2000/svg">
<g id="hiphop-combined">
<g id="hip-hop-bubble" opacity="1">
<circle id="Ellipse 3" cx="187" cy="268" r="222" fill="#F1F1F1"/>
<text id="Hip Hop" fill="black" xml:space="preserve" style="white-space: pre" font-family="IBM Plex Sans Condensed" font-size="24" font-weight="bold" letter-spacing="-0.04em"><tspan x="144" y="23.5">Hip Hop</tspan></text>
</g>
<g id="dream-plugg-bubble-2">
<circle id="Ellipse 4" cx="92.5" cy="161.5" r="88.5" fill="#F1F1F1"/>
<text id="Dream Plugg" fill="black" xml:space="preserve" style="white-space: pre" font-family="IBM Plex Sans Condensed" font-size="24" font-weight="bold" letter-spacing="-0.04em"><tspan x="26" y="83.5">Dream Plugg</tspan></text>
<text id="added in 2023" fill="black" xml:space="preserve" style="white-space: pre" font-family="IBM Plex Sans Condensed" font-size="18" font-weight="500" letter-spacing="-0.04em"><tspan x="37" y="106.75">added in 2023</tspan></text>
</g>
<g id="dark-trap-bubble-2">
<circle id="Ellipse 7" cx="92.5" cy="371.5" r="88.5" fill="#F1F1F1"/>
<text id="Dark Trap" fill="black" xml:space="preserve" style="white-space: pre" font-family="IBM Plex Sans Condensed" font-size="24" font-weight="bold" letter-spacing="-0.04em"><tspan x="47" y="292.5">Dark Trap</tspan></text>
<text id="added in 2019" fill="black" xml:space="preserve" style="white-space: pre" font-family="IBM Plex Sans Condensed" font-size="18" font-weight="500" letter-spacing="-0.04em"><tspan x="44" y="317.75">added in 2019</tspan></text>
</g>
<g id="glitchcore-bubble-2">
<circle id="Ellipse 6" cx="281.5" cy="154.5" r="88.5" fill="#F1F1F1"/>
<text id="Glitchcore" fill="black" xml:space="preserve" style="white-space: pre" font-family="IBM Plex Sans Condensed" font-size="24" font-weight="bold" letter-spacing="-0.04em"><tspan x="235" y="78.5">Glitchcore</tspan></text>
<text id="added in 2020" fill="black" xml:space="preserve" style="white-space: pre" font-family="IBM Plex Sans Condensed" font-size="18" font-weight="500" letter-spacing="-0.04em"><tspan x="234" y="101.75">added in 2020</tspan></text>
</g>
<g id="phonk-bubble-2">
<circle id="Ellipse 5" cx="281.5" cy="370.5" r="88.5" fill="#F1F1F1"/>
<text id="Phonk" fill="black" xml:space="preserve" style="white-space: pre" font-family="IBM Plex Sans Condensed" font-size="24" font-weight="bold" letter-spacing="-0.04em"><tspan x="251" y="292.5">Phonk</tspan></text>
<text id="added in 2019_2" fill="black" xml:space="preserve" style="white-space: pre" font-family="IBM Plex Sans Condensed" font-size="18" font-weight="500" letter-spacing="-0.04em"><tspan x="234" y="315.75">added in 2019</tspan></text>
</g>
<g id="cloudymane-audio-1">
<rect id="bg" x="122" y="158" width="120" height="35" rx="10" fill="#D8D8D8"/>
<path id="fg" d="M122 168C122 162.477 126.477 158 132 158H212V193H132C126.477 193 122 188.523 122 183V168Z" fill="#45FE9A"/>
<g id="Group 27">
<text id="CloudyMane" fill="black" xml:space="preserve" style="white-space: pre" font-family="IBM Plex Sans Condensed" font-size="16" font-weight="bold" letter-spacing="-0.04em"><tspan x="133" y="181.5">CloudyMane</tspan></text>
<g id="&#240;&#159;&#142;&#181;">
<text fill="black" xml:space="preserve" style="white-space: pre" font-family="IBM Plex Sans Condensed" font-size="16" font-weight="bold" letter-spacing="-0.04em"><tspan x="218" y="182.38">&#x1f3b5;</tspan></text>
</g>
</g>
</g>
<g id="kobelocks-audio-1">
<rect id="bg_2" x="130" y="208" width="105" height="35" rx="10" fill="#D8D8D8"/>
<path id="fg_2" d="M130 218C130 212.477 134.477 208 140 208H211V243H140C134.477 243 130 238.523 130 233V218Z" fill="#45FE9A"/>
<text id="Kobelocks" fill="black" xml:space="preserve" style="white-space: pre" font-family="IBM Plex Sans Condensed" font-size="16" font-weight="bold" letter-spacing="-0.04em"><tspan x="140" y="231.5">Kobelocks</tspan></text>
<g id="&#240;&#159;&#142;&#181;_2">
<text fill="black" xml:space="preserve" style="white-space: pre" font-family="IBM Plex Sans Condensed" font-size="16" font-weight="bold" letter-spacing="-0.04em"><tspan x="212" y="232.38">&#x1f3b5;</tspan></text>
</g>
</g>
<g id="scarlxrd-audio-1">
<rect id="bg_3" x="135" y="258" width="94" height="35" rx="10" fill="#D8D8D8"/>
<path id="fg_3" d="M135 268C135 262.477 139.477 258 145 258H211V293H145C139.477 293 135 288.523 135 283V268Z" fill="#45FE9A"/>
<text id="Scarlxrd" fill="black" xml:space="preserve" style="white-space: pre" font-family="IBM Plex Sans Condensed" font-size="16" font-weight="bold" letter-spacing="-0.04em"><tspan x="146" y="280.5">Scarlxrd</tspan></text>
<g id="&#240;&#159;&#142;&#181;_3">
<text fill="black" xml:space="preserve" style="white-space: pre" font-family="IBM Plex Sans Condensed" font-size="16" font-weight="bold" letter-spacing="-0.04em"><tspan x="206" y="282.38">&#x1f3b5;</tspan></text>
</g>
</g>
<g id="lei-audio-1">
<rect id="bg_4" x="153" y="310" width="58" height="35" rx="10" fill="#D8D8D8"/>
<path id="fg_4" d="M153 320C153 314.477 157.477 310 163 310H193V345H163C157.477 345 153 340.523 153 335V320Z" fill="#45FE9A"/>
<text id="lei" fill="black" xml:space="preserve" style="white-space: pre" font-family="IBM Plex Sans Condensed" font-size="16" font-weight="bold" letter-spacing="-0.04em"><tspan x="165" y="333.5">lei</tspan></text>
<g id="&#240;&#159;&#142;&#181;_4">
<text fill="black" xml:space="preserve" style="white-space: pre" font-family="IBM Plex Sans Condensed" font-size="16" font-weight="bold" letter-spacing="-0.04em"><tspan x="188" y="334.38">&#x1f3b5;</tspan></text>
</g>
</g>
<g id="cloudymane-audio-2">
<rect id="bg_5" x="222" y="355" width="120" height="35" rx="10" fill="#D8D8D8"/>
<path id="fg_5" d="M222 365C222 359.477 226.477 355 232 355H318V390H232C226.477 390 222 385.523 222 380V365Z" fill="#45FE9A"/>
<g id="Group 27_2">
<text id="CloudyMane_2" fill="black" xml:space="preserve" style="white-space: pre" font-family="IBM Plex Sans Condensed" font-size="16" font-weight="bold" letter-spacing="-0.04em"><tspan x="233" y="378.5">CloudyMane</tspan></text>
<g id="&#240;&#159;&#142;&#181;_5">
<text fill="black" xml:space="preserve" style="white-space: pre" font-family="IBM Plex Sans Condensed" font-size="16" font-weight="bold" letter-spacing="-0.04em"><tspan x="318" y="379.38">&#x1f3b5;</tspan></text>
</g>
</g>
</g>
<g id="kobelocks-audio-2">
<rect id="bg_6" x="40" y="145" width="105" height="35" rx="10" fill="#D8D8D8"/>
<path id="fg_6" d="M40 155C40 149.477 44.4772 145 50 145H122V180H50C44.4772 180 40 175.523 40 170V155Z" fill="#45FE9A"/>
<text id="Kobelocks_2" fill="black" xml:space="preserve" style="white-space: pre" font-family="IBM Plex Sans Condensed" font-size="16" font-weight="bold" letter-spacing="-0.04em"><tspan x="50" y="168.5">Kobelocks</tspan></text>
<g id="&#240;&#159;&#142;&#181;_6">
<text fill="black" xml:space="preserve" style="white-space: pre" font-family="IBM Plex Sans Condensed" font-size="16" font-weight="bold" letter-spacing="-0.04em"><tspan x="122" y="169.38">&#x1f3b5;</tspan></text>
</g>
</g>
<g id="scarlxrd-audio-2">
<rect id="bg_7" x="46" y="364" width="94" height="35" rx="10" fill="#D8D8D8"/>
<path id="fg_7" d="M46 374C46 368.477 50.4772 364 56 364H117V399H56C50.4772 399 46 394.523 46 389V374Z" fill="#45FE9A"/>
<text id="Scarlxrd_2" fill="black" xml:space="preserve" style="white-space: pre" font-family="IBM Plex Sans Condensed" font-size="16" font-weight="bold" letter-spacing="-0.04em"><tspan x="57" y="386.5">Scarlxrd</tspan></text>
<g id="&#240;&#159;&#142;&#181;_7">
<text fill="black" xml:space="preserve" style="white-space: pre" font-family="IBM Plex Sans Condensed" font-size="16" font-weight="bold" letter-spacing="-0.04em"><tspan x="117" y="388.38">&#x1f3b5;</tspan></text>
</g>
</g>
<g id="lei-audio-2">
<rect id="bg_8" x="253" y="145" width="58" height="35" rx="10" fill="#D8D8D8"/>
<path id="fg_8" d="M253 155C253 149.477 257.477 145 263 145H292V180H263C257.477 180 253 175.523 253 170V155Z" fill="#45FE9A"/>
<text id="lei_2" fill="black" xml:space="preserve" style="white-space: pre" font-family="IBM Plex Sans Condensed" font-size="16" font-weight="bold" letter-spacing="-0.04em"><tspan x="265" y="168.5">lei</tspan></text>
<g id="&#240;&#159;&#142;&#181;_8">
<text fill="black" xml:space="preserve" style="white-space: pre" font-family="IBM Plex Sans Condensed" font-size="16" font-weight="bold" letter-spacing="-0.04em"><tspan x="288" y="169.38">&#x1f3b5;</tspan></text>
</g>
</g>
</g>
</svg>
