<svg width="100%" height="100%" viewBox="0 0 374 549" fill="none" xmlns="http://www.w3.org/2000/svg">
<g id="latin-combined">
<g id="latin-bubble-1">
<circle id="Ellipse 3" cx="187" cy="260" r="225" fill="#F1F1F1"/>
<text id="Latin" fill="black" xml:space="preserve" style="white-space: pre" font-family="IBM Plex Sans Condensed" font-size="24" font-weight="bold" letter-spacing="-0.04em"><tspan x="163" y="23.5">Latin</tspan></text>
<text id="shakira" opacity="0.7" fill="black" xml:space="preserve" style="white-space: pre" font-family="IBM Plex Sans Condensed" font-size="16" font-weight="500" letter-spacing="-0.04em"><tspan x="260" y="156.5">Shakira</tspan></text>
<text id="marc-antony" opacity="0.7" fill="black" xml:space="preserve" style="white-space: pre" font-family="IBM Plex Sans Condensed" font-size="16" font-weight="500" letter-spacing="-0.04em"><tspan x="263" y="204.5">Marc Antony</tspan></text>
<text id="bad-bunny" opacity="0.7" fill="black" xml:space="preserve" style="white-space: pre" font-family="IBM Plex Sans Condensed" font-size="16" font-weight="500" letter-spacing="-0.04em"><tspan x="40" y="353.5">Bad Bunny</tspan></text>
<text id="j-balvin" opacity="0.7" fill="black" xml:space="preserve" style="white-space: pre" font-family="IBM Plex Sans Condensed" font-size="16" font-weight="500" letter-spacing="-0.04em"><tspan x="155" y="419.5">J Balvin</tspan></text>
<text id="ozuna" opacity="0.7" fill="black" xml:space="preserve" style="white-space: pre" font-family="IBM Plex Sans Condensed" font-size="16" font-weight="500" letter-spacing="-0.04em"><tspan x="106" y="302.5">Ozuna</tspan></text>
<text id="ricky-martin" opacity="0.7" fill="black" xml:space="preserve" style="white-space: pre" font-family="IBM Plex Sans Condensed" font-size="16" font-weight="500" letter-spacing="-0.04em"><tspan x="108" y="159.5">Ricky Martin</tspan></text>
</g>
<g id="carlos-vives-audio-1">
<rect id="bg" x="53" y="93" width="117" height="35" rx="10" fill="#D8D8D8"/>
<path id="fg" d="M53 103C53 97.4772 57.4772 93 63 93H145V128H63C57.4772 128 53 123.523 53 118V103Z" fill="#45FE9A"/>
<g id="Group 27">
<text id="Carlos Vives" fill="black" xml:space="preserve" style="white-space: pre" font-family="IBM Plex Sans Condensed" font-size="16" font-weight="bold" letter-spacing="-0.04em"><tspan x="62" y="116.5">Carlos Vives</tspan></text>
<g id="&#240;&#159;&#142;&#181;">
<text fill="black" xml:space="preserve" style="white-space: pre" font-family="IBM Plex Sans Condensed" font-size="16" font-weight="bold" letter-spacing="-0.04em"><tspan x="146" y="117.38">&#x1f3b5;</tspan></text>
</g>
</g>
</g>
<g id="romeo-santos-audio-1">
<rect id="bg_2" x="214" y="242" width="129" height="35" rx="10" fill="#D8D8D8"/>
<path id="fg_2" d="M214 252C214 246.477 218.477 242 224 242H299V277H224C218.477 277 214 272.523 214 267V252Z" fill="#45FE9A"/>
<g id="Group 27_2">
<text id="Romeo Santos" fill="black" xml:space="preserve" style="white-space: pre" font-family="IBM Plex Sans Condensed" font-size="16" font-weight="bold" letter-spacing="-0.04em"><tspan x="222" y="265.5">Romeo Santos</tspan></text>
<g id="&#240;&#159;&#142;&#181;_2">
<text fill="black" xml:space="preserve" style="white-space: pre" font-family="IBM Plex Sans Condensed" font-size="16" font-weight="bold" letter-spacing="-0.04em"><tspan x="319" y="266.38">&#x1f3b5;</tspan></text>
</g>
</g>
</g>
<g id="luis-fonsi-audio-1">
<rect id="bg_4" x="198" y="78" width="101" height="35" rx="10" fill="#D8D8D8"/>
<path id="fg_4" d="M198 88C198 82.4772 202.477 78 208 78H269V113H208C202.477 113 198 108.523 198 103V88Z" fill="#45FE9A"/>
<g id="Group 27_4">
<text id="Luis Fonsi" fill="black" xml:space="preserve" style="white-space: pre" font-family="IBM Plex Sans Condensed" font-size="16" font-weight="bold" letter-spacing="-0.04em"><tspan x="207" y="101.5">Luis Fonsi</tspan></text>
<g id="&#240;&#159;&#142;&#181;_4">
<text fill="black" xml:space="preserve" style="white-space: pre" font-family="IBM Plex Sans Condensed" font-size="16" font-weight="bold" letter-spacing="-0.04em"><tspan x="275" y="102.38">&#x1f3b5;</tspan></text>
</g>
</g>
</g>
<g id="urbano-latino-bubble-2">
<circle id="Ellipse 3_2" opacity="0.9" cx="88" cy="281" r="155" fill="#E7E7E7"/>
<text id="Urbano Latino" fill="black" xml:space="preserve" style="white-space: pre" font-family="IBM Plex Sans Condensed" font-size="24" font-weight="bold" letter-spacing="-0.04em"><tspan x="19" y="284.5">Urbano Latino</tspan></text>
</g>
<g id="latin-pop-bubble-2">
<circle id="Ellipse 4" opacity="0.3" cx="271.5" cy="192.5" r="121.5" fill="#B1B1B1"/>
<text id="Latin Pop" fill="black" xml:space="preserve" style="white-space: pre" font-family="IBM Plex Sans Condensed" font-size="24" font-weight="bold" letter-spacing="-0.04em"><tspan x="254" y="182.5">Latin Pop</tspan></text>
</g>
<g id="latin-hip-hop-bubble-2">
<circle id="Ellipse 7" opacity="0.6" cx="114" cy="105" r="95" fill="#B8B8B8"/>
<text id="Latin Hip Hop" fill="black" xml:space="preserve" style="white-space: pre" font-family="IBM Plex Sans Condensed" font-size="24" font-weight="bold" letter-spacing="-0.04em"><tspan x="45" y="104.5">Latin Hip Hop</tspan></text>
</g>
<g id="trap-latino-bubble-2">
<circle id="Ellipse 6" opacity="0.4" cx="55" cy="467" r="82" fill="#B8B8B8"/>
<text id="Trap Latino" fill="black" xml:space="preserve" style="white-space: pre" font-family="IBM Plex Sans Condensed" font-size="24" font-weight="bold" letter-spacing="-0.04em"><tspan x="10" y="484.5">Trap Latino</tspan></text>
<text id="bad-bunny_2" fill="black" fill-opacity="0.7" xml:space="preserve" style="white-space: pre" font-family="IBM Plex Sans Condensed" font-size="16" font-weight="500" letter-spacing="-0.04em"><tspan x="28" y="416.5">Bad Bunny</tspan></text>
</g>
<g id="musica-mexicana-bubble-2">
<circle id="Ellipse 5" opacity="0.6" cx="333" cy="352" r="71" fill="#B1B1B1"/>
<text id="Musica Mexicana" fill="black" xml:space="preserve" style="white-space: pre" font-family="IBM Plex Sans Condensed" font-size="24" font-weight="bold" letter-spacing="-0.04em"><tspan x="294.638" y="349.5">Musica </tspan><tspan x="282.415" y="378.5">Mexicana</tspan></text>
</g>
<g id="chino-nacho-audio-2">
<rect id="bg_7" x="28" y="139" width="133" height="35" rx="10" fill="#D8D8D8"/>
<path id="fg_7" d="M28 149C28 143.477 32.4772 139 38 139H126V174H38C32.4772 174 28 169.523 28 164V149Z" fill="#45FE9A"/>
<g id="Group 26_2">
<text id="Chino &#38; Nacho_2" fill="black" xml:space="preserve" style="white-space: pre" font-family="IBM Plex Sans Condensed" font-size="16" font-weight="bold" letter-spacing="-0.04em"><tspan x="37" y="161.5">Chino &#38; Nacho</tspan></text>
<g id="&#240;&#159;&#142;&#181;_7">
<text fill="black" xml:space="preserve" style="white-space: pre" font-family="IBM Plex Sans Condensed" font-size="16" font-weight="bold" letter-spacing="-0.04em"><tspan x="136" y="164.38">&#x1f3b5;</tspan></text>
</g>
</g>
</g>
<g id="chino-nacho-audio-1">
<rect id="bg_5" x="29" y="224" width="133" height="35" rx="10" fill="#D8D8D8"/>
<path id="fg_5" d="M29 234C29 228.477 33.4772 224 39 224H119V259H39C33.4772 259 29 254.523 29 249V234Z" fill="#45FE9A"/>
<g id="Group 26">
<text id="Chino &#38; Nacho" fill="black" xml:space="preserve" style="white-space: pre" font-family="IBM Plex Sans Condensed" font-size="16" font-weight="bold" letter-spacing="-0.04em"><tspan x="38" y="246.5">Chino &#38; Nacho</tspan></text>
<g id="&#240;&#159;&#142;&#181;_5">
<text fill="black" xml:space="preserve" style="white-space: pre" font-family="IBM Plex Sans Condensed" font-size="16" font-weight="bold" letter-spacing="-0.04em"><tspan x="137" y="249.38">&#x1f3b5;</tspan></text>
</g>
</g>
</g>
<g id="becky-g-audio-1">
<rect id="bg_6" x="17" y="396" width="95" height="35" rx="10" fill="#D8D8D8"/>
<path id="fg_6" d="M17 406C17 400.477 21.4772 396 27 396H88V431H27C21.4772 431 17 426.523 17 421V406Z" fill="#45FE9A"/>
<g id="Group 27_5">
<text id="Becky G" fill="black" xml:space="preserve" style="white-space: pre" font-family="IBM Plex Sans Condensed" font-size="16" font-weight="bold" letter-spacing="-0.04em"><tspan x="26" y="419.5">Becky G</tspan></text>
<g id="&#240;&#159;&#142;&#181;_6">
<text fill="black" xml:space="preserve" style="white-space: pre" font-family="IBM Plex Sans Condensed" font-size="16" font-weight="bold" letter-spacing="-0.04em"><tspan x="88" y="420.38">&#x1f3b5;</tspan></text>
</g>
</g>
</g>
<g id="juan-gabriel-audio-1" >
<rect id="bg_3" x="184" y="348" width="122" height="35" rx="10" fill="#D8D8D8"/>
<path id="fg_3" d="M184 358C184 352.477 188.477 348 194 348H269V383H194C188.477 383 184 378.523 184 373V358Z" fill="#45FE9A"/>
<g id="Group 27_3">
<text id="Juan Gabriel" fill="black" xml:space="preserve" style="white-space: pre" font-family="IBM Plex Sans Condensed" font-size="16" font-weight="bold" letter-spacing="-0.04em"><tspan x="193" y="371.5">Juan Gabriel</tspan></text>
<g id="&#240;&#159;&#142;&#181;_3">
<text fill="black" xml:space="preserve" style="white-space: pre" font-family="IBM Plex Sans Condensed" font-size="16" font-weight="bold" letter-spacing="-0.04em"><tspan x="282" y="372.38">&#x1f3b5;</tspan></text>
</g>
</g>
</g>
<g id="becky-g-audio-2">
<rect id="bg_8" x="152" y="219" width="95" height="35" rx="10" fill="#D8D8D8"/>
<path id="fg_8" d="M152 229C152 223.477 156.477 219 162 219H227V254H162C156.477 254 152 249.523 152 244V229Z" fill="#45FE9A"/>
<g id="Group 27_6">
<text id="Becky G_2" fill="black" xml:space="preserve" style="white-space: pre" font-family="IBM Plex Sans Condensed" font-size="16" font-weight="bold" letter-spacing="-0.04em"><tspan x="161" y="242.5">Becky G</tspan></text>
<g id="&#240;&#159;&#142;&#181;_8">
<text fill="black" xml:space="preserve" style="white-space: pre" font-family="IBM Plex Sans Condensed" font-size="16" font-weight="bold" letter-spacing="-0.04em"><tspan x="223" y="243.38">&#x1f3b5;</tspan></text>
</g>
</g>
</g>
<g id="juan-gabriel-audio-2" >
<rect id="bg_9" x="254" y="279" width="122" height="35" rx="10" fill="#D8D8D8"/>
<path id="fg_9" d="M254 289C254 283.477 258.477 279 264 279H352V314H264C258.477 314 254 309.523 254 304V289Z" fill="#45FE9A"/>
<g id="Group 27_7">
<text id="Juan Gabriel_2" fill="black" xml:space="preserve" style="white-space: pre" font-family="IBM Plex Sans Condensed" font-size="16" font-weight="bold" letter-spacing="-0.04em"><tspan x="263" y="302.5">Juan Gabriel</tspan></text>
<g id="&#240;&#159;&#142;&#181;_9">
<text fill="black" xml:space="preserve" style="white-space: pre" font-family="IBM Plex Sans Condensed" font-size="16" font-weight="bold" letter-spacing="-0.04em"><tspan x="352" y="303.38">&#x1f3b5;</tspan></text>
</g>
</g>
</g>
</g>
</svg>
